<svg xmlns="http://www.w3.org/2000/svg" xmlns:xlink="http://www.w3.org/1999/xlink" viewBox="0 0 3607.91 1728"><defs><style>.cls-1{fill:none;}.cls-2{isolation:isolate;}.cls-3{clip-path:url(#clip-path);}.cls-4{mix-blend-mode:color-dodge;fill:url(#radial-gradient);}.cls-5{opacity:0.4;}.cls-10,.cls-11,.cls-12,.cls-13,.cls-14,.cls-15,.cls-16,.cls-17,.cls-18,.cls-19,.cls-20,.cls-21,.cls-22,.cls-23,.cls-24,.cls-25,.cls-26,.cls-27,.cls-28,.cls-29,.cls-30,.cls-31,.cls-32,.cls-33,.cls-34,.cls-35,.cls-36,.cls-37,.cls-38,.cls-39,.cls-40,.cls-41,.cls-42,.cls-43,.cls-44,.cls-45,.cls-46,.cls-47,.cls-48,.cls-49,.cls-50,.cls-51,.cls-52,.cls-53,.cls-54,.cls-6,.cls-7,.cls-8,.cls-9{fill-rule:evenodd;}.cls-6{fill:url(#Áåçûìÿííûé_ãðàäèåíò_704);}.cls-7{fill:url(#Áåçûìÿííûé_ãðàäèåíò_704-2);}.cls-8{fill:url(#Áåçûìÿííûé_ãðàäèåíò_704-3);}.cls-9{fill:url(#Áåçûìÿííûé_ãðàäèåíò_704-4);}.cls-10{fill:url(#Áåçûìÿííûé_ãðàäèåíò_14);}.cls-11,.cls-12,.cls-13,.cls-14,.cls-15,.cls-16,.cls-17,.cls-18,.cls-19,.cls-20,.cls-29,.cls-30,.cls-34,.cls-37,.cls-40{opacity:0.5;mix-blend-mode:multiply;}.cls-11{fill:url(#Áåçûìÿííûé_ãðàäèåíò_5);}.cls-12{fill:url(#Áåçûìÿííûé_ãðàäèåíò_5-2);}.cls-13{fill:url(#Áåçûìÿííûé_ãðàäèåíò_5-3);}.cls-14{fill:url(#Áåçûìÿííûé_ãðàäèåíò_12);}.cls-15{fill:url(#Áåçûìÿííûé_ãðàäèåíò_12-2);}.cls-16{fill:url(#Áåçûìÿííûé_ãðàäèåíò_12-3);}.cls-17{fill:url(#Áåçûìÿííûé_ãðàäèåíò_12-4);}.cls-18{fill:url(#Áåçûìÿííûé_ãðàäèåíò_12-5);}.cls-19{fill:url(#Áåçûìÿííûé_ãðàäèåíò_12-6);}.cls-20{fill:url(#Áåçûìÿííûé_ãðàäèåíò_12-7);}.cls-21{fill:url(#Áåçûìÿííûé_ãðàäèåíò_8);}.cls-22{fill:url(#Áåçûìÿííûé_ãðàäèåíò_8-2);}.cls-23{fill:url(#Áåçûìÿííûé_ãðàäèåíò_8-3);}.cls-24{fill:url(#Áåçûìÿííûé_ãðàäèåíò_11);}.cls-25{fill:url(#Áåçûìÿííûé_ãðàäèåíò_9);}.cls-26{fill:url(#Áåçûìÿííûé_ãðàäèåíò_704-5);}.cls-27{fill:url(#Áåçûìÿííûé_ãðàäèåíò_704-6);}.cls-28{fill:url(#Áåçûìÿííûé_ãðàäèåíò_704-7);}.cls-29{fill:url(#Áåçûìÿííûé_ãðàäèåíò_5-4);}.cls-30{fill:url(#Áåçûìÿííûé_ãðàäèåíò_5-5);}.cls-31{fill:url(#Áåçûìÿííûé_ãðàäèåíò_8-4);}.cls-32{fill:url(#Áåçûìÿííûé_ãðàäèåíò_8-5);}.cls-33{fill:url(#Áåçûìÿííûé_ãðàäèåíò_704-8);}.cls-34{fill:url(#Áåçûìÿííûé_ãðàäèåíò_5-6);}.cls-35{fill:url(#Áåçûìÿííûé_ãðàäèåíò_8-6);}.cls-36{fill:url(#Áåçûìÿííûé_ãðàäèåíò_704-9);}.cls-37{fill:url(#Áåçûìÿííûé_ãðàäèåíò_5-7);}.cls-38{fill:url(#Áåçûìÿííûé_ãðàäèåíò_8-7);}.cls-39{fill:url(#Áåçûìÿííûé_ãðàäèåíò_8-8);}.cls-40{fill:url(#Áåçûìÿííûé_ãðàäèåíò_5-8);}.cls-41{fill:url(#Áåçûìÿííûé_ãðàäèåíò_704-10);}.cls-42{fill:url(#Áåçûìÿííûé_ãðàäèåíò_704-11);}.cls-43{fill:url(#Áåçûìÿííûé_ãðàäèåíò_704-12);}.cls-44{fill:url(#Áåçûìÿííûé_ãðàäèåíò_3);}.cls-45{fill:url(#Áåçûìÿííûé_ãðàäèåíò_3-2);}.cls-46{fill:url(#Áåçûìÿííûé_ãðàäèåíò_3-3);}.cls-47{fill:url(#Áåçûìÿííûé_ãðàäèåíò_3-4);}.cls-48{fill:url(#Áåçûìÿííûé_ãðàäèåíò_3-5);}.cls-49{fill:url(#Áåçûìÿííûé_ãðàäèåíò_3-6);}.cls-50{fill:url(#Áåçûìÿííûé_ãðàäèåíò_3-7);}.cls-51{fill:url(#Áåçûìÿííûé_ãðàäèåíò_3-8);}.cls-52{fill:url(#Áåçûìÿííûé_ãðàäèåíò_3-9);}.cls-53{fill:url(#Áåçûìÿííûé_ãðàäèåíò_3-10);}.cls-54{fill:url(#Áåçûìÿííûé_ãðàäèåíò_3-11);}.cls-55,.cls-56{mix-blend-mode:screen;}.cls-55{fill:url(#Áåçûìÿííûé_ãðàäèåíò_682);}.cls-56{fill:url(#Áåçûìÿííûé_ãðàäèåíò_707);}</style><clipPath id="clip-path"><rect class="cls-1" x="4594.48" y="-271.43" width="2590.61" height="1939.93"/></clipPath><radialGradient id="radial-gradient" cx="5556.11" cy="1912.97" r="1804.07" gradientTransform="translate(-1683.35 -98.85) scale(1.37 1.05)" gradientUnits="userSpaceOnUse"><stop offset="0" stop-color="#da84b6"/><stop offset="0.22" stop-color="#a9678d"/><stop offset="1" stop-color="#010101"/></radialGradient><radialGradient id="Áåçûìÿííûé_ãðàäèåíò_704" cx="4816.6" cy="-1643.49" r="783.47" gradientTransform="matrix(0.35, -0.67, 1.86, -0.23, 2592.76, 3341.09)" gradientUnits="userSpaceOnUse"><stop offset="0.02" stop-color="#4bade2"/><stop offset="0.29" stop-color="#3662ac"/><stop offset="0.47" stop-color="#335499"/><stop offset="0.82" stop-color="#2a2f6a"/><stop offset="0.85" stop-color="#292b64"/></radialGradient><radialGradient id="Áåçûìÿííûé_ãðàäèåíò_704-2" cx="3713.81" cy="-1558.1" r="1122.12" xlink:href="#Áåçûìÿííûé_ãðàäèåíò_704"/><radialGradient id="Áåçûìÿííûé_ãðàäèåíò_704-3" cx="3931.01" cy="-1517.4" r="1082.12" xlink:href="#Áåçûìÿííûé_ãðàäèåíò_704"/><radialGradient id="Áåçûìÿííûé_ãðàäèåíò_704-4" cx="4034.33" cy="-1608.8" r="1176.09" xlink:href="#Áåçûìÿííûé_ãðàäèåíò_704"/><radialGradient id="Áåçûìÿííûé_ãðàäèåíò_14" cx="4580.79" cy="-610" r="602.18" gradientTransform="matrix(0.35, -0.67, 1.86, -0.23, 2592.76, 3341.09)" gradientUnits="userSpaceOnUse"><stop offset="0.02" stop-color="#44b9eb"/><stop offset="0.29" stop-color="#3867b0"/><stop offset="0.85" stop-color="#354395"/></radialGradient><linearGradient id="Áåçûìÿííûé_ãðàäèåíò_5" x1="3851.7" y1="-1.62" x2="3851.7" y2="-2091.8" gradientTransform="translate(2681.92 4716.6) rotate(-86.42)" gradientUnits="userSpaceOnUse"><stop offset="0" stop-color="#446fb5"/><stop offset="0.13" stop-color="#4266af"/><stop offset="0.69" stop-color="#3c4396"/><stop offset="0.99" stop-color="#39358c"/></linearGradient><linearGradient id="Áåçûìÿííûé_ãðàäèåíò_5-2" x1="3895.77" y1="-295.87" x2="3895.77" y2="-1573.69" xlink:href="#Áåçûìÿííûé_ãðàäèåíò_5"/><linearGradient id="Áåçûìÿííûé_ãðàäèåíò_5-3" x1="3912.72" y1="-688.95" x2="3912.72" y2="-1300.26" xlink:href="#Áåçûìÿííûé_ãðàäèåíò_5"/><linearGradient id="Áåçûìÿííûé_ãðàäèåíò_12" x1="3644.76" y1="-90.89" x2="3644.76" y2="-2285.89" gradientTransform="translate(2681.92 4716.6) rotate(-86.42)" gradientUnits="userSpaceOnUse"><stop offset="0.01" stop-color="#39358c"/><stop offset="0.31" stop-color="#3c4396"/><stop offset="0.87" stop-color="#4266af"/><stop offset="1" stop-color="#446fb5"/></linearGradient><linearGradient id="Áåçûìÿííûé_ãðàäèåíò_12-2" x1="3263.85" y1="-613.73" x2="3263.85" y2="-2452.3" xlink:href="#Áåçûìÿííûé_ãðàäèåíò_12"/><linearGradient id="Áåçûìÿííûé_ãðàäèåíò_12-3" x1="3586.61" y1="277.59" x2="3586.61" y2="-1716.75" xlink:href="#Áåçûìÿííûé_ãðàäèåíò_12"/><linearGradient id="Áåçûìÿííûé_ãðàäèåíò_12-4" x1="2991.95" y1="-1190.99" x2="2991.95" y2="-2402.83" xlink:href="#Áåçûìÿííûé_ãðàäèåíò_12"/><linearGradient id="Áåçûìÿííûé_ãðàäèåíò_12-5" x1="3802.83" y1="-500.92" x2="3802.83" y2="-1705.73" xlink:href="#Áåçûìÿííûé_ãðàäèåíò_12"/><linearGradient id="Áåçûìÿííûé_ãðàäèåíò_12-6" x1="3853.66" y1="-860.49" x2="3853.66" y2="-1326.34" xlink:href="#Áåçûìÿííûé_ãðàäèåíò_12"/><linearGradient id="Áåçûìÿííûé_ãðàäèåíò_12-7" x1="3855.6" y1="-852.58" x2="3855.6" y2="-2259.4" xlink:href="#Áåçûìÿííûé_ãðàäèåíò_12"/><radialGradient id="Áåçûìÿííûé_ãðàäèåíò_8" cx="4111.43" cy="-1549.07" r="742.77" gradientTransform="matrix(0.35, -0.67, 1.86, -0.23, 2592.76, 3341.09)" gradientUnits="userSpaceOnUse"><stop offset="0.01" stop-color="#58b6e8"/><stop offset="0.66" stop-color="#4d8cca"/><stop offset="1" stop-color="#396db4"/></radialGradient><radialGradient id="Áåçûìÿííûé_ãðàäèåíò_8-2" cx="4238.58" cy="-1280.99" r="164.29" xlink:href="#Áåçûìÿííûé_ãðàäèåíò_8"/><radialGradient id="Áåçûìÿííûé_ãðàäèåíò_8-3" cx="4204.99" cy="-1388.7" r="396.43" xlink:href="#Áåçûìÿííûé_ãðàäèåíò_8"/><linearGradient id="Áåçûìÿííûé_ãðàäèåíò_11" x1="3323.28" y1="-613.73" x2="3323.28" y2="-2407.28" gradientTransform="translate(2681.92 4716.6) rotate(-86.42)" gradientUnits="userSpaceOnUse"><stop offset="0" stop-color="#3153a0"/><stop offset="0.99" stop-color="#58b6e8"/></linearGradient><linearGradient id="Áåçûìÿííûé_ãðàäèåíò_9" x1="3706.67" y1="192.91" x2="3706.67" y2="-1010.57" gradientTransform="translate(2681.92 4716.6) rotate(-86.42)" gradientUnits="userSpaceOnUse"><stop offset="0.01" stop-color="#375ca7"/><stop offset="1" stop-color="#3153a0"/></linearGradient><radialGradient id="Áåçûìÿííûé_ãðàäèåíò_704-5" cx="4128.54" cy="-827.69" r="1482.47" gradientTransform="matrix(0.35, -0.67, 1.66, -0.2, 1152.85, 3516.25)" xlink:href="#Áåçûìÿííûé_ãðàäèåíò_704"/><radialGradient id="Áåçûìÿííûé_ãðàäèåíò_704-6" cx="4128.55" cy="-827.69" r="1482.4" gradientTransform="matrix(0.35, -0.67, 1.66, -0.2, 1152.85, 3516.25)" xlink:href="#Áåçûìÿííûé_ãðàäèåíò_704"/><radialGradient id="Áåçûìÿííûé_ãðàäèåíò_704-7" cx="4128.64" cy="-827.64" r="1482.24" gradientTransform="matrix(0.35, -0.67, 1.66, -0.2, 1152.85, 3516.25)" xlink:href="#Áåçûìÿííûé_ãðàäèåíò_704"/><linearGradient id="Áåçûìÿííûé_ãðàäèåíò_5-4" x1="4028.28" y1="-868.24" x2="4028.28" y2="-1175.3" xlink:href="#Áåçûìÿííûé_ãðàäèåíò_5"/><linearGradient id="Áåçûìÿííûé_ãðàäèåíò_5-5" x1="3670.27" y1="-65.54" x2="3670.27" y2="-531.43" xlink:href="#Áåçûìÿííûé_ãðàäèåíò_5"/><radialGradient id="Áåçûìÿííûé_ãðàäèåíò_8-4" cx="3702.73" cy="140.71" r="135.74" gradientTransform="matrix(0.35, -0.67, 1.66, -0.2, 1152.85, 3516.25)" xlink:href="#Áåçûìÿííûé_ãðàäèåíò_8"/><radialGradient id="Áåçûìÿííûé_ãðàäèåíò_8-5" cx="4472.58" cy="-477.73" r="39.49" gradientTransform="matrix(0.35, -0.67, 1.66, -0.2, 1152.85, 3516.25)" xlink:href="#Áåçûìÿííûé_ãðàäèåíò_8"/><radialGradient id="Áåçûìÿííûé_ãðàäèåíò_704-8" cx="5475.81" cy="54.36" r="1482.37" gradientTransform="matrix(-1.16, -0.05, 0.93, -0.7, 6934.24, 1682)" xlink:href="#Áåçûìÿííûé_ãðàäèåíò_704"/><linearGradient id="Áåçûìÿííûé_ãðàäèåíò_5-6" x1="6902.74" y1="-379.75" x2="6902.74" y2="-542.18" gradientTransform="matrix(-0.74, -0.35, 0.43, -0.9, 5895.79, 3108.73)" xlink:href="#Áåçûìÿííûé_ãðàäèåíò_5"/><radialGradient id="Áåçûìÿííûé_ãðàäèåíò_8-6" cx="5819.78" cy="404.35" r="39.5" gradientTransform="matrix(-1.16, -0.05, 0.93, -0.7, 6934.24, 1682)" xlink:href="#Áåçûìÿííûé_ãðàäèåíò_8"/><radialGradient id="Áåçûìÿííûé_ãðàäèåíò_704-9" cx="4224.98" cy="367.39" r="1473.51" gradientTransform="matrix(-1.32, -0.13, -1.07, 0.69, 9111.45, 929.43)" xlink:href="#Áåçûìÿííûé_ãðàäèåíò_704"/><linearGradient id="Áåçûìÿííûé_ãðàäèåíò_5-7" x1="4858.46" y1="1200.5" x2="4858.46" y2="971.6" gradientTransform="matrix(-0.86, -0.51, -0.51, 0.86, 7089.93, 2404.75)" xlink:href="#Áåçûìÿííûé_ãðàäèåíò_5"/><radialGradient id="Áåçûìÿííûé_ãðàäèåíò_8-7" cx="4564.74" cy="717.38" r="39.5" gradientTransform="matrix(-1.32, -0.13, -1.07, 0.69, 9111.45, 929.43)" xlink:href="#Áåçûìÿííûé_ãðàäèåíò_8"/><radialGradient id="Áåçûìÿííûé_ãðàäèåíò_8-8" cx="4423.4" cy="-684.3" r="69.3" gradientTransform="matrix(0.35, -0.67, 1.66, -0.2, 1152.85, 3516.25)" xlink:href="#Áåçûìÿííûé_ãðàäèåíò_8"/><linearGradient id="Áåçûìÿííûé_ãðàäèåíò_5-8" x1="3890.08" y1="-1147.56" x2="3890.08" y2="-1775.38" xlink:href="#Áåçûìÿííûé_ãðàäèåíò_5"/><radialGradient id="Áåçûìÿííûé_ãðàäèåíò_704-10" cx="3457.17" cy="-410.41" r="518.9" gradientTransform="matrix(0.35, -0.67, 1.66, -0.2, 1152.85, 3516.25)" xlink:href="#Áåçûìÿííûé_ãðàäèåíò_704"/><radialGradient id="Áåçûìÿííûé_ãðàäèåíò_704-11" cx="3482.58" cy="-205.87" r="332.98" gradientTransform="matrix(0.35, -0.67, 1.66, -0.2, 1152.85, 3516.25)" xlink:href="#Áåçûìÿííûé_ãðàäèåíò_704"/><radialGradient id="Áåçûìÿííûé_ãðàäèåíò_704-12" cx="4496.05" cy="-624.05" r="1077.2" gradientTransform="matrix(0.35, -0.67, 1.66, -0.2, 1152.85, 3516.25)" xlink:href="#Áåçûìÿííûé_ãðàäèåíò_704"/><radialGradient id="Áåçûìÿííûé_ãðàäèåíò_3" cx="4274.39" cy="-1077.01" r="982.92" gradientTransform="matrix(0.35, -0.67, 1.66, -0.2, 1152.85, 3516.25)" gradientUnits="userSpaceOnUse"><stop offset="0.02" stop-color="#4bade2"/><stop offset="0.45" stop-color="#417cbf"/><stop offset="0.85" stop-color="#2e4b9b"/></radialGradient><radialGradient id="Áåçûìÿííûé_ãðàäèåíò_3-2" cx="4191.08" cy="153.39" r="612.73" xlink:href="#Áåçûìÿííûé_ãðàäèåíò_3"/><radialGradient id="Áåçûìÿííûé_ãðàäèåíò_3-3" cx="4176.44" cy="193.58" r="216.81" xlink:href="#Áåçûìÿííûé_ãðàäèåíò_3"/><radialGradient id="Áåçûìÿííûé_ãðàäèåíò_3-4" cx="4139.31" cy="-975.86" r="878.83" xlink:href="#Áåçûìÿííûé_ãðàäèåíò_3"/><radialGradient id="Áåçûìÿííûé_ãðàäèåíò_3-5" cx="3962.03" cy="-900.09" r="583.09" xlink:href="#Áåçûìÿííûé_ãðàäèåíò_3"/><radialGradient id="Áåçûìÿííûé_ãðàäèåíò_3-6" cx="3783.13" cy="-1350.22" r="1351.62" xlink:href="#Áåçûìÿííûé_ãðàäèåíò_3"/><radialGradient id="Áåçûìÿííûé_ãðàäèåíò_3-7" cx="3821.53" cy="-1206.36" r="299.32" xlink:href="#Áåçûìÿííûé_ãðàäèåíò_3"/><radialGradient id="Áåçûìÿííûé_ãðàäèåíò_3-8" cx="4494.24" cy="-354.23" r="1867.9" xlink:href="#Áåçûìÿííûé_ãðàäèåíò_3"/><radialGradient id="Áåçûìÿííûé_ãðàäèåíò_3-9" cx="3922.09" cy="-633.83" r="2057.95" xlink:href="#Áåçûìÿííûé_ãðàäèåíò_3"/><radialGradient id="Áåçûìÿííûé_ãðàäèåíò_3-10" cx="3449.68" cy="-1217.25" r="2074.61" xlink:href="#Áåçûìÿííûé_ãðàäèåíò_3"/><radialGradient id="Áåçûìÿííûé_ãðàäèåíò_3-11" cx="3397.54" cy="-1007.32" r="1422.95" xlink:href="#Áåçûìÿííûé_ãðàäèåíò_3"/><radialGradient id="Áåçûìÿííûé_ãðàäèåíò_682" cx="3075.98" cy="525.2" r="563.62" gradientTransform="matrix(3.24, 0, 0, 1.23, -8137.64, 188.92)" gradientUnits="userSpaceOnUse"><stop offset="0" stop-color="#3056a3"/><stop offset="0.15" stop-color="#25427d"/><stop offset="0.34" stop-color="#182b51"/><stop offset="0.53" stop-color="#0e192e"/><stop offset="0.71" stop-color="#070c15"/><stop offset="0.87" stop-color="#030406"/><stop offset="1" stop-color="#010101"/></radialGradient><radialGradient id="Áåçûìÿííûé_ãðàäèåíò_707" cx="3106.99" cy="479.92" r="375.4" gradientTransform="matrix(3.24, 0, 0, 1, -8142.11, 325.41)" gradientUnits="userSpaceOnUse"><stop offset="0" stop-color="#4489c9"/><stop offset="0.07" stop-color="#3d7ab3"/><stop offset="0.24" stop-color="#2b557d"/><stop offset="0.42" stop-color="#1c3751"/><stop offset="0.58" stop-color="#10202e"/><stop offset="0.74" stop-color="#080f15"/><stop offset="0.88" stop-color="#030506"/><stop offset="1" stop-color="#010101"/></radialGradient></defs><g class="cls-2"><g id="Capa_1" data-name="Capa 1"><g class="cls-3"><ellipse class="cls-4" cx="5925.94" cy="1892.98" rx="2569.98" ry="1962.27"/></g><g class="cls-5"><path class="cls-6" d="M649,1030.83S870.18,614.38,2091,512.1Z"/><path class="cls-7" d="M2162.78,1476S402.38,2011.43,471.16,1403.1C471.16,1403.1,1224.69,1598.23,2162.78,1476Z"/><path class="cls-8" d="M586.28,1514.26s250.36,90.63,775.22,38.69S2886.82,1116,2996.35,743.39c93.32-317.49-717.44-228.79-1112-158.5-272,48.47-932,223.1-967.37,425.66-27.26,156,638.78,81.64,802.56,57.52s844.69-219.63,916.4-386.2c52.42-121.75-519.71-58.92-765.85.43-267.33,64.45-541.72,206.05-369.6,244.16,55.62,12.32,435.74-22.56,628.76-136.87s-4.85-114.23-95.39-103.24-201.06,53.09-267.73,118.59c0,0,225.18-5.79,255-102.3,77.85,6.9-6.48,112.41-200.52,164.65-168.66,45.41-259.51,31.18-246.13-11.2s264.83-171.66,558.61-200.92S2430.74,710,2365.35,771.31s-450.17,231.88-874.3,267.39-359-59.56-180.33-170.54,477.88-196.08,648.43-225.37,802.2-121.78,813,74.64-946.47,543.78-1537.47,626.64c-472.17,66.21-966.92-33.57-384.22-419,590.44-390.55,2033-578.42,2274.28-303.12,218.34,249.15-386.47,672.6-888.83,831.67-504.59,159.78-875.13,164.38-1080.34,170.11S662.39,1571.15,586.28,1514.26Z"/><path class="cls-9" d="M482.5,1218.1,447,1245.38s-137.9,281.15,520.42,301.21S2204.53,1260.43,2289.13,1170c0,0-544.43,203.26-1179.29,250.89S482.5,1218.1,482.5,1218.1Z"/><path class="cls-10" d="M2413.35,1395.42s549-183.83,734.51-420-5.47-330.24-5.47-330.24S3489.56,916.36,2413.35,1395.42Z"/><path class="cls-11" d="M1072.83,1099.67s-246.27-23-253.55-101.72S1212.7,717.41,1678.49,608.8s1030-152.87,1260.41-21.64c0,0-232.25-106.28-754.47-35.49s-1074.75,245.47-1203.79,398C876.7,1072.54,1072.83,1099.67,1072.83,1099.67Z"/><path class="cls-12" d="M1678.11,918.06s-211.35,35.35-313.3,8.39,178.7-197.36,590.81-276.85C2277.55,587.49,2679,565,2635.93,681.87c0,0,28.51-125.45-632.13-17.39C1532.46,741.58,1285,956,1678.11,918.06Z"/><path class="cls-13" d="M1937.53,773.71S1801,832.77,1656.14,835.82c-132.51,2.79,159.58-123.62,357-161.39s315.85-2,155.86,89.37c0,0,89.61-84.49-84.27-72.46s-277.19,79.87-267.15,93.54S1937.53,773.71,1937.53,773.71Z"/><path class="cls-14" d="M2635.65,611.56S2892.22,654,2335.1,909.72C1688.36,1206.62,833.59,1447,607.45,1271.39c0,0-32.17,216.27,753.09,97.81,756-114,1342.25-410,1454.44-575.11S2635.65,611.56,2635.65,611.56Z"/><path class="cls-15" d="M447,1245.38s-47.55,154.67,394.2,212.34c375,49,986.87-42.48,1447.91-287.73,0,0-250.29,240.52-791.92,364S361.76,1587.15,447,1245.38Z"/><path class="cls-16" d="M1155.58,1623.72s1004-150.54,1614.83-537.19S3002.66,547,3002.66,547s396.66,124.09,84.2,457.53S1812.73,1638.1,1155.58,1623.72Z"/><path class="cls-17" d="M1684,1597.68s-952.1,154.19-1207.73-102.74C476.25,1494.94,473.74,1862.33,1684,1597.68Z"/><path class="cls-18" d="M1203.75,1030.84s392.74-26.23,821.66-171.7c318.35-108,265.74-207.91,265.74-207.91s315.93,26-4.31,194S1352.53,1096.57,1203.75,1030.84Z"/><path class="cls-19" d="M1592.87,887.05S2044.81,794,2039,707.14c0,0,100.83,34.2-68.66,120.06C1802.84,912.05,1591.77,906,1592.87,887.05Z"/><path class="cls-20" d="M649,1030.83S968.19,611.53,2091,512.1C2091,512.1,1194.51,617.12,649,1030.83Z"/><path class="cls-21" d="M2562.23,600.46s378.3-1-111.94,258.61-1386,353.11-1641.79,307.09,61.26-253.58,61.26-253.58-254,165.33-60.23,233.78S2054.44,1035.41,2428,847.42,2624.92,604.59,2562.23,600.46Z"/><path class="cls-22" d="M2039,707.14s-32,59.74-188.32,108.11-262.1,47-271.67,33,112.82-72.47,112.82-72.47-95.13,43.92-49.79,58.08S1946.77,802.47,2039,707.14Z"/><path class="cls-23" d="M2291.15,651.23s81.36,119.13-482.9,273.07-670.32,71.86-521.93-40.59,433.9-184.27,433.9-184.27S1352.56,810.32,1302,902.71s361.53,60.81,624.45-26.87S2288.87,739.29,2291.15,651.23Z"/><path class="cls-24" d="M2289.13,1170s-358.49,215.49-986.59,287.24-820.62-123.9-820.62-123.9,157.6,172.78,786.09,110.88S2289.13,1170,2289.13,1170Z"/><path class="cls-25" d="M1873.25,1461.74s849-225.92,1164.41-589.45-305.81-375.48-305.81-375.48,587,29.22,222.37,409.55C2616.82,1258.24,1873.25,1461.74,1873.25,1461.74Z"/><path class="cls-26" d="M1145.16,852.1s107.25-90,317.7-150.39,325-67.9,325-67.9S1443.92,738.25,1145.16,852.1Z"/><path class="cls-27" d="M1758.05,665.89s134.64-99,311.82-66.76C2069.87,599.13,1925.74,621.93,1758.05,665.89Z"/><path class="cls-28" d="M2370,1194.89s353.39-84.84,486.81-319.76C2856.83,875.13,2555,1045.66,2370,1194.89Z"/><path class="cls-29" d="M1758.05,665.89s143.33-78.28,311.82-66.76C2069.87,599.13,1934.75,637.58,1758.05,665.89Z"/><path class="cls-30" d="M2370,1194.89s269.48-99.08,486.81-319.76C2856.83,875.13,2809.19,1089,2370,1194.89Z"/><path class="cls-31" d="M2486.34,1142s258.7-150.49,370.49-266.9C2856.83,875.13,2716.82,1034.64,2486.34,1142Z"/><path class="cls-32" d="M1818.18,639.49S1896,599.6,2005,598.87C2005,598.87,1936,600.68,1818.18,639.49Z"/><path class="cls-33" d="M513.7,1176s-103.39-43.77,112.81-126.45C626.51,1049.5,556.9,1109.19,513.7,1176Z"/><path class="cls-34" d="M513.7,1176s-51.27-50.78,112.81-126.45C626.51,1049.5,598.25,1102.82,513.7,1176Z"/><path class="cls-35" d="M506.15,1153.65s-22.22-28,66.24-75.67C572.39,1078,519.34,1108,506.15,1153.65Z"/><path class="cls-36" d="M2486.83,788.56s-221.52,16.91-251.15,116.66c0,0,61.21-18.66,145.9-57.22C2415,832.8,2463.51,804.31,2486.83,788.56Z"/><path class="cls-37" d="M2486.83,788.56s-198.33,33-251.15,116.66C2235.68,905.22,2393.14,862.55,2486.83,788.56Z"/><path class="cls-38" d="M2414.85,805.21s-103.13,19-151.58,69.63C2263.27,874.84,2296.29,843.41,2414.85,805.21Z"/><path class="cls-39" d="M1389,734.92s19-14.49,101.65-38.48,225.52-47.18,225.52-47.18S1553.07,682.55,1389,734.92Z"/><path class="cls-40" d="M1145.16,852.1s138.44-88,293.66-133.29,349-85,349-85S1385.3,791.61,1145.16,852.1Z"/><path class="cls-41" d="M2109.2,1331.64s113.28-13.74,156.56-82C2265.76,1249.65,2161.2,1293.83,2109.2,1331.64Z"/><path class="cls-42" d="M2305.69,1248.15s73.23,4,97.65-46.92Z"/><path class="cls-43" d="M2900.14,601.58s-34.63-72-213.94-48.12Z"/><path class="cls-44" d="M1016.1,999.44s-80.7-27.3,59.88-100.29C1076,899.15,1030.24,956.92,1016.1,999.44Z"/><path class="cls-45" d="M2931.75,787.9l21.59-76S2997.43,714.55,2931.75,787.9Z"/><path class="cls-46" d="M2967.51,699.85l-.28-14.72S2989.91,677.59,2967.51,699.85Z"/><path class="cls-47" d="M1137.68,1043.86s-73.54-15.12,19-79.32C1156.7,964.54,1126.62,1012.55,1137.68,1043.86Z"/><path class="cls-48" d="M1190,1057.42s-37.55,5.95-23.16-17.09Z"/><path class="cls-49" d="M582.15,1290.62s-106.77,12.16-45-44Z"/><path class="cls-50" d="M539.44,1229.63l6.07-23.86S510.16,1227.6,539.44,1229.63Z"/><path class="cls-51" d="M2670.82,543.69s-4-26.2-101.49-5.81Z"/><path class="cls-52" d="M1941,994.34s41.61-28.47,134.85-38C2075.81,956.33,2026.52,976.92,1941,994.34Z"/><path class="cls-53" d="M934,1417.23s-93.28,4.4-110.29-11.07Z"/><path class="cls-54" d="M1081.11,1409s-77,15.19-79.73.1Z"/></g><ellipse class="cls-55" cx="1814.92" cy="833.72" rx="1823.62" ry="692.09" transform="translate(-144.87 448.68) rotate(-13.56)"/><ellipse class="cls-56" cx="1910.74" cy="805.21" rx="1214.61" ry="375.39" transform="translate(-135.51 470.35) rotate(-13.56)"/></g></g></svg>