<svg xmlns="http://www.w3.org/2000/svg" xmlns:xlink="http://www.w3.org/1999/xlink" viewBox="0 0 1082.37 1063.38"><defs><style>.cls-1{isolation:isolate;}.cls-2{fill:url(#radial-gradient);}.cls-3,.cls-5,.cls-7{fill:#0c8fcf;}.cls-3{opacity:0.3;}.cls-3,.cls-5,.cls-8{mix-blend-mode:color-dodge;}.cls-4{opacity:0.2;mix-blend-mode:screen;}.cls-6{fill:#2180a7;}.cls-6,.cls-7,.cls-8{opacity:0.7;}.cls-6,.cls-7{mix-blend-mode:multiply;}.cls-8{fill:#c3e6f8;}</style><radialGradient id="radial-gradient" cx="3365.67" cy="-7637.57" r="1834.21" gradientTransform="translate(-3872.08 1773.3) rotate(45.14) scale(0.58)" gradientUnits="userSpaceOnUse"><stop offset="0" stop-color="#e3f3fc"/><stop offset="0.22" stop-color="#41a3db"/><stop offset="0.6" stop-color="#065e85"/><stop offset="1" stop-color="#2f245b"/></radialGradient></defs><g class="cls-1"><g id="Capa_1" data-name="Capa 1"><circle class="cls-2" cx="553.99" cy="571.78" r="479.64" transform="translate(-242.05 559.2) rotate(-45)"/><path class="cls-3" d="M173.68,751c29.7-6.33,57.88-12.81,86.41-23.65a389.65,389.65,0,0,0,115.84-68.58c24.52-20.79,50.22-38.21,76.58-56.46,29.62-20.52,58.36-41.63,86.42-64.26,44-35.44,88-72.28,138.64-98A371.29,371.29,0,0,1,757,410c31.07-7.62,63-11.69,94.31-17.92C895.8,383.27,940,371.89,981,353.21A481.16,481.16,0,0,0,902.27,242c-8.8,5.16-17.66,10.22-26.63,15C817.43,288.3,758,317.15,703.4,354.69,651,390.75,610.19,439,563.51,481.61c-46.1,42.11-100.7,75.12-157.1,101.63-28.16,13.24-57.21,24.77-87.25,33-32.3,8.82-65.2,13.56-98.31,18.07s-67.28,9.21-98.78,20.84c-12.8,4.72-25,10.67-37.21,16.78a475.11,475.11,0,0,0,30.58,94.18C134.49,759.79,154.09,755.15,173.68,751Z"/><g class="cls-4"><path class="cls-5" d="M471.38,817.12c48.84-43,106-74.15,165.84-99.22,18.58-7.8,37.41-14.51,56.22-21.7,7.33-2.8,46.88-16.18,38-29.8-12-18.46-37.85-9.47-54.2-3.44-20.81,7.7-40.55,17.75-60.44,27.53-23.8,11.71-49.28,20.43-74.28,29.25-31.69,11.18-63.79,21.19-96.4,29.34C376,766.62,303.51,771.72,232.91,787c-31.82,6.87-61,17-89.86,32.19l-.05,0A482.26,482.26,0,0,0,245.08,938.68C271.16,932.12,297.35,926,323,918,382.34,899.5,425.9,857.15,471.38,817.12Z"/><path class="cls-6" d="M329.19,881.69c23.9-17.87,45.59-39,72.14-53.08,13.22-7,26.91-13.18,39.81-20.76,6.67-3.91,13.39-8,19.34-13,5.07-4.23,14.7-10.93,16-17.7,2.23-11.87-39.49-.06-43.6,1.1C415.81,783.07,399,788.53,382,793.6c-32.23,9.64-64.48,10.34-97.74,13.47-41.94,3.94-92.08,7.51-130.51,29.08A481.84,481.84,0,0,0,221.5,917.3c13.42-2.56,27-4.25,40.52-6.39C287.24,906.89,308.64,897,329.19,881.69Z"/><path class="cls-5" d="M819.59,545.1c-26.18,8.57-54.83,16.12-77.07,33.12a102.63,102.63,0,0,0-15.18,14.59c-2.66,3.09-6,7,0,8,12.17,2,26,2,37.94-1.14,27.22-7.1,51-22.64,77.08-32.71,24-9.28,50.56-12.52,75.89-16.45,27-4.19,54.08-7.88,80.84-13.34,11-2.23,21.88-4.79,32.64-7.75a477.13,477.13,0,0,0-18.15-95.16c-37.86,29.47-83.68,50-122.56,77.08C868.73,526.86,845.34,536.66,819.59,545.1Z"/><path class="cls-5" d="M329.08,975.88c34.58-3,69.52.84,104-3.67,69-9,136.17-37.93,197.38-69.8A1276.17,1276.17,0,0,0,795,800.51c50.28-36.91,90-85.63,145-116.09,28.1-15.56,57.63-27.95,87.85-38.54a485.42,485.42,0,0,0,5.67-66.93c-21.45,12.77-42.46,26.29-63.53,39.73a1100.91,1100.91,0,0,1-114.09,63.19C802.32,707.76,755.61,743.31,715.25,787c-19.69,21.34-39.47,41.81-63.31,58.62A396.07,396.07,0,0,1,578,886.28C520,910.83,458.33,926.39,398.33,945.39c-31.05,9.84-61,20.62-94,19.67-9-.26-18.06-1-27.2-1.64,8.23,5.82,16.68,11.33,25.26,16.63A230.09,230.09,0,0,1,329.08,975.88Z"/><path class="cls-5" d="M958.92,771.38C914,812.31,878,860.55,836.94,905c-17.66,19.13-36.93,37.08-59.23,50.73-25,15.28-52.8,26.39-80.87,34.51-89.2,25.82-184.94,23.74-275.55,42.49a479,479,0,0,0,131.5,18.68c209,.52,387-132.71,453.23-319C989.74,744.68,974,757.64,958.92,771.38Z"/><path class="cls-5" d="M764.59,380.28c20.54,8.71,48.85-1.49,68.57-7.52,25.54-7.8,50.67-18,76.78-23.74,21.69-4.8,44.17-3.57,66.36-4.6A480.71,480.71,0,0,0,914.85,256C861,293.35,799.71,324.31,764.59,380.28Z"/><path class="cls-5" d="M776.89,157.82a299.13,299.13,0,0,0-53.12,26.83c-21.33,13.7-41.11,29.52-60.25,46.12-17.91,15.55-35,32.67-54.32,46.48-38.09,27.22-82.56,39.9-128.21,47.63-52.46,8.88-110.78,10.77-158.06,37.57-38.18,21.62-67.91,54.49-95.11,88.33-44.54,55.4-87.73,118.66-152.58,149.13.39,6.44.87,12.85,1.49,19.22C132.32,583,184,541.9,229.49,492.71c39.42-42.6,80.29-83.38,134-107.68A258.15,258.15,0,0,1,442,363.14c30.37-3.34,60.92-4.5,91.28-7.85,31.13-3.45,62.43-9.41,91-22.71,30.7-14.29,59.07-34.11,88.49-50.86,47.9-27.26,96.37-53.58,143.55-82.08A476.23,476.23,0,0,0,804.84,163C795.49,161.26,786.16,159.5,776.89,157.82Z"/><path class="cls-5" d="M322.3,682.68c-46.22-11.18-96.28-11.52-143-3.6-28.67,4.86-59.6,13-85.5,28.27a476.87,476.87,0,0,0,18.84,52.39c23.53-8.25,48.85-13,71.6-18.13C232.37,730.69,286.79,719.63,322.3,682.68Z"/><path class="cls-5" d="M82.17,555c16.11-37.87,36.86-74.54,59.94-108.57C164.83,413,189,377.64,220,351.17c23.91-20.41,51.14-35.92,80.34-47.45,52.05-20.55,108.07-29.19,158.6-53.67,53.61-26,102.45-61,157.28-84.47,24.37-10.45,50.74-19.2,77.43-20.17,27.84-1,55.49,2.93,82.85,7.64l.44.08q3.28-1.24,6.59-2.41a477.46,477.46,0,0,0-73.06-32.45c-78.83,16.26-158,32.1-234.32,57.81-40.42,13.62-79.22,31-119.93,43.86C316,232.65,275.46,244.6,235.6,258.53c-21.75,7.61-43.63,15.63-64.92,24.89A477.49,477.49,0,0,0,74.35,570.58c0,1.13.05,2.24.05,3.36C77,567.62,79.5,561.29,82.17,555Z"/></g><path class="cls-7" d="M555.19,92.13C290.29,91.47,75,305.68,74.35,570.58s213.54,480.17,478.44,480.84S1033,837.87,1033.63,573,820.09,92.8,555.19,92.13ZM517.28,921.57C298.05,921,120.8,742.86,121.35,523.65S300,127.16,519.27,127.71,915.76,306.42,915.21,525.64,736.51,922.12,517.28,921.57Z"/><path class="cls-8" d="M186.14,824.39c-64.61-102.64-86.67-192.22-90.87-261l-.09-.65a437.46,437.46,0,0,1-2.91-65.6c-12.69,71.66-13.58,184.91,58.31,309.76,121.47,210.92,348.83,244.63,463.34,225.33C613.92,1032.25,336.16,1062.75,186.14,824.39Z"/></g></g></svg>