<svg id="Capa_1" data-name="Capa 1" xmlns="http://www.w3.org/2000/svg" viewBox="0 0 1072.88 626.64"><defs><style>.cls-1{fill:#4f5d7c;}.cls-2{fill:#8aa9c2;}.cls-3{fill:#fff;}</style></defs><path class="cls-1" d="M1038.37,65.58c56.3-14.56-644.11,403.65-763.29,504.7-90.22,76.49-198,31-226-26.7S41.2,371,155.9,343.24C349.89,296.33,871.19,108.74,1038.37,65.58Z"/><path class="cls-2" d="M831,171c41.79-10.78-463.39,277-566.76,357.76-69.2,54.1-136.82,24.68-157.66-18.14s-1-109.48,82.2-136.87C327.08,328.26,706.87,203.1,831,171Z"/><path class="cls-3" d="M311.06,411.43c22.28,45.77-12.85,108.76-78.44,140.67S95.79,572.81,73.52,527,86.35,418.28,152,386.35,288.79,365.65,311.06,411.43Z"/></svg>