<svg xmlns="http://www.w3.org/2000/svg" xmlns:xlink="http://www.w3.org/1999/xlink" viewBox="0 0 1509.63 1215.3"><defs><style>.cls-1{isolation:isolate;}.cls-2{fill:url(#radial-gradient);}.cls-3{fill:#586166;opacity:0.2;mix-blend-mode:multiply;}.cls-4{fill:#b5e1f7;opacity:0.6;mix-blend-mode:screen;}.cls-5,.cls-8{fill:#232a2d;}.cls-5,.cls-6,.cls-7{opacity:0.7;}.cls-6{fill:#0f1619;}</style><radialGradient id="radial-gradient" cx="2235.12" cy="-8067.19" r="3018.16" gradientTransform="matrix(0.51, 0, 0, 0.51, -485.06, 3658.18)" gradientUnits="userSpaceOnUse"><stop offset="0" stop-color="#e3f3fc"/><stop offset="0.22" stop-color="#aeb8be"/><stop offset="0.61" stop-color="#8da4b0"/><stop offset="1" stop-color="#3a3b3d"/></radialGradient></defs><g class="cls-1"><g id="Capa_1" data-name="Capa 1"><path class="cls-2" d="M1415.43,607.62c1.83-80.46,29.27-162.79,5.38-242-20-66.49-75.55-119.67-134.46-153.16-68.76-39.06-149.52-32.92-219.12-68.28C1034.17,127.42,1009.6,98,979.45,77c-30.75-21.44-63.06-36.22-99.83-43.73C817.21,20.47,747.48,34,690.54,60.72c-33.17,15.56-65.32,32.87-99.75,45.63-34,12.6-70.34,17.94-104.52,30.27-56.11,20.24-105,58.81-141.48,105.48-16.67,21.28-19.9,49.78-23.45,75.64q-1,7.45-2.78,14.68c-36.23,55-87.73,97.58-125.3,152.81-44.64,65.63-51.4,147.91-43.1,224.72,8.51,78.7,62.89,147.79,115.93,203.31,29,30.33,54.77,63.07,85.48,91.83,29.1,27.25,44.11,65.61,65.6,98.51,41.42,63.38,109.12,80.66,180.21,61.39,36.86-10,71.54-26.59,107.78-38.51,48.92-16.09,97.33-9.5,146.55.85,85.16,17.9,165.74,18.67,250.72-1.25,69.29-16.24,143.53-40.37,203.47-79.56C1449.08,952.87,1412.16,751.88,1415.43,607.62Z"/><path class="cls-3" d="M1415.39,611.05c2.26-80.45,30.15-162.63,6.7-241.94-19.69-66.6-74.89-120.08-133.63-153.89-68.54-39.44-149.34-33.74-218.74-69.48-33-17-57.37-46.54-87.41-67.73-30.63-21.6-62.86-36.56-99.58-44.27-62.35-13.1-132.15,0-189.24,26.44-33.25,15.39-65.49,32.52-100,45.09-34.07,12.41-70.43,17.56-104.68,29.7C432.59,154.9,383.53,193.2,346.75,239.66c-16.78,21.2-20.16,49.68-23.86,75.52-.71,5-1.68,9.86-2.86,14.67C283.5,384.62,231.77,426.94,193.9,482c-45,65.39-52.21,147.64-44.33,224.49,8.07,78.74,62.09,148.13,114.81,203.94,28.81,30.49,54.43,63.38,85,92.29,28.95,27.41,43.75,65.86,65.06,98.88,41.07,63.6,108.68,81.25,179.86,62.38,36.92-9.8,71.7-26.21,108-37.93,49-15.82,97.4-9,146.56,1.65,85,18.37,165.63,19.58,250.72.13,69.37-15.87,143.75-39.58,203.9-78.45C1447.15,956.47,1411.32,755.29,1415.39,611.05ZM1134,349.6c-10.79,17.8-31.25,25.88-49.53,33.85-27.15,11.81-48.52,25.95-65.26,51.3-16.87,25.52-29.77,53.44-44.43,80.25-11.14,20.4-22.64,44.86-42.35,58.59-12.19,8.48-26.09,13.3-38.31,21.41-17.58,11.64-18.36,27.06-22.51,45.56-4.74,21-16.43,30.2-37.19,34.74-58.45,12.78-114.72,47.07-137.77,104,39.06-17.49,81-38.46,123.95-24.56a4.71,4.71,0,0,1,0,9c-52.29,16.37-103,77.65-116.23,130.16-5.78,22.91-7.14,89.55-45.24,86.54-22.69-1.8-42.22-16.15-63.6-22.82-29.32-9.15-61.55-13.7-90.86-1.45-14.56,6.08-29.42,22.55-45.93,20.06C437.22,973,436.27,940,411.32,940.8c-18.17.57-34.79,5.51-50.64-6.71-15.59-12-28.4-26.86-42.24-40.76-35.34-35.49-77-68.72-106.88-109.09-38.94-52.65-48-125-38.92-188.39a299,299,0,0,1,12.92-54.24C200.22,499.14,229,463,260.81,432c16.73-16.27,37.65-26.94,56.72-40.08C346.38,372,342.29,346.12,342,314.73c0-3.8,5.36-6.57,8-3.29,13.8,17.11,18.24,37.88,23.37,58.58,7.29-38.65,16-84,53.3-102.12,10.46-5.07,33.08-18.9,44.95-14,15.35,6.28,25.11,20.57,37,31.85-6.39-20.75-14.7-40.88-20.37-61.9a4.75,4.75,0,0,1,3.28-5.75c20.39-7.24,27.93-33.06,48.62-38.66a77.78,77.78,0,0,1,24.28-2.2A131.62,131.62,0,0,0,551.58,164c-2.88-2.55-.94-6.66,2.09-7.82,13.31-5.09,28-9.16,40-17.17-8.36-.45-16.68.05-25.15.24-5.71.12-5.78-7.32-1.22-9.2C642.18,99.18,710,52.23,793.23,47.62c28.2-1.57,64.09,1.28,80.78,27.63,11.57,18.26.68,57.66-6.44,75.86-1.5,3.85-8.14,5-9,0-2.44-13.84-3.47-27.79-4.33-41.77-3.14,14-7,27.8-13.27,40.91-1.12,2.33-4.34,2.85-6.41,1.66-16-9.11-31.88-18.38-47.57-28,1.53,3.61,3,7.21,4.6,10.81,1.63,3.75-2.18,9.52-6.42,6.39-16.14-11.89-59.71-29-76-8.64-14.88,18.55,14.95,46.05,21.72,62.81a4.61,4.61,0,0,1-2.16,5.28c-28.35,13.83-70.82,17.45-87.51,47,31,10.64,69.1,3.59,100.14-1.72q22.23-3.81,44.38-8.12c7.22-1.41,17.33-4.7,24.29-.6,18,10.63,3.65,40.85-3.94,53.1-11.35,18.32-23.42,35.59-32.22,54.3a27.57,27.57,0,0,0-.33,4.31C807.9,336.33,826.86,300.72,856,280c2.56-1.82,6,.15,6.87,2.82,2.41,7.78,2.27,16.18,2.73,24.25.34,5.79.38,12,1.58,17.63,1.93,9.15,10,7.14,12.74-.76,5.75-16.7,7.21-35.65,15.86-51.28,4.43-8,11.38-16.32,21.48-11.69,16,7.3,24.83,20.75,42.39,22.76-3.27-9.56-9.1-17.19-15.89-25.23a4.68,4.68,0,0,1,6.64-6.6c29.63,25.68,63.15,47.24,100.81,59,27.7,8.68,57.2,15.06,81.15,32.26C1134.42,344.66,1135.45,347.27,1134,349.6Z"/><path class="cls-4" d="M344.43,378.69c-21.54,16.13-38.25,37.12-60.25,53.25A306,306,0,0,0,235,477c-34.14,38.78-50.85,86.25-55.45,137-4.92,54.32,10.13,107.12,38.92,152.73,15.92,25.23,36.42,45.9,56.69,67.45,16,17,30,36.28,49.65,49.22,1.47,1,4.66-2,3.36-3.48C261.91,807.34,195.51,734,191.69,630.65c-2.07-55.66,16.95-106.77,51.22-150,14.85-18.73,34.09-34,52.39-49.17,18.78-15.57,32-35.76,50.4-51.31C347.16,378.9,345.91,377.58,344.43,378.69Z"/><path class="cls-5" d="M568.82,139.87c-4.67,1.62-19.89,0-30.47,2.16-3.37-7.1-20.33-1-25.92,1.05-31,11.42-61.43,22.82-89.49,40.61a163.89,163.89,0,0,0-33.82,28.13c-16.06,13.61-33.28,31.54-33.87,48.66,0,0,0,.08,0,.12-.54,3.72,0,7.77.38,11.32.64,5.33-1.42,10.8-.24,16.24.52,2.36,4.21-.7,4.31-2.15.35-5.07,2.51-10.65,4.1-15.48a16.83,16.83,0,0,0,.57-4.4c5.69-.34,13-2.53,19.08-4.69.23,1.64.58,3.37,1,5.22a144.73,144.73,0,0,1,2.17,16.49c.54,5.07,2.74,13.18,1.37,18.27-.85,3.13,3.58,1.55,4.38-.17,3.47-7.4,2.73-17.33,3.54-25.32a69,69,0,0,0,.05-15,27.74,27.74,0,0,1,0-4.47c19.34-8,37.91-19.54,55.58-32,.4.61.81,1.22,1.19,1.84,2.73,4.49,5.45,8.83,7.82,13.55,1,1.93,4.39-.62,3.79-2.32a114.05,114.05,0,0,0-5.62-13.69c-.54-1.08-1-2.24-1.53-3.41,1-.76,2.1-1.51,3.15-2.27,2.17,3.94,4.82,7.76,6.52,11.27,4.54,9.34,8.65,19.18,14.84,27.58,1.16,1.58,4.22-1.24,3.75-2.76-3.2-10.28-4.7-20.84-8.53-31-1.37-3.65-3.22-8.74-5.5-13.34,4.07-3.08,8.12-6.16,12.08-9.21,3.55-2.72,7-5.58,10.44-8.49a327.58,327.58,0,0,0,28.76-23.57,12.13,12.13,0,0,0,1.84-2.21c2.61.46,5.49.45,7.86.89,6,1.1,11.83,3.1,17.75,4.57,1.62.41,4.76-3,2.69-4-6.23-2.87-14.62-8.59-22.43-9.74.37-.35.74-.74,1.11-1.11a19.52,19.52,0,0,0,2.58-.21c4.3-.54,8.71,1.16,13,1.73.83.11,2.61-1.76,1.44-2.14-3.8-1.23-7.56-3-11.48-3.94,10.74-2.83,22.75-3.56,32.22-9.47C570.78,142.12,571.55,138.92,568.82,139.87Zm-43.26,12.87c-.86.06-2,1.1-1.65,1.86-2.49-4.7-88.54,44-94.36,48-18.93,13.13-41.26,27-57.45,44.1a52.93,52.93,0,0,1,.28-8.38c.17-.24.36-.47.53-.7,28-32.37,60.26-56,100.51-72,13.91-5.55,28-10.67,42.05-15.84C526.86,145.59,528.5,147.89,525.56,152.74Z"/><path class="cls-5" d="M603.09,1069.75c-7.17-33.37-52.12-67.15-85.81-58.3a5,5,0,0,0-.49.22c-16.5-1.72-32.73,1-34.08,16.58-2.95,33.8,51.44,61.21,77.74,68.65C585.87,1104.08,609.56,1099.83,603.09,1069.75Z"/><path class="cls-5" d="M1232.15,493.33c-48.76,19.77-102.58,63.78-108.13,119.6a41.94,41.94,0,0,0-5.67-7.45c.69-14.81,1.52-29.46,5.84-44.1.54-1.82-2.14-.65-2.54.42a154.64,154.64,0,0,0-9,38.7c-9.8-7-22.29-9-36.44-8.32a107.09,107.09,0,0,0-30.06,2c-2.07-8.89-3.72-17.74-3.68-27.89,0-14.47,3-42.21,13.41-53.76,1.57-1.74-.57-2.68-2-1.5-13.84,11.34-17.37,35.48-20,52.11-1,6.72-2.36,21.83-.41,34.35-15.36,4.81-30.26,12.31-45.07,21a416.23,416.23,0,0,0-55.71,38.9c-1-1.05-2.18-2-3.19-3.12-3.31-3.52-6.67-6.9-9.82-10.57a66.32,66.32,0,0,0-10.32-9.85c-3.38-2.55-7.38-4.4-10.37-7.39-1.27-1.26-4.25,1.35-3.15,2.75,2.16,2.75,5,4.54,7.51,7a116.9,116.9,0,0,1,11,12.23c3.23,4.2,6.58,8.27,9.92,12.39.68.85,1.26,1.58,1.85,2.23-1.78,1.56-3.44,3.24-5.18,4.83-1.16-1-2.26-2-3.3-3.07-2.9-3-5.55-6.12-9-8.52-1.06-.74-3.53,1.64-2.48,2.58,3.23,2.92,5.55,6.66,8.16,10.11.71.94,1.5,1.93,2.34,2.86-6.85,6.48-13.53,13.17-19.78,20.32-12.46-4.68-29.89-3.43-40.57-3-28.13,1.16-50.28,8.51-74.94,21-1,.54-1.35,2.62.26,2C808.46,701.69,832,696.53,861,697.47a111,111,0,0,1,27.72,4.5c-.4.5-.83,1-1.23,1.48-16.49,20.91-30.71,47.28-35.43,74.37-14.54,3-30.62,11.39-39.84,19a157.5,157.5,0,0,0-25.08,26.33c-5.83,7.68-8.33,22.07-15.08,28.32-.7.65-.84,2.2.53,1.64,9.95-4,17.7-23.92,24.27-31.48,15.3-17.59,33.31-26.51,53.87-33.41a102.19,102.19,0,0,0-.32,11.2,45.61,45.61,0,0,0,4.89,19.62c-4.16,1.63-8.34,5.48-10.65,7.91-5.33,5.65-9.3,12.38-14.51,18.14-1.73,1.91.69,3.23,2.29,1.7,4-3.86,7.52-8.22,11.22-12.38a58.59,58.59,0,0,1,6.94-6.61c2.32-1.89,5.11-2.57,7.65-3.86a47.52,47.52,0,0,0,13,12.27,20.14,20.14,0,0,0-7.74,8.29,23.48,23.48,0,0,1-2.52,4.11c-.58.77-1.72,1.73-1.08,2.8l0,.07c.19.31.77.35,1.08.29,2.3-.47,3.91-3.14,5.19-4.91,2.47-3.42,5.51-5.66,8.58-8.51,14,7.86,32,10.82,48,10.88,30.15.12,64-3.2,95.54-12.36.53,4.13,2.62,8,4.72,11.81,3.1,5.63,5,11.77,9.56,16.48,1.21,1.26,4.4-1.19,3.6-2.65-2.84-5.21-3.53-11.12-4.64-16.87-.63-3.24-2.17-6.34-3.12-9.51-.23-.77-.42-1.51-.61-2.23,40.34-13.5,75.76-37.32,93-76.9,9.18-21.12,14-43.84,15.12-66.77a36,36,0,0,1,5.41-2.54c2.75-1,5.66-1.46,8.46-2.22,1.48-.41,3.78-3.88,1-3.48-5.18.75-10.35,1-14.7,3.4a220.52,220.52,0,0,0-.46-22.27l0,0c4.17-4.1,10.23-6.64,15.58-8.74,3.78-1.49,7.42-3.35,11.11-5a61.44,61.44,0,0,1,5.86-2.31c-1.52.55,13.17-4.22,6-.64-.4.2-.51,1,.1.75a29.77,29.77,0,0,0,5.31-2.63c.44-.25,1.08-1.1.45-1.48-9.15-5.66-24.92,2.74-33.74,6.19a77.48,77.48,0,0,0-11.47,5.63c-.74-6.8-1.75-13.54-3.07-20.2-.33-1.6-.7-3.08-1.08-4.57,8.36-27.24,13.54-53.07,30.88-76.87,18.72-25.72,45.11-39.86,71-56.79C1234,495.5,1234.76,492.27,1232.15,493.33ZM1110.41,749.47c-23,71.26-110,81.4-174.1,86.94-34,2.93-69.47-7.24-73.78-44.48.49.41,1.05.78,1.58,1.17,13.79,16.18,52.12,18.39,69.08,19.31C963,814,992.14,796.7,1016.82,782c23.68-14.09,58.21-32.83,73.5-56.59,10.17-15.78,14.13-32.82,18.32-51,3.23-14,2.53-30,4.73-44.39,1.71,4.78,3,9.45,4.07,13.39C1126.6,678.31,1121.27,715.78,1110.41,749.47Z"/><path class="cls-5" d="M1357.9,340.1c.51-13.59-12.89-31-18.48-40.6-16.67-28.61-40.43-53.69-70.09-68.71-11.68-5.92-34.68-14-49.28-8.3-11.1-.22-24,4.62-34.56,6-17.18,2.28-35.22-1.07-52.41-2.3-.65,0-2.52,1.3-1.62,2,19.19,15.14,50.68,10.26,75.59,3.26-2.8,4.44-2.76,10-1.23,15.78-11.83,3.07-23.44,9.47-35.29,11-.87.11-2.47,2.31-1,2.33,12.9.12,25.67-4.16,38.35-7.18,4.2,10.13,11.57,20.21,15.59,26A159.41,159.41,0,0,0,1237.68,297c-1,.83-1.89,1.69-2.88,2.47a7.49,7.49,0,0,1-1.5,1c-.09,0-1.41.76-.69.43-.5.23-1.08.75-.94,1.36.4,1.78,4.36-.59,8-3.2.88.92,1.8,1.83,2.7,2.75a39.4,39.4,0,0,1-6.81,4.24c-1.55.72-2.52,4-.09,3a56.75,56.75,0,0,0,9-5.11c2.25,2.24,4.54,4.45,6.92,6.59-5.32,3.11-10.45,6.62-15.44,9.87A125.68,125.68,0,0,0,1222.47,331c-3.9,3.37-8.11,9.67-12.76,12-.44.23-1.34,1.67-.29,1.69,2.06.05,2.31-.51,4-2,5.65-5.14,11.73-9.84,17.68-14.64,7.33-5.89,16-9.77,24.2-14.15,5,4.31,10.27,8.45,15.65,12.33-.77.81-1.52,1.62-2.22,2.38-7.67,8.32-14.06,17.89-20.46,27.19-1.16,1.68.84,2.14,1.84.85,6.08-7.83,12.21-15.6,19-22.84a68.4,68.4,0,0,1,5.35-5.08c6.22,4.32,12.6,8.31,19,12-4.32,6.88-7,15.35-10.69,22-1.13,2,1.75,1.46,2.53.26,3-4.59,5.48-9.42,8.12-14.2a63.31,63.31,0,0,1,3.83-5.94c3.68,2,7.37,4,11,5.78a98.66,98.66,0,0,0,19,7.09c-10,10.72-14.65,28.8-16.76,42.79-.32,2.12,3.15.19,3.51-1a132.71,132.71,0,0,1,10-23.27c2.93-5.51,7.37-11.36,8.86-17.49a32.51,32.51,0,0,0,10.38,0c-6.18,18.18-6.14,40.56-5.21,57.85.13,2.41,3.61.13,3.74-1.44,2-25,10.54-47.07,16.23-71.13A3.21,3.21,0,0,0,1357.9,340.1Zm-20.5,5.69a19.65,19.65,0,0,1,.73-2.72,1.71,1.71,0,0,0-.71-2.14,2.11,2.11,0,0,0-.68-.23c1.09-14.47-45.85-61.74-50.51-65.52-7.45-6.06-53.83-39.65-65.68-32.38-.21-7.15,3.29-12.35,16.11-10.05,19.19,3.44,35.61,12.6,50.78,24.53,24.24,19.09,42.77,47.5,55.9,75.06C1348.49,343.13,1344.48,346.18,1337.4,345.79Z"/><path class="cls-5" d="M1013,248c-27.71-10.34-54.62-21.78-82.5-30.89,1.41-5.58-2.13-11.41-7.43-16.71,1.75-.52,3.37-1,4.8-1.3,21.18-4.87,43-7.38,63.66-14.22,1.35-.45,2.83-3.79.56-3.21-18.08,4.62-37,6.07-55.43,8.92-6.9,1.06-13.77,2.41-20.65,3.71a175.89,175.89,0,0,0-17-11.23c2.64-1.94,5.1-4.12,6.78-5.25,7.18-4.81,15-8.79,21.16-14.95,1.4-1.4.19-2.86-1.34-1.54-9.35,8.06-21.61,12-31.85,18.9A59.76,59.76,0,0,0,888,178c.37-.51.74-1,1.14-1.51,2.59-3.17,5.34-6.24,7.81-9.53,1.66-2.22-1.14-2.86-2.5-1.16-3.05,3.82-6.5,7.34-9.68,11.07-2.46-.74-4.95-1.39-7.52-1.9a110.62,110.62,0,0,0-20.75-6.69c.29-7.56-1.13-15.73-1.49-22.29-.83-15.18,1.28-31.17-2.84-46-.41-1.5-2.94.45-2.73,1.67,2.33,13.55-.3,27.93-1.29,41.51-.56,7.71-.29,15.56-.57,23.35-5.1-.83-10.25-1.39-15.32-1.73-1.14-6-5.27-11.62-7.45-17.14-.72-1.85-4,.56-3.48,2.14.93,3.07,2.08,6.06,3.26,9,.72,1.83,1.29,3.74,1.88,5.64a125.6,125.6,0,0,0-29.06,2c-2-1.46-3.93-2.93-5.94-4.34-7.62-5.34-19.89-10.1-24.06-19-.84-1.81-4,.57-3.48,2.13,2.71,8.49,12.82,15.69,19.47,21.11,1.19,1,2.4,2.12,3.61,3.33a31.52,31.52,0,0,0-7.24,4.2c-4.63-1.32-9.66-1.86-14.25-2.75-10.16-2-20.29-2.74-30.31-5.54-1-.28-2.88,1.65-1.68,2.07a165.59,165.59,0,0,0,23.19,6.12c6.25,1.26,12.66,3.8,19.08,5-3.06,7.21,4.08,15.23,13.39,22-1.16.43-2.32.86-3.46,1.36-4.29,1.87-9.47,3.29-12.64,6.93-1.22,1.41,0,2.5,1.51,1.73,6.14-3.23,13-4.82,19.72-6.55,1.36.87,2.74,1.71,4.1,2.51-8.28,3.38-16.48,7.07-24.7,10.14-17.16,6.42-36.48,17.26-54.36,20.91-1.33.27-3.11,3.17-.87,2.9,13.81-1.66,27.77-8.75,41.07-13,15.84-5,31.74-10.27,47.2-16.49,2,1,3.79,1.83,5.4,2.53A169.28,169.28,0,0,0,843.73,224c-1.19,3.59-2.15,7.28-3.1,11-2.68,10.52-5.52,20.93-7,31.7-.36,2.57,4.06.43,4.43-1.23,3-13.83,8.62-26.74,13.23-40a195.22,195.22,0,0,0,30.43,2.81c1.54,2.65,3.59,5.11,5.14,7.64.77,1.27,3.55-1,3-2.23-.79-1.84-1.61-3.63-2.41-5.42.8,0,1.6,0,2.41,0,1.07,0,2.34,0,3.7,0,1.33,1.25,2.7,2.41,3.85,3.54,4.18,4.08,8.5,8,12.9,11.86,1.61,1.41,5.26-1.68,3.83-3.35q-5-5.88-9.78-12c5.74-.1,11.84-.61,16.74-2.36,10.62,2.38,21.34,4.44,31.68,7.33,19.49,5.47,38.49,12.85,58.1,17.79C1012.19,251.49,1014.65,248.64,1013,248Z"/><path class="cls-6" d="M1238.62,993.46c-18.67,7.15-37,15.41-54.94,24.24-18.24,9-38.52,18.69-55.93,31.18-14.17,6.14-28.24,16.67-34.78,28.6-10.87,19.87,22,18.28,33.24,17,36-4,72.17-19.74,103.72-36.66,23.74-12.73,59.77-34.15,73.42-58.12C1325.61,960.66,1250.13,989.05,1238.62,993.46Z"/><g class="cls-7"><path class="cls-8" d="M458.44,552.26c-23.29,6.16-52.2,12.68-76.27,11.84-16.92-.59-32.7-2.33-49.54-1.82-.78-18.29-4.25-35.85-11.32-51.31,6.42-1.82,12.74-2.35,19.38-3.13,8-.93,16-3.71,23.86-5.52,1.56-.37,3.7-3.92,1.05-3.49-8.66,1.41-17.33,3.27-26.05,4.19-7,.73-13.91.64-20.07,4.31-.42-.82-.85-1.64-1.25-2.47,2-.29,4-.5,6.08-1a33.72,33.72,0,0,0,9.2-3.54c1.9-1.1,1.63-3.89-.83-2.62a27.3,27.3,0,0,1-12.53,2.82,14.3,14.3,0,0,0-4.06.5,38.19,38.19,0,0,0-4.59-6,31,31,0,0,0,5.08-.35c8.1-1.31,15.69-6.83,22.94-10.26C350.68,479.21,363,470.65,367.9,459c.63-1.51-1.69-.92-2.2-.22-8.81,12.15-37.21,23.53-51.86,22.26-9-.79-16,.56-21.73,5.88-4.17.57-8.32,2.72-12.1,7-9.89,11.08-16.31,23.58-20.76,36.84-27.27,47.71-37.19,116.84-28,165.58,2.32,12.27,8.58,38.61,25.23,39.11,6.44,4.43,16.91,7.64,19.81,8.83a289.13,289.13,0,0,1,27.87,13.59c13.35,7.21,18.1,18.11,27.5,28.85,1,1.19,3.4-1,3-2.23a105.43,105.43,0,0,0-10.72-25c-4.05-6.63-16.36-11-22.85-14.27a238,238,0,0,0-28.92-11.65c-.55-.19-1.82-.49-3.44-.89,10.75-5,19.18-16,25.85-27.31,3.79,1.24,7.62,2.37,11.29,3.6,8.41,2.83,14.75,7.87,22.45,11.94,1.46.77,4.24-2.11,2.57-3.18-7.37-4.72-12.92-9.95-21.1-13.6-3.87-1.71-7.76-3.43-11.68-5,2.77-5.16,5.2-10.17,7.32-14.49.79-1.61,1.56-3.29,2.33-5,4.85,1.12,9.71,2.18,14.59,3.21,14.66,3.12,30,7.82,44.71,9.55,1.9.22,5-3.5,2.25-4.1-7.65-1.7-14.82-5.89-22.29-8.3-6.62-2.13-13.54-3.45-20.26-5.19-4.44-1.14-9.6-3.22-14.81-4.7a287,287,0,0,0,15.33-49.74c.93-.71,2.54-2.53,1-3A1.41,1.41,0,0,1,328,617a260.56,260.56,0,0,0,3.92-27.77c4.08.11,8.18.19,12.26.62,7.84.83,15.51,3,23.4,3.22,1.52,0,4.11-3.11,1.85-3.37-7.57-.87-14.85-3.71-22.35-5.13a78.92,78.92,0,0,0-14.68-1.2c.21-3.46.36-6.93.4-10.38,2.77.44,6,.36,10.15.65,13.36,1,27.08,3,40.47,2.74,23.44-.42,53.12-12.48,74.52-21.09C459.08,554.86,460.67,551.67,458.44,552.26ZM313.76,517.64c-14.25,32-32.49,60.3-40.4,95-7,30.75-2.05,68.22,5.1,98.68-9.78,9.72-20.87,12.82-29.06-5.76-5.78-13.11-6.44-28.48-6.51-43a2.13,2.13,0,0,0,1.28-.65s.06,0,.09-.06a39.82,39.82,0,0,0,10.62-1.21,4.7,4.7,0,0,0,3.46-3,1.45,1.45,0,0,0-.73-1.93l.06-.1c-4.57-1.29-10.32-.14-14.46-3a2.44,2.44,0,0,0-.34-.14c0-5.09.1-10.41.29-15.81a49.82,49.82,0,0,0,10.33-3.5c2-.9,3.52-5,.13-3.88a33.28,33.28,0,0,1-10.2,2,352.21,352.21,0,0,1,6.26-52.55c.12,1,2-.06,2.22-.8A477.31,477.31,0,0,1,274.09,516c12.62-29.25,30.39-16.33,40.79.38A3.5,3.5,0,0,0,313.76,517.64Z"/><path class="cls-8" d="M259.74,605.23c-1.86,0-3.71.16-5.58.08-2.29-.1-3.16-1.11-5-2-1.23-.62-2.8.88-3.14,1.94-1.91,5.95,9.2,4,12.12,3.8C259.68,608.94,262.07,605.26,259.74,605.23Z"/></g><path class="cls-5" d="M710.82,1049.64l0,0c-1.1-16-26.79-26.3-37.12-11.09-4.19,6.18-2.32,11.93,2.16,16.09a28.56,28.56,0,0,0,13,11.65c8.48,3.66,18.14-1.63,21.1-10.12a16,16,0,0,0,.85-4.56C711.36,1050.88,711.66,1050,710.82,1049.64Z"/><path class="cls-5" d="M441,997.42c-8.7-9.1-17-20.74-31.17-16.72-9,2.56-12.27,10.93-9.94,18.51a7.92,7.92,0,0,0,1,5.29c7.15,12.12,31.17,27.89,44.31,17.07C454.41,1014,447.28,1004,441,997.42Z"/><path class="cls-5" d="M1257.09,776.41c-5.28.36-10.34,4.11-14.06,7.64-3.91,3.71-7.46,8.38-8,13.9-.13,1.3.63,3.19,2,3.6,4.76,1.39,9.08.25,13.23-2.38,3.46-2.2,9.84-8.06,9-12.94a23.64,23.64,0,0,0,2-5.07C1262.07,778,1260.24,776.19,1257.09,776.41Z"/><path class="cls-6" d="M1368.25,608.54c-6.77-11-21.21-9.53-29.85-1.67-7.5,6.83-11.67,15-15.35,23.65-7.35,11.36-12.28,24.94-13.1,32.8a52,52,0,0,0,2,20.45c.14,1.1.26,2.21.48,3.3,2.44,12.75,16.84,21.56,28.34,13.85,9.31-1.73,17.37-7.33,23.76-15C1381.31,665.69,1381.6,630.28,1368.25,608.54Z"/><path class="cls-5" d="M1339.87,534.67c-1.26-1.86-3.4-1.82-5.4-1.39-3.3.73-6.82,3.78-6.56,7.4a22.35,22.35,0,0,0-.74,3.5c-.26,1.83,1.67,2.62,3.13,2.38a7.61,7.61,0,0,0,5-3.7c.15-.24.28-.51.43-.77a11.15,11.15,0,0,0,1.23-.64C1339,540.17,1341.56,537.14,1339.87,534.67Z"/><path class="cls-5" d="M1096,262.83c-5.46-6.13-15.54-7.31-21.63-1.47-1-.11-2.48,1.31-2.26,2.31a3.37,3.37,0,0,1,.1.34c-1.63,2.77-1.75,5.92,1.56,8a16.26,16.26,0,0,0,3.64,1.66,15.54,15.54,0,0,0,11.15,5.09C1096.79,278.84,1101.48,269.05,1096,262.83Z"/><path class="cls-4" d="M847.51,64.2c-82.21-19.73-167,18.09-238.66,56.58-1.5.81-2,3.63.36,2.86,37.49-12.3,73.21-29.79,111-42,42-13.58,82.18-19,125.88-14.81C847.28,67,849.26,64.62,847.51,64.2Z"/></g></g></svg>