<svg xmlns="http://www.w3.org/2000/svg" xmlns:xlink="http://www.w3.org/1999/xlink" viewBox="0 0 1082.37 1082.37"><defs><style>.cls-1{isolation:isolate;}.cls-2{fill:url(#linear-gradient);}.cls-3{fill:url(#linear-gradient-2);}.cls-4{opacity:0.4;}.cls-4,.cls-6{mix-blend-mode:multiply;}.cls-5{fill:#c18ea7;}.cls-6{fill:#c2989c;opacity:0.6;}.cls-7{fill:#c3e6f8;opacity:0.7;mix-blend-mode:color-dodge;}</style><linearGradient id="linear-gradient" x1="314.69" y1="64.07" x2="762.02" y2="1040.08" gradientTransform="translate(11.81 10.98) rotate(0.14)" gradientUnits="userSpaceOnUse"><stop offset="0.03" stop-color="#8ccfd7"/><stop offset="0.27" stop-color="#e36132"/><stop offset="0.77" stop-color="#e79338"/><stop offset="1" stop-color="#a6ada2"/></linearGradient><linearGradient id="linear-gradient-2" x1="395.79" y1="110.09" x2="680.46" y2="995.73" gradientTransform="translate(11.81 10.98) rotate(0.14)" gradientUnits="userSpaceOnUse"><stop offset="0" stop-color="#e36132"/><stop offset="0.28" stop-color="#e02230"/><stop offset="0.45" stop-color="#e35233"/><stop offset="0.59" stop-color="#e57035"/><stop offset="0.66" stop-color="#e67b36"/><stop offset="0.72" stop-color="#e67435"/><stop offset="0.8" stop-color="#e45f34"/><stop offset="0.9" stop-color="#e23d31"/><stop offset="0.92" stop-color="#e23831"/></linearGradient></defs><g class="cls-1"><g id="Capa_1" data-name="Capa 1"><path class="cls-2" d="M1026.76,562c-.66,264.89-215.93,479.09-480.84,478.43S66.82,824.44,67.48,559.55,283.41,80.44,548.32,81.1,1027.42,297.05,1026.76,562Z"/><path class="cls-3" d="M1026.76,562c-.66,264.89-215.93,479.09-480.84,478.43S66.82,824.44,67.48,559.55,283.41,80.44,548.32,81.1,1027.42,297.05,1026.76,562Z"/><g class="cls-4"><path class="cls-5" d="M245,577.59c48.71-9.6,102-2.46,145.22-31.74,40.17-27.19,60-76.32,100.4-102.84,21.19-13.91,44.83-18.55,69.62-21.33,28.78-3.22,54.61-8,77.26-27.45,8.87-7.63,32.44-26.67,22.8-40.93-7.5-11.08-25.23-13.75-37.39-15.57-36.11-5.42-76.13-5.68-112.41-2.21-25.63,2.45-49.75,9.33-73.5,19.11-27.77,11.43-54,24.74-84.1,29-52,7.43-102.2-4.85-153.42-12.23-27.47-4-55.76-6.33-83.33-1.87-3.32.53-6.56,1.19-9.82,1.89A481.55,481.55,0,0,0,85.88,692.7c28.43-19.62,52.8-44.19,78.63-67C188.24,604.76,213.05,583.88,245,577.59Z"/><path class="cls-5" d="M330.61,988.79A202.26,202.26,0,0,0,386.45,966c28.89-17.11,50.65-39.33,73.22-63.67,19-20.49,41-38.1,66.2-50.45,45.38-22.27,96-29.88,144.77-41.17,29.38-6.79,58.47-11.06,88.72-8.76,28,2.15,55.38,8.08,82.71,14.31,32,7.31,65.3,15.57,98.61,18.67a479.81,479.81,0,0,0,18.53-519.7c-6.5,12.07-14.23,23.86-21.72,35.69-12.4,19.56-23.09,39.68-26.31,62.93-3.77,27.31,1.19,53.94,7.25,80.53,5.46,24,11,48.17,7.81,72.9-2.82,21.74-14.31,46.28-32,59.86-19.74,15.16-47.42,20.8-64.35,39.54-12.43,13.78-10.69,28.4-11.53,45.63-.64,13-3.55,23.91-11.27,34.54-11.79,16.25-27.72,30.15-48.85,30.37-21.76.23-42.14-9.22-62-17.07-29.7-11.76-56.61-32.86-87.93-40.2-12.79-3-29.18-6.72-42.16-2.12-7.68,2.74-13.65,8.07-20.14,12.82-21.44,15.69-48.25,25.06-73.86,31.42-26.47,6.58-53.41,8.15-80.59,6.61-29.12-1.65-56.06-10.06-82.56-22-27.57-12.44-54.23-24.6-83.11-33.73-16-5.06-34.16-3.77-50.61-2.6-21.56,1.54-43,4.41-64.34,7.74-5.36.83-10.71,1.73-16,2.63A481.27,481.27,0,0,0,330.61,988.79Z"/><path class="cls-5" d="M713.35,226c11.78-4,23.19-9.69,35.5-12,14.17-2.67,28.12-5.56,42.65-5.15s28.92,2.6,43.42,3.52a264.3,264.3,0,0,0,41.05-.68,482.21,482.21,0,0,0-56.36-45.64C782,195.5,709,201.4,670.61,219.61,683.92,228.19,697.56,231.36,713.35,226Z"/></g><g class="cls-4"><path class="cls-5" d="M180.7,438.75c-32.53-3.79-65.36-15.15-96.39-4.21Q79.9,450.7,76.62,467.3c15.79-1.58,31.85-6,46-9.64C142.05,452.66,162.33,447.3,180.7,438.75Z"/><path class="cls-5" d="M348.71,508.66c25.14,1.1,48.31-15,66.42-31.8-1.63.24-3.24.56-4.84.9A541.55,541.55,0,0,1,348.71,508.66Z"/><path class="cls-5" d="M432.89,406.25a72.78,72.78,0,0,0-9.3.79,128.44,128.44,0,0,0-15.18,5,30.11,30.11,0,0,0-7.19,5.7c23.38,1.41,43.44-.72,61.75-15.84a190,190,0,0,0-28,2.64A2.12,2.12,0,0,1,432.89,406.25Z"/><path class="cls-5" d="M72.22,628.32c.48,3.37,1,6.7,1.59,10,15.9-5.64,32.48-12.77,45-24.19C102.47,616.5,86.84,620.61,72.22,628.32Z"/><path class="cls-5" d="M570.72,369.21c10.11-4.76,19.43-10.85,29.26-15.83-28.63,4.2-56.54,10.85-83.05,22.84C535.14,375.55,554,377.08,570.72,369.21Z"/><path class="cls-5" d="M232.58,483.51c12.06-6.78,22.38-16.11,33.72-23.91-25.72,7.75-50,19.63-75.18,28.93C205.58,489.24,220.23,490.45,232.58,483.51Z"/><path class="cls-5" d="M358,917.14c10.44-2.62,23.44-5.06,31.64-12.44s14.84-15.48,23.27-21.79c-33,5.92-66.13,11.13-98.25,20.87-22.7,6.88-47.89,16.06-67.17,31.43q12.75,10.2,26.22,19.53c16.12-13.61,34.93-24.44,54.69-30.18C338.2,921.71,348.14,919.62,358,917.14Z"/><path class="cls-5" d="M375.73,827.84c10.55-1.14,21.14-1,32-.9,18.36.24,34.82-2.06,50.81-10.24C430.46,813.88,401.21,815.69,375.73,827.84Z"/><path class="cls-5" d="M1017.23,465.33c-.85-4.21-1.78-8.37-2.74-12.53q-15.35,8.49-30.76,16.85C994.93,468.43,1006.11,467.08,1017.23,465.33Z"/><path class="cls-5" d="M606.31,762.68c4.77-4,9.11-8.44,13.92-11.76-20.3,2.2-41.17,11.73-60.44,18.06C576,770.7,593.92,773.16,606.31,762.68Z"/><path class="cls-5" d="M921.56,634c15-3.62,33.1-5.89,40.39-20.35,1.4-2.76,2.69-5.52,4-8.22C949.25,612.15,933.19,619.91,921.56,634Z"/><path class="cls-5" d="M950.7,695c20.46-2.47,41.37-3.69,59.86-10.47,1.32-5,2.59-10,3.76-15-9.84,1-19.68,2.1-28.9,5.71C973,680.06,962.26,688.5,950.7,695Z"/></g><path class="cls-6" d="M548.32,81.1C283.41,80.44,68.14,294.65,67.48,559.55S281,1039.72,545.92,1040.38,1026.1,826.84,1026.76,562,813.23,81.76,548.32,81.1ZM510.4,910.54C291.19,910,113.92,731.83,114.47,512.62s178.7-396.5,397.92-395.95S908.88,295.38,908.33,514.6,729.63,911.09,510.4,910.54Z"/><path class="cls-7" d="M179.27,813.37c-64.62-102.66-86.67-192.24-90.87-261,0-.21-.07-.44-.1-.65a438.91,438.91,0,0,1-2.9-65.61C72.7,557.78,71.82,671,143.71,795.88c121.47,210.93,348.83,244.63,463.34,225.34C607.05,1021.22,329.29,1051.72,179.27,813.37Z"/></g></g></svg>