<svg xmlns="http://www.w3.org/2000/svg" xmlns:xlink="http://www.w3.org/1999/xlink" viewBox="0 0 1101.36 1072.88"><defs><style>.cls-1{isolation:isolate;}.cls-2{fill:url(#radial-gradient);}.cls-3{fill:url(#radial-gradient-2);}.cls-4{fill:#d4b197;}.cls-4,.cls-6{opacity:0.3;}.cls-5{fill:url(#radial-gradient-3);}.cls-6{fill:#c89a75;}.cls-7{fill:#67452b;}.cls-10,.cls-7,.cls-8{opacity:0.5;}.cls-8{fill:#7f5534;mix-blend-mode:multiply;}.cls-9{fill:#c3926e;opacity:0.7;mix-blend-mode:color-dodge;}.cls-10{fill:#442d1c;}</style><radialGradient id="radial-gradient" cx="-632.39" cy="-6811.72" r="2159.25" gradientTransform="translate(667.3 4060.75) rotate(0.14) scale(0.58)" gradientUnits="userSpaceOnUse"><stop offset="0" stop-color="#d9baa2"/><stop offset="0.42" stop-color="#a46e43"/><stop offset="0.76" stop-color="#835736"/></radialGradient><radialGradient id="radial-gradient-2" cx="-103.82" cy="-5569.81" r="1657.2" xlink:href="#radial-gradient"/><radialGradient id="radial-gradient-3" cx="-103.81" cy="-5569.75" r="1657.32" xlink:href="#radial-gradient"/></defs><g class="cls-1"><g id="Capa_1" data-name="Capa 1"><path class="cls-2" d="M1024,566.57c-.67,264.9-215.94,479.1-480.84,478.44S64.07,829.07,64.73,564.17,280.66,85.06,545.57,85.72,1024.67,301.67,1024,566.57Z"/><path class="cls-3" d="M879.85,461.22a3.35,3.35,0,0,1-4-.37c-5.33,6.12-7.9,15.69-1.08,20.39,5.33,3.67,11.33,4.45,15.11-1.7,2.89-4.75,4.47-11.3,2.66-16.73C890.39,456.48,884.39,458.62,879.85,461.22Z"/><path class="cls-4" d="M908.64,582c.85-19.84,37.23-21.16,50.55-22.19,16.29-1.26,32.6-1.51,48.92-2.22,4.72-.2,10.31-.06,15.81-.43A478,478,0,0,0,989,385.51c-27.74,8.19-63,18.22-80.42-.3-14-14.87-8.14-36.91-3.1-54.38,6.34-22,6.76-43.83,13.56-64.8q-6.87-8.59-14.1-16.88a31.89,31.89,0,0,0-4.5,7.37c-6.07,13.9-6.07,29.6-6,44.51.18,30.24,2.67,60.45-23,81.09-8.06,6.47-17.93,11.49-24.57,19.57-11.53,14-6.53,28-1.52,43.29,5.92,18,8.11,32.85,2.29,51.29-8.19,25.91-26.19,43.32-53.48,47.46-25.56,3.89-51.77-.71-77.19,3.73-13.44,2.35-27.35,7.4-34.92,19.62-9.85,15.88-3.74,31.44-9,47.95-9.82,30.64-57.4,45-85.63,46.41-29.38,1.51-61.38-5.84-89.84,3.84a144.57,144.57,0,0,0-47.91,27.66c-23.07,19.87-42.4,45.28-68.68,61.19-28.46,17.23-61.79,20.39-93.91,12.15-36.19-9.29-66.85-30-100.07-46.17-34.2-16.62-66.89-22.17-100.4-11,35.54,113.3,112,208.47,212.13,268.28a86.41,86.41,0,0,1,9.11-2.16c18.29-3.83,36.68-6.56,51.13-19.62,16.9-15.26,21.75-36.43,22.21-58.57.28-13.07-.15-24.82,7.24-36.13,18.88-28.89,68.85-36.54,99.13-45.43,28.19-8.3,60.22-4.84,87.48-15.46,36.15-14.08,30.59-56,45.06-85.1,6.62-13.31,17-22.35,29.14-30.61,19.84-13.52,34.92-26.88,49.59-45.94,12.68-16.5,25.63-29.64,44.58-38.64,20.7-9.84,43.53-13.13,64-23.77,12.42-6.47,25.9-15.63,40.53-14.31,11.81,1.06,22.16,13.11,27.59,22.65,5.06,8.89,6.51,18.35,10.22,27.73,7.75,19.63,24.8,21,42.71,20.4,17.12-.53,31.38,1.58,44,14.24,9.9,9.93,19.32,22.07,33.76,25.32,1.86.41,3.73.74,5.6,1,1.64-7.14,3.08-14.36,4.4-21.62-10.08-6.89-18.63-16.25-29-22.67C966.62,616,907.07,618.14,908.64,582ZM339.69,940.18a24.06,24.06,0,0,1-7.16,3.53,3.33,3.33,0,0,1-2,0c-16,4.41-33.75,1.1-32.88-13.54,1.07-17.8,23.38-43.84,42-30.6a24.91,24.91,0,0,1,4.5,4.16,3.19,3.19,0,0,1,3.66.83c2.71,2.81,5.24,6.07,6.4,9.87C357.67,925.8,350.21,934.85,339.69,940.18Zm5.82-72.08C328.82,865,298,849.35,308.36,827.35c5.7-12.07,18.44-15.47,31.81-16.71a66.85,66.85,0,0,1,23.68-1.35c1.64-.14,3.25-.31,4.74-.54A3.91,3.91,0,0,1,373,811.6c8,3.1,14.37,8.92,16.66,18.72C395.39,855,367.78,872.22,345.51,868.1ZM470.9,721.29c-6.25,4.83-29.1,14.31-30.68,0-1-8.85,8.48-18.82,15.14-23.39a3,3,0,0,1,3.61,0c5.38-4.67,11.63-7.25,16.86-1.67C482.79,703.61,478,715.82,470.9,721.29Zm115.29,50.76c-13.75,17.82-49.15,23.2-69.27,15.75-23.31-8.63-7.39-35.3,7.32-42.81,8.57-4.39,21.82-9.54,34.7-11.34a2.88,2.88,0,0,1,2.64-2.73c10.08-1.6,26.17-2.23,31.09,9.5C597.41,751.73,593.37,762.74,586.19,772.05Zm307-285.14c-8.05,7.72-21.88,4.87-27.52-4.71-7-11.86,3.13-30.28,15.92-33.65A3.49,3.49,0,0,1,886,451.7c5.93-.52,11.42,1.88,13.5,9.19C901.94,469.39,899.73,480.66,893.2,486.91Z"/><path class="cls-5" d="M921.88,384.65c20.92,5.9,42.88-.36,64.14-6.33a479.08,479.08,0,0,0-61.32-105c-4,15.95-4.39,32.13-9.15,48.9C910.74,339.21,895.73,377.29,921.88,384.65Z"/><path class="cls-4" d="M195,615c15.6-3.37,30.61-5.84,40.06-20,4.68-7,8.95-13.84,15.71-19.07,15.85-12.27,39,3.33,56.45-3.11,16.38-6,12.6-19.31,14.23-31.61.19-1.41,1.91-7.89-.63-9.3C309,525.32,295,521,281.31,522.25c-9.45.85-21,4.57-30.62,1.92-15.32-4.23-28.68-13.21-45.24-9.42-20.24,4.65-27.44,0-42-13.38-16.51-15.24-39.95-6.76-60-5.05-6.57.56-14.91,1.69-21-1.4l-12.87,2.7a480.91,480.91,0,0,0-.18,134c7.51-2.34,15.1-4.47,22.83-6.15,30.19-6.59,60.86-6.5,91.43-8Z"/><path class="cls-6" d="M587,438q-2.06,1-4.15,2a14.15,14.15,0,0,1-6.65,1.6c-11.66-.68-21-6.14-32.49-.31-9,4.53-24.31,7.56-28.85,17.57a47.52,47.52,0,0,0-2.35,7.06c7.91,9,16.64,12.4,30.14,11.68,4.15-.2,8.4-.69,12.46.41,6,1.61,8.32.69,9.4-4.91,1.06-5.44,2.53-9,7.74-11.17,6.17-2.55,17.64.34,23.36-4.72a36,36,0,0,0,2-5,51.1,51.1,0,0,0,1.33-5.46C598.14,440.55,593.84,434.66,587,438Z"/><path class="cls-7" d="M424.81,507.86a2.1,2.1,0,0,1-1.78,1,45.73,45.73,0,0,0-25.29,8.49c-4.46,3.3-14.24,8.52-6.44,12.69a59.09,59.09,0,0,0,25.87,7c19.25.52,37.64-7.55,39.56-28.14C446.49,508.66,435.5,507.55,424.81,507.86Z"/><path class="cls-7" d="M671.73,372.34a91.27,91.27,0,0,0-10.15,15.86c36.81,9.05,75.72-12.71,75.87-52.79C713.44,339.72,688.35,353.94,671.73,372.34Z"/><path class="cls-7" d="M354.37,714.75l-1.49-.65-1.34-.38c-14.33,1.49-30.08,3-43.34,9.13a19.34,19.34,0,0,0-5.79,8.25,51.74,51.74,0,0,0,12.2,5.55c8.14,2.49,14.7,2.75,23,.09,4.08-1.3,30-6.91,25.18-13.91A30.33,30.33,0,0,0,354.37,714.75Z"/><path class="cls-6" d="M546.68,114a367.22,367.22,0,0,1,63.2,24.56c9.17,4.67,20.11,9.35,28,16,9.6,8.12,18.7,16.81,28.37,24.86,22,18.26,53.66,38.64,82.49,23.33,20.61-11,35.63-30,57.08-39.56A480.57,480.57,0,0,0,435.92,98,403.83,403.83,0,0,1,546.68,114Z"/><path class="cls-7" d="M384,461.33c-2.49.34-5,.61-7.5.85-1.74-.12-3.34,0-4.91-.72-6.6-3-11.83-8.11-19-9.82-10.9-2.58-23.46-2.19-28.59,5a12.18,12.18,0,0,0-.46,7.65c2.5,9,12.51,13,20.85,14.52,13.55,2.55,28.86,2.17,42.1-1.87A35,35,0,0,0,395,473.2C394.13,469.33,390.54,465.37,384,461.33Z"/><path class="cls-7" d="M560.57,918.93c-1.4.05-2.78.19-4.16.37-7.39,3.53-14.73,7.18-21.85,11.31a2.2,2.2,0,0,1-3.26-1.48,98.34,98.34,0,0,0-27.64,28.36c31.9,11.26,68.61-12,69.65-46.2q-5.29,2.54-10.6,5A2.25,2.25,0,0,1,560.57,918.93Z"/><path class="cls-8" d="M545.57,85.72C280.66,85.06,65.39,299.27,64.73,564.17S278.27,1044.35,543.17,1045,1023.34,831.47,1024,566.57,810.47,86.39,545.57,85.72ZM507.66,915.17c-219.23-.55-396.49-178.71-395.94-397.93s178.7-396.49,397.92-395.95S906.13,300,905.58,519.23,726.88,915.72,507.66,915.17Z"/><path class="cls-9" d="M176.52,818C111.9,715.33,89.84,625.75,85.64,557c0-.22-.06-.44-.08-.66a436.21,436.21,0,0,1-2.91-65.61C70,562.41,69.06,675.67,141,800.51c121.48,210.93,348.83,244.63,463.35,225.34C604.3,1025.85,326.54,1056.35,176.52,818Z"/><path class="cls-10" d="M312.77,323.3c-17.77-9.28-38.43-3.08-56.48,1.45-8.94,2.25-19.32,4.8-26.2,11.35-5.83,5.56-16.85,13.93-17.15,22.89-.29,8.17,14.25,14.92,19.14,20.42,5.89,6.64,12.4,10.27,21.67,9.33a54.53,54.53,0,0,0,25.91-9.81,53,53,0,0,0,15.17-11.84,64.48,64.48,0,0,0,6.53-9.58c4.41-7.22,9.67-12.89,14.64-19.62A9.62,9.62,0,0,0,312.77,323.3Z"/><path class="cls-10" d="M378.22,361.54c-3.77-1.69-8.75-.19-12.46,2a10.77,10.77,0,0,0-1,.59,17.19,17.19,0,0,0-1.54,1.16c-1.78,1.51-3.31,4.09-3.07,6.39a5.4,5.4,0,0,0-.07.8c.2,3,2.84,5.05,5.44,6,5.85,2.16,12.14-1.5,15.16-6.47C383,368.43,382.37,363.39,378.22,361.54Z"/><path class="cls-7" d="M825.6,622.59c-5.09-8.33-39.5,3.92-45.27,8-8.27,5.86-16,10.23-23,15a86.1,86.1,0,0,0-14,7.1c-11.13,7-18,19.18-29,26-6,3.73-14,7.6-17.55,14.17C691.1,703.3,694.21,717.73,709,716s25.85-10.71,41.37-8.09c10.52,1.77,21.63,2.21,32.1-.15,16.46-3.72,28.41-23.13,35.1-37,4.47-9.24,4.36-19,4.53-29C822.23,633.68,830.06,629.9,825.6,622.59Z"/></g></g></svg>