<svg xmlns="http://www.w3.org/2000/svg" xmlns:xlink="http://www.w3.org/1999/xlink" viewBox="0 0 1139.34 1025.41"><defs><style>.cls-1{isolation:isolate;}.cls-2{fill:url(#radial-gradient);}.cls-3{fill:url(#radial-gradient-2);}.cls-4{fill:#ffebcd;}.cls-4,.cls-6{opacity:0.3;}.cls-5{fill:url(#radial-gradient-3);}.cls-6{fill:#fdd193;}.cls-7{fill:#9c1b1f;}.cls-10,.cls-7,.cls-8{opacity:0.5;}.cls-8{fill:#ac4836;mix-blend-mode:multiply;}.cls-9{fill:#cbc9b7;opacity:0.7;mix-blend-mode:color-dodge;}.cls-10{fill:#6d1510;}</style><radialGradient id="radial-gradient" cx="1376.07" cy="-7546.04" r="2159.25" gradientTransform="translate(-463.42 4455.22) rotate(0.14) scale(0.58)" gradientUnits="userSpaceOnUse"><stop offset="0" stop-color="#e3f3fc"/><stop offset="0.42" stop-color="#e26343"/><stop offset="0.76" stop-color="#d01b21"/></radialGradient><radialGradient id="radial-gradient-2" cx="1904.64" cy="-6304.14" r="1657.21" xlink:href="#radial-gradient"/><radialGradient id="radial-gradient-3" cx="1904.66" cy="-6304.07" r="1657.31" xlink:href="#radial-gradient"/></defs><g class="cls-1"><g id="Capa_1" data-name="Capa 1"><path class="cls-2" d="M1056.21,539.05c-.66,264.89-215.94,479.1-480.84,478.43S96.27,801.54,96.93,536.65,312.87,57.54,577.77,58.2,1056.87,274.15,1056.21,539.05Z"/><path class="cls-3" d="M912.06,433.7a3.35,3.35,0,0,1-4-.37c-5.33,6.12-7.91,15.69-1.09,20.39,5.34,3.66,11.34,4.45,15.11-1.71,2.89-4.74,4.48-11.3,2.66-16.72C922.59,429,916.59,431.1,912.06,433.7Z"/><path class="cls-4" d="M940.84,554.5c.86-19.84,37.24-21.16,50.55-22.19,16.29-1.26,32.61-1.52,48.92-2.22,4.73-.21,10.31-.06,15.81-.43A477.65,477.65,0,0,0,1021.24,358c-27.73,8.19-63,18.21-80.41-.3-14-14.87-8.15-36.92-3.11-54.38,6.34-22,6.76-43.84,13.57-64.8-4.58-5.73-9.27-11.38-14.11-16.88a31.68,31.68,0,0,0-4.5,7.37c-6.07,13.9-6.07,29.59-6,44.51.19,30.24,2.68,60.44-23,81.08-8.06,6.48-17.92,11.5-24.56,19.58-11.54,14-6.54,28-1.53,43.29,5.92,18,8.11,32.84,2.29,51.28-8.18,25.91-26.19,43.32-53.47,47.46-25.57,3.9-51.78-.7-77.19,3.74-13.45,2.34-27.35,7.4-34.93,19.61-9.85,15.89-3.74,31.45-9,48-9.82,30.64-57.39,45-85.62,46.42-29.39,1.5-61.38-5.84-89.84,3.84a144.72,144.72,0,0,0-47.92,27.66c-23.07,19.86-42.4,45.28-68.67,61.18-28.47,17.23-61.8,20.4-93.92,12.16-36.19-9.29-66.84-30-100.07-46.17-34.2-16.63-66.89-22.18-100.4-11C154.39,794.85,230.89,890,331,949.83a86.41,86.41,0,0,1,9.11-2.16c18.29-3.83,36.69-6.56,51.14-19.62,16.9-15.26,21.74-36.43,22.2-58.57.28-13.08-.15-24.83,7.25-36.13,18.88-28.89,68.85-36.54,99.12-45.44,28.19-8.3,60.23-4.83,87.49-15.45,36.14-14.09,30.59-56,45.05-85.1,6.62-13.31,17-22.36,29.14-30.62,19.84-13.52,34.92-26.87,49.59-45.94,12.68-16.49,25.63-29.63,44.59-38.63,20.69-9.84,43.52-13.13,64-23.78,12.42-6.46,25.9-15.63,40.53-14.31,11.81,1.06,22.16,13.12,27.59,22.66,5.06,8.88,6.51,18.35,10.22,27.73,7.76,19.63,24.81,20.95,42.71,20.39,17.12-.53,31.39,1.59,44,14.25,9.9,9.92,19.32,22.07,33.77,25.31,1.86.41,3.72.75,5.6,1q2.45-10.73,4.39-21.63c-10.08-6.88-18.63-16.24-29-22.67C998.82,588.45,939.28,590.62,940.84,554.5ZM371.89,912.66a24.55,24.55,0,0,1-7.16,3.53,3.33,3.33,0,0,1-2,0c-16,4.4-33.74,1.09-32.87-13.54,1.07-17.81,23.38-43.84,42-30.6a24.82,24.82,0,0,1,4.49,4.15A3.22,3.22,0,0,1,380,877c2.71,2.82,5.25,6.07,6.41,9.87C389.87,898.27,382.42,907.32,371.89,912.66Zm5.82-72.09c-16.69-3.09-47.51-18.75-37.15-40.74,5.7-12.08,18.44-15.48,31.82-16.71a66.78,66.78,0,0,1,23.67-1.36c1.65-.13,3.25-.3,4.75-.53a3.91,3.91,0,0,1,4.35,2.84c8,3.1,14.38,8.93,16.67,18.72C427.59,827.51,400,844.7,377.71,840.57ZM503.1,693.77c-6.25,4.82-29.1,14.3-30.67,0-1-8.85,8.47-18.82,15.13-23.39a3,3,0,0,1,3.61,0c5.38-4.68,11.63-7.25,16.86-1.67C515,676.09,510.21,688.3,503.1,693.77Zm115.29,50.76c-13.75,17.81-49.15,23.2-69.26,15.75-23.31-8.64-7.4-35.31,7.31-42.82,8.57-4.38,21.82-9.53,34.71-11.33a2.88,2.88,0,0,1,2.63-2.74c10.09-1.6,26.18-2.23,31.1,9.51C629.61,724.21,625.57,735.21,618.39,744.53Zm307-285.15c-8,7.72-21.88,4.87-27.52-4.71-7-11.85,3.13-30.28,15.93-33.64a3.48,3.48,0,0,1,4.41,3.14c5.94-.51,11.43,1.88,13.51,9.2C934.14,441.86,931.93,453.13,925.4,459.38Z"/><path class="cls-5" d="M954.08,357.13c20.92,5.89,42.88-.37,64.15-6.33a479.42,479.42,0,0,0-61.33-105c-4,16-4.38,32.13-9.14,48.91C942.94,311.68,927.94,349.77,954.08,357.13Z"/><path class="cls-4" d="M227.23,587.49c15.6-3.36,30.61-5.84,40.06-20,4.69-7,9-13.83,15.71-19.06,15.86-12.28,39,3.33,56.45-3.11,16.38-6,12.6-19.32,14.24-31.62.18-1.41,1.91-7.89-.64-9.3-11.86-6.56-25.81-10.85-39.53-9.62-9.46.84-21,4.56-30.63,1.91-15.32-4.22-28.68-13.21-45.23-9.42-20.25,4.65-27.45,0-42-13.37-16.51-15.24-40-6.77-60-5.06-6.57.56-14.91,1.7-21-1.39l-12.86,2.7a480.4,480.4,0,0,0-.19,134c7.51-2.35,15.1-4.47,22.83-6.16,30.2-6.58,60.86-6.49,91.43-8Z"/><path class="cls-6" d="M619.23,410.5c-1.36.7-2.74,1.35-4.14,2a14.33,14.33,0,0,1-6.66,1.59c-11.65-.67-20.95-6.13-32.49-.3-9,4.53-24.3,7.55-28.85,17.57a47.14,47.14,0,0,0-2.35,7.06c7.92,9,16.64,12.39,30.14,11.68,4.15-.21,8.4-.69,12.46.4,6,1.61,8.33.69,9.4-4.9s2.53-9,7.75-11.17c6.16-2.55,17.64.34,23.36-4.73a35.41,35.41,0,0,0,1.95-5,48.41,48.41,0,0,0,1.32-5.47C630.35,413,626,407.14,619.23,410.5Z"/><path class="cls-7" d="M457,480.34a2.12,2.12,0,0,1-1.78,1A45.62,45.62,0,0,0,430,489.87c-4.47,3.29-14.25,8.51-6.45,12.68a58.82,58.82,0,0,0,25.87,7c19.26.52,37.65-7.55,39.56-28.14C478.69,481.13,467.7,480,457,480.34Z"/><path class="cls-7" d="M703.93,344.82a91.56,91.56,0,0,0-10.15,15.85c36.81,9.06,75.73-12.7,75.87-52.79C745.64,312.19,720.56,326.41,703.93,344.82Z"/><path class="cls-7" d="M386.57,687.22l-1.49-.64c-.44-.12-.89-.27-1.34-.38-14.32,1.48-30.07,3-43.34,9.12a19.28,19.28,0,0,0-5.78,8.26,51,51,0,0,0,12.19,5.54c8.15,2.5,14.7,2.75,23,.09,4.08-1.29,30-6.9,25.18-13.91A30.21,30.21,0,0,0,386.57,687.22Z"/><path class="cls-6" d="M578.88,86.52a366.09,366.09,0,0,1,63.2,24.56c9.18,4.66,20.11,9.34,28,16,9.59,8.13,18.7,16.82,28.37,24.86,22,18.26,53.65,38.65,82.48,23.33,20.61-11,35.63-30,57.08-39.56a480.61,480.61,0,0,0-369.9-65.22A403.45,403.45,0,0,1,578.88,86.52Z"/><path class="cls-7" d="M416.22,433.81q-3.75.49-7.51.84c-1.73-.12-3.33,0-4.91-.71-6.6-3-11.83-8.11-19-9.82-10.9-2.59-23.46-2.19-28.58,5a12.14,12.14,0,0,0-.47,7.66c2.5,9,12.51,12.95,20.85,14.52,13.55,2.55,28.86,2.17,42.1-1.87a35.64,35.64,0,0,0,8.56-3.73C426.34,441.8,422.74,437.85,416.22,433.81Z"/><path class="cls-7" d="M592.77,891.41c-1.39.05-2.78.18-4.15.36-7.4,3.54-14.74,7.19-21.85,11.31a2.19,2.19,0,0,1-3.26-1.47A98.24,98.24,0,0,0,535.86,930c31.91,11.26,68.62-12.05,69.65-46.21-3.53,1.69-7.06,3.38-10.59,5A2.27,2.27,0,0,1,592.77,891.41Z"/><path class="cls-8" d="M577.77,58.2C312.87,57.54,97.59,271.75,96.93,536.65s213.54,480.17,478.44,480.83,480.18-213.54,480.84-478.43S842.67,58.86,577.77,58.2ZM539.86,887.64c-219.22-.55-396.48-178.71-395.93-397.92s178.69-396.5,397.92-396S938.34,272.48,937.79,491.7,759.09,888.19,539.86,887.64Z"/><path class="cls-9" d="M208.72,790.47c-64.62-102.66-86.68-192.24-90.87-261,0-.21-.07-.44-.09-.65a437.59,437.59,0,0,1-2.91-65.61c-12.7,71.66-13.58,184.92,58.31,309.76C294.63,983.91,522,1017.62,636.5,998.32,636.5,998.32,358.74,1028.82,208.72,790.47Z"/><path class="cls-10" d="M345,295.77c-17.76-9.27-38.42-3.07-56.48,1.46-8.93,2.24-19.32,4.8-26.2,11.35-5.83,5.56-16.85,13.93-17.15,22.88-.29,8.17,14.25,14.93,19.14,20.43,5.9,6.64,12.4,10.26,21.68,9.33a54.62,54.62,0,0,0,25.91-9.82A52.9,52.9,0,0,0,327,339.56a64.69,64.69,0,0,0,6.54-9.57c4.4-7.23,9.66-12.9,14.63-19.63A9.62,9.62,0,0,0,345,295.77Z"/><path class="cls-10" d="M410.43,334c-3.78-1.7-8.76-.19-12.47,2.05a9.8,9.8,0,0,0-1,.58,17.53,17.53,0,0,0-1.53,1.17c-1.79,1.5-3.32,4.08-3.08,6.39a6.82,6.82,0,0,0-.07.79c.2,3,2.85,5.06,5.44,6,5.86,2.16,12.14-1.51,15.17-6.47C415.16,340.9,414.57,335.87,410.43,334Z"/><path class="cls-7" d="M857.81,595.07c-5.1-8.34-39.51,3.91-45.28,8-8.27,5.86-16,10.24-23,15a87.4,87.4,0,0,0-14,7.1c-11.12,7-18,19.19-29,26-6,3.73-14,7.59-17.54,14.17-5.57,10.4-2.47,24.83,12.32,23.14s25.86-10.72,41.38-8.1c10.51,1.78,21.62,2.22,32.09-.14,16.46-3.72,28.41-23.13,35.11-37,4.46-9.24,4.36-19,4.52-29C854.43,606.15,862.27,602.38,857.81,595.07Z"/></g></g></svg>