<svg xmlns="http://www.w3.org/2000/svg" xmlns:xlink="http://www.w3.org/1999/xlink" viewBox="0 0 1424.18 1224.79"><defs><style>.cls-1{isolation:isolate;}.cls-2{fill:url(#radial-gradient);}.cls-3{fill:#a998ab;mix-blend-mode:multiply;}.cls-3,.cls-4{opacity:0.6;}.cls-4{fill:#4b5da7;mix-blend-mode:color-dodge;}.cls-5{fill:url(#radial-gradient-2);}.cls-6{fill:url(#radial-gradient-3);}.cls-7{fill:url(#radial-gradient-4);}.cls-8{fill:url(#radial-gradient-5);}.cls-9{fill:url(#radial-gradient-6);}.cls-10{fill:url(#radial-gradient-7);}.cls-11{fill:url(#radial-gradient-8);}.cls-12{fill:url(#radial-gradient-9);}.cls-13{fill:url(#radial-gradient-10);}.cls-14{fill:url(#radial-gradient-11);}.cls-15{fill:url(#radial-gradient-12);}.cls-16{fill:url(#radial-gradient-13);}.cls-17{fill:url(#radial-gradient-14);}.cls-18{fill:url(#radial-gradient-15);}</style><radialGradient id="radial-gradient" cx="2811.68" cy="-7721.07" r="2758.49" gradientTransform="matrix(0.51, 0, 0, 0.51, -1171.52, 3858.86)" gradientUnits="userSpaceOnUse"><stop offset="0.41" stop-color="#6488aa"/><stop offset="0.91" stop-color="#a06e7f"/></radialGradient><radialGradient id="radial-gradient-2" cx="5122.42" cy="-6376.81" r="3634.94" gradientTransform="matrix(0.51, 0, 0, 0.51, -1171.52, 3858.86)" gradientUnits="userSpaceOnUse"><stop offset="0.41" stop-color="#33495d"/><stop offset="0.91" stop-color="#a06e7f"/></radialGradient><radialGradient id="radial-gradient-3" cx="5122.59" cy="-6376.82" r="3635.03" xlink:href="#radial-gradient-2"/><radialGradient id="radial-gradient-4" cx="5122.5" cy="-6376.91" r="3634.99" xlink:href="#radial-gradient-2"/><radialGradient id="radial-gradient-5" cx="5122.51" cy="-6376.93" r="3635.04" xlink:href="#radial-gradient-2"/><radialGradient id="radial-gradient-6" cx="5122.49" cy="-6376.88" r="3635.02" xlink:href="#radial-gradient-2"/><radialGradient id="radial-gradient-7" cx="5122.57" cy="-6376.97" r="3635.26" xlink:href="#radial-gradient-2"/><radialGradient id="radial-gradient-8" cx="5122.46" cy="-6376.82" r="3634.93" xlink:href="#radial-gradient-2"/><radialGradient id="radial-gradient-9" cx="5121.94" cy="-6376.81" r="3634.19" xlink:href="#radial-gradient-2"/><radialGradient id="radial-gradient-10" cx="5122.53" cy="-6376.79" r="3634.89" xlink:href="#radial-gradient-2"/><radialGradient id="radial-gradient-11" cx="5122.65" cy="-6376.77" r="3635.12" xlink:href="#radial-gradient-2"/><radialGradient id="radial-gradient-12" cx="5122.53" cy="-6376.9" r="3634.85" xlink:href="#radial-gradient-2"/><radialGradient id="radial-gradient-13" cx="5122.54" cy="-6376.93" r="3635.02" xlink:href="#radial-gradient-2"/><radialGradient id="radial-gradient-14" cx="5122.65" cy="-6376.94" r="3636.14" xlink:href="#radial-gradient-2"/><radialGradient id="radial-gradient-15" cx="5122.58" cy="-6376.82" r="3635.41" xlink:href="#radial-gradient-2"/></defs><g class="cls-1"><g id="Capa_1" data-name="Capa 1"><path class="cls-2" d="M1334.15,636.06c2.27-80.56,30.19-162.86,6.71-242.27-19.72-66.69-75-120.25-133.81-154.1-68.64-39.5-149.55-33.79-219-69.58-33-17-57.46-46.6-87.54-67.82C869.8,80.66,837.53,65.68,800.75,58c-62.43-13.13-132.32,0-189.49,26.48C578,99.84,545.67,117,511.12,129.58,477,142,440.59,147.17,406.3,159.32,350,179.28,300.87,217.64,264,264.16c-16.81,21.23-20.2,49.75-23.89,75.62q-1.08,7.47-2.87,14.69C200.7,409.32,148.89,451.7,111,506.8,65.92,572.27,58.7,654.64,66.58,731.6c8.09,78.84,62.17,148.33,115,204.22,28.84,30.53,54.5,63.46,85.09,92.42,29,27.44,43.81,65.94,65.15,99,41.13,63.7,108.83,81.37,180.11,62.47,37-9.81,71.79-26.24,108.14-38,49.08-15.85,97.53-9,146.76,1.65,85.16,18.39,165.86,19.61,251.06.12,69.47-15.88,143.95-39.63,204.19-78.56C1366,982,1330.08,780.5,1334.15,636.06Z"/><path class="cls-3" d="M1334.15,636.06c2.27-80.56,30.19-162.86,6.71-242.27-19.72-66.69-75-120.25-133.81-154.1-68.64-39.5-149.55-33.79-219-69.58-33-17-57.46-46.6-87.54-67.82C869.8,80.66,837.53,65.68,800.75,58c-62.43-13.13-132.32,0-189.49,26.48C578,99.84,545.67,117,511.12,129.58,477,142,440.59,147.17,406.3,159.32,350,179.28,300.87,217.64,264,264.16c-16.81,21.23-20.2,49.75-23.89,75.62q-1.08,7.47-2.87,14.69C200.7,409.32,148.89,451.7,111,506.8,65.92,572.27,58.7,654.64,66.58,731.6c8.09,78.84,62.17,148.33,115,204.22,28.84,30.53,54.5,63.46,85.09,92.42,29,27.44,43.81,65.94,65.15,99,41.13,63.7,108.83,81.37,180.11,62.47,37-9.81,71.79-26.24,108.14-38,49.08-15.85,97.53-9,146.76,1.65,85.16,18.39,165.86,19.61,251.06.12,69.47-15.88,143.95-39.63,204.19-78.56C1366,982,1330.08,780.5,1334.15,636.06ZM1052.41,374.25c-10.8,17.82-31.29,25.92-49.6,33.9-27.18,11.83-48.59,26-65.35,51.36C920.57,485.08,907.65,513,893,539.89c-11.16,20.42-22.68,44.91-42.41,58.66C838.35,607,824.44,611.87,812.2,620c-17.6,11.66-18.38,27.1-22.55,45.62-4.73,21-16.44,30.25-37.23,34.79-58.53,12.8-114.88,47.14-138,104.12C653.57,787,695.6,766,738.58,779.93a4.72,4.72,0,0,1,0,9c-52.37,16.39-103.11,77.75-116.39,130.33C616.37,942.24,615,1009,576.85,1006c-22.71-1.8-42.27-16.17-63.68-22.85-29.36-9.17-61.63-13.72-91-1.45-14.58,6.09-29.47,22.58-46,20.08-21.57-3.25-22.52-36.26-47.5-35.47-18.2.57-34.84,5.52-50.71-6.72-15.62-12-28.44-26.9-42.31-40.82-35.38-35.54-77.12-68.82-107-109.24-39-52.72-48.08-125.16-39-188.65a298.73,298.73,0,0,1,12.93-54.31C117.31,524,146.08,487.81,178,456.76c16.75-16.3,37.7-27,56.79-40.14,28.9-19.91,24.8-45.85,24.5-77.28,0-3.81,5.36-6.59,8-3.3,13.82,17.14,18.27,37.93,23.4,58.66,7.31-38.71,16-84.13,53.38-102.26,10.47-5.08,33.13-18.93,45-14.06,15.37,6.28,25.14,20.6,37,31.89-6.4-20.78-14.72-40.93-20.4-62a4.76,4.76,0,0,1,3.29-5.76c20.42-7.25,28-33.1,48.68-38.71A78,78,0,0,1,482,201.61a133.11,133.11,0,0,0-12.84-13.2c-2.89-2.54-.94-6.67,2.09-7.83,13.33-5.09,28.05-9.17,40.05-17.19-8.36-.45-16.7.06-25.18.24-5.71.13-5.78-7.33-1.22-9.21,75-30.94,142.88-77.95,226.25-82.57,28.23-1.57,64.17,1.29,80.89,27.67,11.58,18.29.67,57.74-6.46,76-1.5,3.85-8.14,5-9,0-2.44-13.86-3.48-27.83-4.34-41.83-3.14,14-7,27.84-13.28,41-1.12,2.33-4.35,2.85-6.42,1.66-16-9.13-31.93-18.41-47.64-28,1.54,3.61,3,7.22,4.61,10.83s-2.18,9.53-6.43,6.39c-16.16-11.91-59.79-29-76.14-8.65-14.89,18.58,15,46.12,21.76,62.9a4.65,4.65,0,0,1-2.16,5.29c-28.4,13.84-70.92,17.47-87.64,47,31,10.66,69.2,3.6,100.29-1.72q22.26-3.82,44.44-8.13c7.22-1.42,17.34-4.71,24.32-.6,18.05,10.64,3.65,40.9-3.95,53.16-11.36,18.35-23.45,35.64-32.26,54.39a28.76,28.76,0,0,0-.34,4.31C725.82,361,744.81,325.3,774,304.55c2.57-1.82,6,.15,6.87,2.82,2.42,7.8,2.28,16.21,2.75,24.29.33,5.8.38,12,1.57,17.66,1.93,9.16,10,7.15,12.76-.77,5.76-16.72,7.22-35.69,15.88-51.34,4.44-8,11.4-16.34,21.51-11.71,16,7.31,24.86,20.78,42.46,22.79-3.28-9.57-9.13-17.22-15.92-25.26a4.69,4.69,0,0,1,6.65-6.61c29.67,25.72,63.24,47.3,101,59.11,27.73,8.69,57.28,15.08,81.26,32.3C1052.79,369.3,1053.83,371.92,1052.41,374.25Z"/><path class="cls-4" d="M261.71,403.38c-21.56,16.15-38.3,37.17-60.33,53.32a306.82,306.82,0,0,0-49.21,45.09C118,540.63,101.25,588.17,96.65,639c-4.93,54.39,10.14,107.27,39,152.93,15.94,25.28,36.47,46,56.77,67.55,16,17,30,36.33,49.72,49.29,1.47,1,4.66-2.06,3.36-3.48-66.39-72.69-132.88-146.15-136.71-249.62-2.07-55.74,17-106.92,51.3-150.23,14.86-18.75,34.13-34,52.46-49.23,18.81-15.6,32-35.81,50.46-51.39C264.45,403.59,263.19,402.27,261.71,403.38Z"/><path class="cls-5" d="M486.41,164.23c-4.67,1.63-19.91,0-30.51,2.16-3.38-7.1-20.36-1-25.95,1.06-31.08,11.44-61.52,22.85-89.62,40.66a164.37,164.37,0,0,0-33.87,28.17c-16.08,13.63-33.32,31.58-33.91,48.73,0,.05,0,.08,0,.12-.53,3.72,0,7.78.39,11.33.64,5.34-1.42,10.82-.24,16.27.52,2.36,4.21-.7,4.31-2.15.36-5.08,2.52-10.67,4.11-15.51a16.83,16.83,0,0,0,.57-4.4c5.69-.35,13.06-2.54,19.11-4.7.23,1.64.57,3.37,1,5.23A147.38,147.38,0,0,1,304,307.71c.53,5.08,2.73,13.2,1.36,18.29-.85,3.14,3.58,1.55,4.39-.17,3.47-7.41,2.73-17.35,3.54-25.35a68,68,0,0,0,.05-15,26.76,26.76,0,0,1,0-4.48c19.36-8.05,38-19.56,55.65-32,.4.61.81,1.22,1.2,1.85,2.73,4.49,5.45,8.83,7.82,13.56,1,1.93,4.4-.62,3.8-2.32a113.72,113.72,0,0,0-5.63-13.71c-.54-1.08-1-2.24-1.53-3.42l3.15-2.27c2.17,3.94,4.83,7.77,6.53,11.29,4.55,9.35,8.67,19.2,14.87,27.62,1.16,1.57,4.22-1.25,3.74-2.77-3.2-10.29-4.7-20.87-8.53-31-1.38-3.65-3.23-8.76-5.51-13.36,4.08-3.09,8.13-6.17,12.1-9.22,3.55-2.73,7-5.59,10.44-8.5a326.92,326.92,0,0,0,28.81-23.61A12.13,12.13,0,0,0,442,190.9c2.62.46,5.5.45,7.87.89,6,1.11,11.85,3.1,17.78,4.58,1.62.4,4.77-3,2.69-4-6.24-2.88-14.64-8.6-22.46-9.76.37-.34.74-.73,1.11-1.1a19.82,19.82,0,0,0,2.59-.21c4.3-.54,8.71,1.16,13,1.73.84.11,2.62-1.77,1.45-2.14-3.82-1.24-7.58-3.06-11.5-4,10.76-2.83,22.78-3.56,32.26-9.48C488.37,166.49,489.14,163.28,486.41,164.23Zm-43.32,12.89c-.86.06-2,1.1-1.65,1.86-2.5-4.71-88.67,44-94.49,48.06-19,13.15-41.32,27-57.53,44.16a53,53,0,0,1,.28-8.39c.17-.25.36-.47.53-.71,28-32.41,60.35-56,100.65-72.08,13.93-5.56,28-10.69,42.11-15.86C444.4,170,446,172.26,443.09,177.12Z"/><path class="cls-6" d="M520.73,1095.4c-7.18-33.42-52.19-67.25-85.93-58.39a3.52,3.52,0,0,0-.49.23c-16.53-1.73-32.78,1-34.13,16.6-2.95,33.84,51.52,61.29,77.86,68.74C503.49,1129.77,527.21,1125.52,520.73,1095.4Z"/><path class="cls-7" d="M1150.66,518.18C1101.83,538,1047.93,582,1042.37,637.94a42.39,42.39,0,0,0-5.67-7.46c.69-14.83,1.52-29.5,5.85-44.15.54-1.83-2.14-.66-2.54.41a155.13,155.13,0,0,0-9,38.76c-9.81-7-22.32-9-36.49-8.34a107,107,0,0,0-30.1,2c-2.07-8.9-3.72-17.76-3.68-27.93,0-14.49,3-42.27,13.42-53.84,1.58-1.74-.57-2.68-2-1.49-13.85,11.35-17.39,35.52-20,52.18-1,6.72-2.37,21.85-.41,34.39-15.39,4.82-30.31,12.33-45.14,21a416.54,416.54,0,0,0-55.79,39c-1-1-2.17-2-3.2-3.13-3.31-3.52-6.67-6.91-9.83-10.59A66,66,0,0,0,827.48,659c-3.38-2.56-7.39-4.41-10.39-7.41-1.27-1.26-4.25,1.35-3.14,2.76,2.15,2.75,5,4.55,7.51,7a117,117,0,0,1,11,12.24c3.25,4.21,6.6,8.28,10,12.41.68.85,1.26,1.58,1.84,2.23-1.77,1.56-3.44,3.24-5.18,4.84-1.16-1-2.26-2-3.3-3.07-2.91-3-5.56-6.14-9-8.53-1.06-.74-3.54,1.63-2.48,2.58,3.23,2.92,5.55,6.67,8.17,10.12.71.95,1.5,1.93,2.35,2.86-6.86,6.5-13.56,13.19-19.82,20.35-12.48-4.68-29.93-3.43-40.62-3-28.17,1.16-50.35,8.52-75,21.08-1,.54-1.35,2.63.26,2C726.38,726.82,750,721.66,779,722.6a110.83,110.83,0,0,1,27.75,4.51c-.4.5-.83,1-1.23,1.47-16.51,20.95-30.75,47.35-35.48,74.48-14.56,3.06-30.66,11.41-39.89,19.05a157.92,157.92,0,0,0-25.12,26.36c-5.84,7.69-8.34,22.11-15.1,28.37-.7.65-.83,2.19.53,1.64,10-4.05,17.73-24,24.31-31.53,15.32-17.61,33.36-26.55,53.94-33.45a102.37,102.37,0,0,0-.32,11.21,45.67,45.67,0,0,0,4.9,19.64c-4.16,1.64-8.36,5.49-10.67,7.93-5.34,5.66-9.31,12.39-14.52,18.16-1.74,1.92.69,3.23,2.29,1.7,4-3.86,7.53-8.22,11.23-12.39a60.39,60.39,0,0,1,7-6.62c2.32-1.89,5.12-2.58,7.67-3.87a47.19,47.19,0,0,0,13,12.29,20.09,20.09,0,0,0-7.75,8.31A24.1,24.1,0,0,1,779,874c-.58.77-1.72,1.73-1.09,2.8l0,.07c.2.32.78.35,1.08.29,2.31-.46,3.92-3.14,5.21-4.91,2.47-3.42,5.51-5.67,8.59-8.52,14.05,7.87,32.06,10.83,48,10.89,30.19.12,64.08-3.2,95.67-12.38.54,4.13,2.63,8,4.73,11.83,3.11,5.64,5,11.79,9.57,16.5,1.21,1.26,4.4-1.19,3.61-2.66-2.85-5.21-3.54-11.13-4.65-16.89-.63-3.24-2.17-6.34-3.13-9.52-.22-.76-.41-1.51-.61-2.23,40.4-13.52,75.87-37.38,93.09-77,9.2-21.16,14-43.91,15.15-66.87a34.75,34.75,0,0,1,5.42-2.54c2.74-1,5.66-1.46,8.46-2.23,1.48-.4,3.79-3.88,1.06-3.48-5.2.75-10.36,1-14.73,3.4a221.17,221.17,0,0,0-.45-22.3v0c4.18-4.1,10.25-6.65,15.61-8.75,3.78-1.49,7.42-3.35,11.12-5,1.92-.87,3.87-1.63,5.87-2.31-1.52.56,13.18-4.22,6-.63-.4.19-.5,1,.1.74a29.94,29.94,0,0,0,5.33-2.63c.43-.25,1.07-1.1.44-1.49-9.15-5.66-24.94,2.75-33.78,6.2a78.77,78.77,0,0,0-11.49,5.64c-.74-6.8-1.75-13.55-3.07-20.23-.33-1.6-.7-3.08-1.08-4.58,8.37-27.27,13.56-53.14,30.92-77,18.75-25.75,45.17-39.91,71.06-56.86C1152.48,520.35,1153.27,517.12,1150.66,518.18Zm-121.91,256.5c-23,71.35-110.11,81.51-174.34,87.05-34,2.94-69.57-7.24-73.88-44.53.49.41,1.05.78,1.58,1.16,13.81,16.21,52.19,18.41,69.18,19.34,29.8,1.62,59-15.73,83.74-30.44,23.71-14.12,58.29-32.88,73.61-56.67,10.18-15.8,14.14-32.86,18.34-51.06,3.23-14,2.53-30.07,4.74-44.45,1.7,4.79,3,9.46,4.07,13.41C1045,703.42,1039.62,740.93,1028.75,774.68Z"/><path class="cls-8" d="M1276.58,364.73c.52-13.6-12.9-31-18.5-40.65-16.7-28.65-40.49-53.76-70.19-68.81-11.7-5.92-34.73-14-49.35-8.3-11.12-.23-24,4.62-34.6,6-17.21,2.29-35.27-1.07-52.49-2.3-.65,0-2.52,1.3-1.62,2,19.22,15.16,50.75,10.27,75.69,3.26-2.8,4.44-2.76,10-1.23,15.8-11.84,3.07-23.47,9.48-35.33,11-.88.11-2.48,2.32-1,2.34,12.92.12,25.71-4.17,38.41-7.19,4.2,10.15,11.58,20.23,15.6,26.06a161.31,161.31,0,0,0,14.21,17.61c-1,.83-1.89,1.69-2.88,2.48a7.74,7.74,0,0,1-1.5,1c-.09,0-1.42.76-.7.44-.5.22-1.07.75-.93,1.36.4,1.78,4.37-.59,8-3.21.88.93,1.8,1.83,2.7,2.76a39.78,39.78,0,0,1-6.81,4.24c-1.56.72-2.53,4-.1,3a56.39,56.39,0,0,0,9-5.11c2.26,2.24,4.55,4.45,6.93,6.59-5.33,3.12-10.47,6.64-15.45,9.89A126.26,126.26,0,0,0,1141,355.63c-3.91,3.38-8.12,9.69-12.78,12.07-.45.22-1.34,1.66-.29,1.69,2.06,0,2.3-.51,4-2,5.66-5.15,11.75-9.86,17.71-14.66,7.33-5.9,16-9.78,24.23-14.17,5,4.32,10.28,8.46,15.67,12.35-.77.81-1.52,1.62-2.22,2.39-7.68,8.32-14.09,17.91-20.49,27.22-1.16,1.68.84,2.14,1.84.85,6.09-7.84,12.23-15.62,19-22.87a68.56,68.56,0,0,1,5.35-5.09c6.24,4.33,12.62,8.32,19,12-4.33,6.89-7,15.37-10.71,22-1.13,2,1.76,1.46,2.54.26,3-4.6,5.49-9.44,8.13-14.22a62.73,62.73,0,0,1,3.83-5.94c3.69,2,7.39,4,11.07,5.78a99,99,0,0,0,19,7.1c-10,10.74-14.67,28.84-16.79,42.85-.32,2.12,3.16.19,3.52-1a133.69,133.69,0,0,1,10-23.3c2.94-5.51,7.38-11.37,8.88-17.51a32.28,32.28,0,0,0,10.39,0c-6.19,18.2-6.15,40.62-5.22,57.93.14,2.42,3.62.13,3.75-1.44,2-25.08,10.55-47.13,16.26-71.23A3.31,3.31,0,0,0,1276.58,364.73Zm-20.52,5.71a18.59,18.59,0,0,1,.72-2.73,1.71,1.71,0,0,0-.71-2.14,2.11,2.11,0,0,0-.68-.23c1.09-14.49-45.91-61.82-50.58-65.61-7.46-6.07-53.91-39.71-65.77-32.42-.21-7.17,3.29-12.38,16.14-10.07,19.21,3.45,35.66,12.61,50.84,24.57,24.27,19.1,42.83,47.56,56,75.16C1267.16,367.78,1263.14,370.83,1256.06,370.44Z"/><path class="cls-9" d="M931.22,272.54c-27.75-10.35-54.69-21.81-82.61-30.93,1.42-5.59-2.13-11.43-7.44-16.74,1.75-.51,3.37-1,4.81-1.29,21.2-4.89,43-7.4,63.75-14.25,1.35-.45,2.83-3.79.56-3.21-18.11,4.63-37.06,6.08-55.51,8.93-6.91,1.07-13.79,2.42-20.68,3.72A177.84,177.84,0,0,0,817,207.52c2.65-1.94,5.11-4.12,6.79-5.25,7.18-4.82,15-8.81,21.19-15,1.4-1.39.19-2.86-1.35-1.54-9.36,8.07-21.63,12-31.89,18.93a61.07,61.07,0,0,0-5.72-2.24c.38-.51.74-1,1.14-1.5,2.6-3.18,5.35-6.26,7.82-9.55,1.67-2.23-1.14-2.86-2.49-1.16-3.07,3.82-6.52,7.35-9.7,11.08-2.46-.74-5-1.39-7.53-1.9a109.72,109.72,0,0,0-20.78-6.69c.29-7.58-1.13-15.76-1.49-22.33-.83-15.2,1.28-31.21-2.84-46-.42-1.51-2.95.45-2.74,1.67,2.34,13.57-.31,28-1.29,41.57-.56,7.72-.29,15.58-.57,23.38-5.11-.83-10.27-1.39-15.34-1.74-1.14-5.95-5.28-11.62-7.46-17.16-.73-1.85-4,.57-3.49,2.14.93,3.08,2.09,6.07,3.27,9.06.72,1.84,1.29,3.75,1.88,5.65a126.47,126.47,0,0,0-29.1,2c-2-1.46-3.94-2.94-6-4.35-7.64-5.35-19.92-10.11-24.09-19-.85-1.81-4,.57-3.49,2.14,2.71,8.5,12.84,15.72,19.5,21.14,1.19,1,2.4,2.13,3.62,3.33a31.7,31.7,0,0,0-7.26,4.21c-4.64-1.32-9.67-1.87-14.27-2.75-10.17-2-20.31-2.75-30.35-5.55-1-.29-2.88,1.65-1.68,2.07a167.42,167.42,0,0,0,23.22,6.13c6.26,1.26,12.68,3.8,19.11,5-3.07,7.22,4.08,15.24,13.4,22-1.16.44-2.32.87-3.46,1.36-4.29,1.88-9.48,3.31-12.65,6.95-1.23,1.41,0,2.5,1.51,1.73,6.15-3.23,13-4.82,19.74-6.56,1.37.87,2.75,1.71,4.11,2.51-8.29,3.39-16.51,7.09-24.73,10.16-17.19,6.43-36.53,17.28-54.44,20.93-1.33.28-3.11,3.18-.88,2.91,13.84-1.66,27.82-8.76,41.14-13,15.85-5,31.78-10.28,47.26-16.51,1.95,1,3.79,1.83,5.41,2.53a169,169,0,0,0,31.59,10.13c-1.19,3.59-2.15,7.29-3.1,11-2.69,10.54-5.53,21-7,31.75-.36,2.58,4.07.43,4.43-1.23,3-13.85,8.64-26.78,13.25-40a194.63,194.63,0,0,0,30.47,2.81c1.55,2.66,3.6,5.12,5.15,7.66.77,1.27,3.56-1,3-2.23-.79-1.85-1.6-3.64-2.41-5.43.8,0,1.61,0,2.41,0,1.07,0,2.35,0,3.71,0,1.33,1.24,2.7,2.41,3.85,3.54,4.19,4.08,8.52,8,12.92,11.87,1.62,1.42,5.27-1.68,3.84-3.35-3.36-3.92-6.61-7.92-9.8-12,5.76-.11,11.86-.62,16.77-2.36,10.64,2.38,21.37,4.44,31.72,7.33,19.52,5.48,38.55,12.87,58.18,17.82C930.4,276,932.86,273.15,931.22,272.54Z"/><path class="cls-10" d="M1157.14,1019c-18.7,7.16-37.07,15.43-55,24.28-18.26,9-38.57,18.71-56,31.21-14.2,6.16-28.28,16.7-34.83,28.65-10.89,19.9,22,18.3,33.28,17.06,36.08-4,72.27-19.77,103.87-36.71,23.77-12.75,59.84-34.19,73.52-58.2C1244.25,986.15,1168.67,1014.58,1157.14,1019Z"/><path class="cls-11" d="M375.88,577.2c-23.32,6.16-52.27,12.69-76.37,11.85-16.95-.6-32.75-2.34-49.61-1.83-.79-18.31-4.26-35.89-11.34-51.38,6.43-1.82,12.76-2.35,19.4-3.13,8-.94,16.07-3.71,23.9-5.53,1.57-.37,3.7-3.92,1.05-3.49-8.67,1.41-17.35,3.27-26.08,4.19-7,.74-13.93.64-20.1,4.32-.42-.83-.85-1.64-1.25-2.47,2-.3,4.05-.5,6.09-1a33.6,33.6,0,0,0,9.2-3.54c1.91-1.1,1.65-3.9-.82-2.63a27.27,27.27,0,0,1-12.55,2.83,14.33,14.33,0,0,0-4.07.5,38.27,38.27,0,0,0-4.59-6,31.19,31.19,0,0,0,5.09-.35c8.1-1.31,15.7-6.84,23-10.27,11.17-5.28,23.52-13.85,28.41-25.57.64-1.51-1.68-.92-2.19-.22-8.83,12.17-37.27,23.57-51.94,22.29-9-.79-16,.56-21.76,5.89-4.18.57-8.33,2.72-12.12,7-9.9,11.1-16.33,23.61-20.78,36.89-27.31,47.78-37.24,117-28,165.81,2.32,12.29,8.59,38.67,25.26,39.17,6.45,4.43,16.94,7.64,19.84,8.83A292.33,292.33,0,0,1,221.41,783c13.36,7.23,18.12,18.14,27.53,28.89,1.05,1.2,3.41-1,3-2.23a105.37,105.37,0,0,0-10.74-25c-4-6.63-16.38-11.06-22.87-14.29a240.9,240.9,0,0,0-29-11.66c-.55-.19-1.83-.49-3.45-.89,10.77-5,19.21-16,25.89-27.34,3.79,1.23,7.63,2.36,11.3,3.6,8.42,2.83,14.77,7.88,22.48,12,1.46.78,4.24-2.1,2.57-3.18-7.38-4.72-12.93-10-21.13-13.62-3.87-1.72-7.76-3.43-11.69-5,2.77-5.17,5.21-10.2,7.33-14.52.79-1.61,1.56-3.3,2.34-5,4.85,1.12,9.71,2.18,14.6,3.21,14.68,3.12,30,7.83,44.78,9.56,1.9.22,5-3.5,2.25-4.11-7.66-1.7-14.84-5.89-22.33-8.3-6.63-2.14-13.55-3.45-20.28-5.2-4.45-1.15-9.62-3.22-14.83-4.7a287.21,287.21,0,0,0,15.35-49.81c.93-.72,2.55-2.54,1-3a1.61,1.61,0,0,1-.36-.24,255.91,255.91,0,0,0,3.92-27.81c4.1.12,8.2.19,12.28.62,7.86.84,15.54,3,23.44,3.23,1.51,0,4.11-3.12,1.85-3.38-7.59-.86-14.87-3.71-22.39-5.13a78.22,78.22,0,0,0-14.7-1.2q.33-5.22.41-10.4c2.77.44,6,.36,10.16.65,13.38,1,27.12,3,40.53,2.74,23.47-.42,53.19-12.49,74.62-21.11C376.52,579.79,378.11,576.6,375.88,577.2ZM231,542.52c-14.27,32-32.53,60.38-40.45,95.1-7,30.78-2.06,68.31,5.1,98.81-9.79,9.73-20.9,12.84-29.1-5.77-5.79-13.13-6.44-28.51-6.52-43.07a2.05,2.05,0,0,0,1.28-.65s.07,0,.1-.05A40.33,40.33,0,0,0,172,685.67a4.69,4.69,0,0,0,3.46-3,1.46,1.46,0,0,0-.73-1.94.33.33,0,0,0,.06-.1c-4.57-1.29-10.33-.14-14.47-3a2.13,2.13,0,0,0-.35-.14c0-5.1.1-10.42.29-15.83a49.44,49.44,0,0,0,10.35-3.51c2-.9,3.52-5,.13-3.89a33.36,33.36,0,0,1-10.22,2,354.48,354.48,0,0,1,6.27-52.62c.12,1,2-.06,2.23-.8a477.2,477.2,0,0,1,22.22-61.93c12.63-29.29,30.43-16.35,40.85.38A3.44,3.44,0,0,0,231,542.52Z"/><path class="cls-12" d="M176.91,630.24c-1.87,0-3.72.16-5.59.08-2.29-.1-3.16-1.12-5-2-1.24-.62-2.81.88-3.15,1.94-1.91,6,9.21,4,12.14,3.81C176.84,634,179.24,630.26,176.91,630.24Z"/><path class="cls-13" d="M628.61,1075.26l0,0c-1.1-16.07-26.83-26.34-37.17-11.11-4.2,6.19-2.33,12,2.16,16.11a28.54,28.54,0,0,0,13,11.67c8.49,3.67,18.16-1.63,21.13-10.13a16.11,16.11,0,0,0,.85-4.57C629.15,1076.5,629.45,1075.64,628.61,1075.26Z"/><path class="cls-14" d="M358.42,1023c-8.72-9.12-17-20.77-31.22-16.74-9,2.56-12.28,10.94-9.95,18.53a7.92,7.92,0,0,0,1,5.29c7.16,12.14,31.22,27.93,44.37,17.1C371.85,1039.57,364.71,1029.55,358.42,1023Z"/><path class="cls-15" d="M1175.63,801.65c-5.28.36-10.35,4.12-14.08,7.65-3.92,3.71-7.46,8.39-8,13.92-.13,1.3.64,3.19,2,3.6,4.77,1.39,9.1.25,13.26-2.38,3.46-2.2,9.85-8.07,9-13a24.47,24.47,0,0,0,2-5.08C1180.62,803.19,1178.78,801.43,1175.63,801.65Z"/><path class="cls-16" d="M1287,633.55c-6.78-11-21.25-9.54-29.89-1.68-7.51,6.84-11.69,15-15.38,23.69-7.36,11.38-12.29,25-13.12,32.84a52.32,52.32,0,0,0,2,20.48c.15,1.1.27,2.22.49,3.31,2.44,12.77,16.86,21.59,28.38,13.86,9.32-1.73,17.39-7.33,23.79-15C1300,690.77,1300.31,655.31,1287,633.55Z"/><path class="cls-17" d="M1258.53,559.58c-1.27-1.87-3.41-1.83-5.41-1.39-3.31.72-6.83,3.78-6.57,7.41a22.1,22.1,0,0,0-.75,3.5c-.26,1.83,1.68,2.62,3.15,2.38a7.63,7.63,0,0,0,5-3.7c.15-.24.28-.52.43-.77a13.34,13.34,0,0,0,1.23-.65C1257.66,565.08,1260.22,562.05,1258.53,559.58Z"/><path class="cls-18" d="M1014.28,287.36c-5.46-6.14-15.55-7.32-21.65-1.47-1-.11-2.49,1.31-2.26,2.31,0,.11.07.23.1.34-1.63,2.78-1.76,5.93,1.56,8a16.58,16.58,0,0,0,3.65,1.66,15.5,15.5,0,0,0,11.16,5.09C1015.11,303.4,1019.81,293.59,1014.28,287.36Z"/><path class="cls-4" d="M765.49,88.46c-82.32-19.76-167.2,18.11-239,56.66-1.51.81-2,3.63.35,2.86,37.55-12.31,73.32-29.83,111.15-42,42.11-13.59,82.29-19,126-14.83C765.26,91.21,767.24,88.88,765.49,88.46Z"/></g></g></svg>