<svg xmlns="http://www.w3.org/2000/svg" xmlns:xlink="http://www.w3.org/1999/xlink" viewBox="0 0 1395.69 1262.77"><defs><style>.cls-1{isolation:isolate;}.cls-2{fill:url(#radial-gradient);}.cls-3{fill:#ba8b8b;mix-blend-mode:multiply;}.cls-3,.cls-4{opacity:0.6;}.cls-4{fill:#995c5c;mix-blend-mode:color-dodge;}.cls-5{fill:url(#radial-gradient-2);}.cls-6{fill:url(#radial-gradient-3);}.cls-7{fill:url(#radial-gradient-4);}.cls-8{fill:url(#radial-gradient-5);}.cls-9{fill:url(#radial-gradient-6);}.cls-10{fill:url(#radial-gradient-7);}.cls-11{fill:url(#radial-gradient-8);}.cls-12{fill:url(#radial-gradient-9);}.cls-13{fill:url(#radial-gradient-10);}.cls-14{fill:url(#radial-gradient-11);}.cls-15{fill:url(#radial-gradient-12);}.cls-16{fill:url(#radial-gradient-13);}.cls-17{fill:url(#radial-gradient-14);}.cls-18{fill:url(#radial-gradient-15);}</style><radialGradient id="radial-gradient" cx="6737.05" cy="-7438.07" r="2758.49" gradientTransform="matrix(0.51, 0, 0, 0.51, -3173.55, 3729.86)" gradientUnits="userSpaceOnUse"><stop offset="0.41" stop-color="#a66969"/><stop offset="0.91" stop-color="#a66969"/></radialGradient><radialGradient id="radial-gradient-2" cx="9047.79" cy="-6093.81" r="3634.94" gradientTransform="matrix(0.51, 0, 0, 0.51, -3173.55, 3729.86)" gradientUnits="userSpaceOnUse"><stop offset="0.41" stop-color="#593736"/><stop offset="0.91" stop-color="#a66969"/></radialGradient><radialGradient id="radial-gradient-3" cx="9047.94" cy="-6093.82" r="3635" xlink:href="#radial-gradient-2"/><radialGradient id="radial-gradient-4" cx="9047.87" cy="-6093.9" r="3634.99" xlink:href="#radial-gradient-2"/><radialGradient id="radial-gradient-5" cx="9047.88" cy="-6093.93" r="3635.04" xlink:href="#radial-gradient-2"/><radialGradient id="radial-gradient-6" cx="9047.86" cy="-6093.88" r="3635.02" xlink:href="#radial-gradient-2"/><radialGradient id="radial-gradient-7" cx="9047.94" cy="-6093.97" r="3635.25" xlink:href="#radial-gradient-2"/><radialGradient id="radial-gradient-8" cx="9047.83" cy="-6093.82" r="3634.93" xlink:href="#radial-gradient-2"/><radialGradient id="radial-gradient-9" cx="9047.31" cy="-6093.81" r="3634.18" xlink:href="#radial-gradient-2"/><radialGradient id="radial-gradient-10" cx="9047.91" cy="-6093.79" r="3634.91" xlink:href="#radial-gradient-2"/><radialGradient id="radial-gradient-11" cx="9048.03" cy="-6093.77" r="3635.13" xlink:href="#radial-gradient-2"/><radialGradient id="radial-gradient-12" cx="9047.88" cy="-6093.9" r="3634.79" xlink:href="#radial-gradient-2"/><radialGradient id="radial-gradient-13" cx="9047.91" cy="-6093.93" r="3635.03" xlink:href="#radial-gradient-2"/><radialGradient id="radial-gradient-14" cx="9048.03" cy="-6093.94" r="3636.27" xlink:href="#radial-gradient-2"/><radialGradient id="radial-gradient-15" cx="9047.95" cy="-6093.82" r="3635.41" xlink:href="#radial-gradient-2"/></defs><g class="cls-1"><g id="Capa_1" data-name="Capa 1"><path class="cls-2" d="M1329.37,656.19c2.27-80.56,30.2-162.86,6.71-242.27-19.72-66.69-75-120.25-133.81-154.1-68.64-39.5-149.54-33.79-219-69.58-33-17-57.45-46.6-87.53-67.82C865,100.79,832.75,85.81,796,78.09c-62.43-13.13-132.33,0-189.49,26.48-33.31,15.4-65.59,32.55-100.15,45.14-34.11,12.43-70.52,17.59-104.82,29.74-56.3,20-105.42,58.32-142.26,104.84-16.8,21.23-20.19,49.75-23.89,75.62-.71,5-1.68,9.87-2.86,14.69-36.58,54.85-88.39,97.23-126.31,152.33C61.14,592.4,53.92,674.77,61.81,751.73,69.89,830.57,124,900.06,176.78,956c28.85,30.53,54.5,63.46,85.1,92.42,29,27.44,43.8,65.94,65.15,99,41.13,63.7,108.82,81.37,180.11,62.47,37-9.81,71.79-26.24,108.14-38,49.08-15.85,97.52-9,146.75,1.65,85.17,18.39,165.86,19.61,251.07.12,69.47-15.88,143.95-39.63,204.19-78.56C1361.17,1002.09,1325.3,800.63,1329.37,656.19Z"/><path class="cls-3" d="M1329.37,656.19c2.27-80.56,30.2-162.86,6.71-242.27-19.72-66.69-75-120.25-133.81-154.1-68.64-39.5-149.54-33.79-219-69.58-33-17-57.45-46.6-87.53-67.82C865,100.79,832.75,85.81,796,78.09c-62.43-13.13-132.33,0-189.49,26.48-33.31,15.4-65.59,32.55-100.15,45.14-34.11,12.43-70.52,17.59-104.82,29.74-56.3,20-105.42,58.32-142.26,104.84-16.8,21.23-20.19,49.75-23.89,75.62-.71,5-1.68,9.87-2.86,14.69-36.58,54.85-88.39,97.23-126.31,152.33C61.14,592.4,53.92,674.77,61.81,751.73,69.89,830.57,124,900.06,176.78,956c28.85,30.53,54.5,63.46,85.1,92.42,29,27.44,43.8,65.94,65.15,99,41.13,63.7,108.82,81.37,180.11,62.47,37-9.81,71.79-26.24,108.14-38,49.08-15.85,97.52-9,146.75,1.65,85.17,18.39,165.86,19.61,251.07.12,69.47-15.88,143.95-39.63,204.19-78.56C1361.17,1002.09,1325.3,800.63,1329.37,656.19ZM1047.64,394.38c-10.8,17.82-31.29,25.92-49.6,33.9-27.19,11.83-48.59,26-65.35,51.36-16.9,25.57-29.81,53.52-44.49,80.37-11.16,20.43-22.67,44.92-42.41,58.67-12.21,8.49-26.12,13.32-38.37,21.44-17.6,11.66-18.38,27.1-22.54,45.62-4.74,21-16.45,30.25-37.23,34.79-58.54,12.8-114.88,47.14-138,104.12,39.12-17.51,81.14-38.51,124.12-24.59a4.72,4.72,0,0,1,0,9c-52.37,16.39-103.11,77.75-116.4,130.33-5.79,22.94-7.15,89.68-45.3,86.66-22.72-1.8-42.28-16.17-63.69-22.85-29.36-9.17-61.62-13.72-91-1.45-14.58,6.08-29.46,22.58-46,20.08-21.56-3.25-22.51-36.26-47.5-35.47-18.19.56-34.84,5.52-50.7-6.72-15.62-12-28.44-26.9-42.31-40.82-35.39-35.54-77.12-68.82-107-109.24C84.9,776.9,75.8,704.46,84.92,641a297.9,297.9,0,0,1,12.93-54.31c14.68-42.53,43.45-78.72,75.36-109.77,16.75-16.3,37.7-27,56.79-40.14,28.89-19.91,24.8-45.85,24.5-77.28,0-3.81,5.36-6.59,8-3.3,13.81,17.14,18.27,37.93,23.4,58.66,7.3-38.71,16-84.13,53.38-102.26,10.47-5.08,33.12-18.93,45-14.06,15.37,6.28,25.15,20.6,37,31.89-6.4-20.78-14.73-40.93-20.4-62a4.76,4.76,0,0,1,3.28-5.76c20.42-7.25,28-33.1,48.69-38.71a78,78,0,0,1,24.31-2.21,133.11,133.11,0,0,0-12.84-13.2c-2.88-2.54-.93-6.67,2.09-7.83,13.33-5.09,28.06-9.17,40.06-17.19-8.37-.45-16.7.06-25.18.24-5.71.13-5.79-7.33-1.22-9.21,75-30.94,142.87-78,226.24-82.57,28.24-1.57,64.18,1.29,80.89,27.67,11.59,18.29.68,57.74-6.45,76-1.5,3.85-8.15,5-9,0-2.45-13.86-3.48-27.83-4.34-41.83-3.14,14-7,27.84-13.29,41-1.12,2.32-4.35,2.85-6.41,1.66-16-9.13-31.93-18.41-47.64-28,1.53,3.61,3,7.22,4.61,10.83s-2.19,9.53-6.43,6.39c-16.16-11.91-59.8-29-76.14-8.65-14.9,18.58,15,46.11,21.75,62.9a4.61,4.61,0,0,1-2.16,5.28c-28.39,13.85-70.91,17.48-87.64,47,31,10.66,69.21,3.6,100.29-1.72q22.26-3.82,44.44-8.13c7.23-1.42,17.35-4.71,24.33-.6,18,10.64,3.65,40.9-4,53.16-11.37,18.35-23.45,35.64-32.27,54.39a30.11,30.11,0,0,0-.33,4.31c34.47-12.49,53.45-48.15,82.65-68.9,2.56-1.82,6,.15,6.87,2.82,2.42,7.8,2.28,16.21,2.74,24.29.33,5.8.38,12,1.58,17.66,1.93,9.16,10,7.15,12.76-.77,5.75-16.72,7.22-35.69,15.88-51.34,4.43-8,11.4-16.34,21.51-11.71,16,7.31,24.86,20.78,42.45,22.79-3.28-9.57-9.12-17.22-15.91-25.26a4.69,4.69,0,0,1,6.65-6.61c29.67,25.72,63.23,47.3,100.94,59.11,27.74,8.69,57.29,15.08,81.27,32.3C1048,389.43,1049.05,392.05,1047.64,394.38Z"/><path class="cls-4" d="M256.94,423.51c-21.57,16.15-38.3,37.17-60.33,53.32a306.39,306.39,0,0,0-49.21,45.09c-34.19,38.84-50.92,86.38-55.52,137.23C87,713.54,102,766.42,130.84,812.08c15.95,25.28,36.48,46,56.77,67.55,16,17,30,36.33,49.72,49.29,1.47,1,4.67-2.06,3.36-3.48C174.3,852.75,107.82,779.29,104,675.82c-2.06-55.74,17-106.92,51.3-150.23,14.87-18.75,34.13-34,52.47-49.23,18.8-15.6,32-35.81,50.46-51.39C259.68,423.72,258.42,422.4,256.94,423.51Z"/><path class="cls-5" d="M481.63,184.36c-4.67,1.63-19.91,0-30.5,2.16-3.38-7.1-20.37-1-25.95,1.06-31.08,11.44-61.52,22.85-89.62,40.66a164.37,164.37,0,0,0-33.87,28.17C285.61,270,268.37,288,267.78,305.14c0,.05,0,.08,0,.12-.54,3.72,0,7.78.39,11.33.64,5.34-1.43,10.82-.24,16.27.51,2.36,4.21-.7,4.31-2.15.36-5.08,2.51-10.67,4.11-15.51a16.42,16.42,0,0,0,.56-4.4c5.7-.35,13.06-2.54,19.12-4.7.22,1.64.57,3.37,1,5.23a147.36,147.36,0,0,1,2.17,16.51c.54,5.08,2.74,13.2,1.37,18.29-.85,3.14,3.58,1.55,4.39-.17,3.47-7.41,2.73-17.35,3.54-25.36a68.48,68.48,0,0,0,.05-15,27.85,27.85,0,0,1,0-4.48c19.37-8.05,38-19.56,55.66-32,.4.61.81,1.22,1.19,1.85,2.73,4.49,5.46,8.83,7.83,13.56,1,1.93,4.4-.62,3.79-2.32a113.67,113.67,0,0,0-5.62-13.71c-.54-1.08-1.05-2.24-1.54-3.42L373,262.8c2.17,3.94,4.82,7.77,6.53,11.29,4.55,9.35,8.66,19.2,14.86,27.62,1.16,1.57,4.22-1.25,3.75-2.77-3.2-10.29-4.71-20.87-8.54-31a143.69,143.69,0,0,0-5.51-13.36c4.08-3.09,8.13-6.17,12.1-9.22,3.55-2.73,7-5.59,10.45-8.5a326.92,326.92,0,0,0,28.81-23.61,12.13,12.13,0,0,0,1.84-2.21c2.62.46,5.49.45,7.87.89,6,1.11,11.85,3.1,17.77,4.58,1.63.4,4.77-3,2.69-4-6.23-2.88-14.63-8.6-22.45-9.76.36-.34.74-.73,1.11-1.1a19.52,19.52,0,0,0,2.58-.21c4.3-.54,8.72,1.16,13,1.73.83.11,2.61-1.77,1.44-2.14-3.81-1.24-7.57-3.06-11.49-4,10.75-2.83,22.77-3.56,32.26-9.48C483.6,186.62,484.37,183.41,481.63,184.36Zm-43.31,12.89c-.86.06-2.05,1.1-1.65,1.86-2.5-4.71-88.67,44-94.5,48.06-18.95,13.15-41.31,27-57.52,44.16a53,53,0,0,1,.28-8.39c.17-.25.36-.47.53-.71,28-32.41,60.34-56,100.65-72.09,13.93-5.55,28-10.68,42.11-15.85C439.62,190.09,441.26,192.39,438.32,197.25Z"/><path class="cls-6" d="M516,1115.52c-7.18-33.41-52.19-67.24-85.93-58.38a3.52,3.52,0,0,0-.49.23c-16.53-1.73-32.78,1-34.13,16.59-3,33.85,51.51,61.3,77.85,68.75C498.71,1149.9,522.43,1145.65,516,1115.52Z"/><path class="cls-7" d="M1145.88,538.31c-48.82,19.79-102.72,63.86-108.28,119.76a42.39,42.39,0,0,0-5.67-7.46c.68-14.83,1.52-29.5,5.85-44.15.54-1.83-2.15-.66-2.55.41a155.11,155.11,0,0,0-9,38.76c-9.81-7-22.32-9-36.49-8.34a107,107,0,0,0-30.1,2c-2.08-8.9-3.73-17.76-3.69-27.93,0-14.49,3-42.27,13.43-53.84,1.57-1.74-.57-2.68-2-1.49-13.86,11.35-17.4,35.52-20,52.18-1,6.72-2.36,21.85-.41,34.39-15.38,4.82-30.3,12.33-45.13,21.05a416.54,416.54,0,0,0-55.79,39c-1-1-2.18-2-3.2-3.13-3.31-3.52-6.67-6.91-9.83-10.59a66.84,66.84,0,0,0-10.33-9.85c-3.39-2.56-7.39-4.41-10.39-7.41-1.27-1.26-4.26,1.35-3.15,2.76,2.16,2.75,5.05,4.55,7.52,7a118.12,118.12,0,0,1,11,12.24c3.24,4.21,6.6,8.28,9.94,12.41.68.85,1.27,1.58,1.85,2.23-1.78,1.56-3.44,3.24-5.19,4.84-1.15-1-2.25-2-3.3-3.07-2.9-3-5.55-6.14-9-8.53-1.06-.74-3.54,1.63-2.49,2.58,3.24,2.92,5.56,6.67,8.18,10.12.71.95,1.5,1.93,2.34,2.86-6.86,6.5-13.55,13.19-19.81,20.35-12.48-4.68-29.93-3.43-40.62-3-28.17,1.16-50.35,8.52-75,21.08-1,.54-1.36,2.63.25,2,26.82-10.57,50.4-15.73,79.45-14.79A110.9,110.9,0,0,1,802,747.24c-.4.5-.83,1-1.23,1.47-16.51,20.95-30.75,47.35-35.48,74.48-14.56,3.06-30.66,11.41-39.89,19a157.52,157.52,0,0,0-25.12,26.36c-5.84,7.69-8.34,22.11-15.1,28.37-.7.65-.84,2.19.53,1.64,10-4.05,17.72-24,24.31-31.53,15.31-17.61,33.35-26.55,53.94-33.45a102.37,102.37,0,0,0-.32,11.21,45.53,45.53,0,0,0,4.89,19.64c-4.16,1.64-8.35,5.49-10.66,7.93-5.34,5.66-9.32,12.39-14.53,18.16-1.73,1.92.7,3.23,2.3,1.7,4-3.86,7.52-8.22,11.23-12.39a60.39,60.39,0,0,1,7-6.62c2.32-1.89,5.12-2.58,7.66-3.87a47.52,47.52,0,0,0,13,12.29,20.09,20.09,0,0,0-7.75,8.31,24.15,24.15,0,0,1-2.53,4.11c-.58.77-1.72,1.73-1.08,2.8l0,.07c.19.32.77.35,1.08.29,2.31-.46,3.92-3.14,5.2-4.91,2.47-3.43,5.52-5.67,8.59-8.52,14.06,7.87,32.06,10.83,48,10.89,30.18.12,64.08-3.2,95.67-12.38.53,4.13,2.62,8,4.73,11.83,3.1,5.64,5,11.79,9.57,16.5,1.21,1.26,4.4-1.19,3.6-2.66-2.84-5.21-3.53-11.13-4.65-16.89-.62-3.24-2.16-6.34-3.12-9.52-.23-.76-.42-1.51-.61-2.23,40.4-13.52,75.87-37.38,93.09-77,9.2-21.16,14-43.91,15.14-66.87a35.18,35.18,0,0,1,5.42-2.54c2.75-1,5.66-1.46,8.47-2.23,1.48-.4,3.78-3.88,1.05-3.48-5.19.75-10.36,1-14.72,3.4a221.12,221.12,0,0,0-.46-22.3l0,0c4.18-4.1,10.25-6.65,15.61-8.75,3.78-1.49,7.42-3.35,11.11-5,1.92-.87,3.88-1.63,5.88-2.31-1.52.56,13.18-4.22,6-.63-.4.19-.5,1,.1.74a29.85,29.85,0,0,0,5.32-2.63c.44-.25,1.08-1.1.45-1.49-9.16-5.66-25,2.75-33.78,6.2a77.75,77.75,0,0,0-11.49,5.64c-.74-6.8-1.75-13.55-3.07-20.23-.33-1.6-.7-3.08-1.08-4.58,8.36-27.27,13.56-53.14,30.91-77,18.75-25.75,45.17-39.91,71.07-56.87C1147.71,540.48,1148.5,537.25,1145.88,538.31ZM1024,794.81c-23,71.35-110.11,81.51-174.33,87.05-34,2.94-69.57-7.24-73.88-44.53.49.41,1,.78,1.58,1.16,13.81,16.21,52.19,18.41,69.17,19.34,29.81,1.62,59-15.73,83.75-30.44,23.71-14.12,58.28-32.88,73.6-56.67,10.18-15.8,14.14-32.86,18.34-51.06,3.24-14,2.54-30.07,4.74-44.45,1.71,4.79,3,9.46,4.08,13.41C1040.19,723.55,1034.85,761.06,1024,794.81Z"/><path class="cls-8" d="M1271.81,384.86c.51-13.6-12.91-31-18.51-40.65-16.69-28.65-40.48-53.76-70.18-68.81-11.7-5.92-34.74-14-49.35-8.31-11.12-.22-24,4.63-34.61,6-17.21,2.29-35.26-1.07-52.48-2.3-.66,0-2.52,1.3-1.63,2,19.23,15.16,50.76,10.27,75.7,3.26-2.8,4.44-2.77,10-1.23,15.8-11.85,3.07-23.47,9.48-35.34,11-.87.11-2.47,2.32-1,2.34,12.93.12,25.72-4.17,38.41-7.19,4.21,10.14,11.59,20.23,15.61,26.06a160.13,160.13,0,0,0,14.21,17.61c-1,.83-1.89,1.69-2.88,2.48a7.74,7.74,0,0,1-1.5,1c-.09,0-1.42.76-.7.44-.5.22-1.07.75-.93,1.36.4,1.78,4.36-.59,8-3.21.89.93,1.81,1.83,2.7,2.76a39,39,0,0,1-6.81,4.24c-1.56.72-2.52,4-.1,3a56.48,56.48,0,0,0,9-5.11c2.25,2.24,4.54,4.45,6.93,6.59-5.33,3.12-10.47,6.64-15.46,9.89a127.28,127.28,0,0,0-13.41,10.67c-3.91,3.38-8.12,9.69-12.77,12.07-.45.22-1.35,1.66-.29,1.69,2,0,2.3-.51,4-2,5.65-5.15,11.74-9.86,17.71-14.66,7.33-5.9,16-9.78,24.23-14.17,5,4.32,10.28,8.46,15.67,12.35-.77.81-1.53,1.62-2.23,2.38-7.68,8.33-14.08,17.92-20.49,27.23-1.16,1.68.85,2.14,1.85.85,6.09-7.84,12.23-15.62,19-22.87a70.49,70.49,0,0,1,5.36-5.09c6.23,4.33,12.62,8.32,19,12-4.33,6.9-7,15.38-10.71,22-1.13,2,1.76,1.46,2.54.26,3-4.6,5.49-9.44,8.13-14.22a60.81,60.81,0,0,1,3.83-5.94c3.69,2,7.38,4,11.07,5.78a98.72,98.72,0,0,0,19,7.1c-10,10.74-14.68,28.84-16.79,42.85-.32,2.12,3.15.19,3.51-1a134.5,134.5,0,0,1,10-23.3c2.93-5.51,7.38-11.37,8.87-17.51a32.34,32.34,0,0,0,10.4,0c-6.19,18.2-6.15,40.62-5.22,57.93.13,2.42,3.62.13,3.75-1.44,2-25.08,10.55-47.13,16.25-71.23A3.24,3.24,0,0,0,1271.81,384.86Zm-20.53,5.71a19.83,19.83,0,0,1,.73-2.73,1.73,1.73,0,0,0-.71-2.15,2.31,2.31,0,0,0-.69-.22c1.1-14.49-45.9-61.82-50.57-65.61-7.46-6.07-53.91-39.71-65.78-32.42-.21-7.17,3.3-12.38,16.14-10.07,19.22,3.45,35.66,12.61,50.85,24.57,24.27,19.1,42.83,47.56,56,75.16C1262.39,387.91,1258.37,391,1251.28,390.57Z"/><path class="cls-9" d="M926.45,292.67c-27.75-10.35-54.69-21.81-82.61-30.93,1.41-5.59-2.13-11.43-7.44-16.74,1.75-.51,3.37-1,4.81-1.29,21.2-4.89,43-7.4,63.74-14.25,1.35-.45,2.83-3.79.56-3.21-18.1,4.63-37.06,6.07-55.5,8.93-6.92,1.07-13.8,2.42-20.68,3.72a176.53,176.53,0,0,0-17.08-11.25c2.65-1.94,5.11-4.12,6.79-5.25,7.19-4.82,15-8.81,21.2-15,1.4-1.39.19-2.86-1.35-1.54-9.36,8.07-21.64,12-31.89,18.93a61.07,61.07,0,0,0-5.72-2.24c.37-.51.74-1,1.14-1.5,2.59-3.18,5.35-6.26,7.82-9.55,1.67-2.23-1.14-2.86-2.5-1.16-3.06,3.82-6.51,7.34-9.69,11.08-2.47-.74-5-1.39-7.53-1.9a110.45,110.45,0,0,0-20.78-6.7c.28-7.57-1.14-15.75-1.5-22.32-.83-15.2,1.28-31.21-2.84-46-.41-1.51-2.94.45-2.73,1.67,2.33,13.57-.31,28-1.3,41.57-.56,7.72-.29,15.58-.57,23.38-5.1-.83-10.26-1.39-15.34-1.74-1.14-5.95-5.27-11.62-7.45-17.16-.73-1.85-4,.57-3.49,2.14.93,3.08,2.08,6.07,3.27,9.06.72,1.84,1.28,3.75,1.88,5.65a126.43,126.43,0,0,0-29.1,2c-2-1.46-3.94-2.94-6-4.35-7.64-5.35-19.92-10.11-24.09-19-.85-1.81-4,.57-3.49,2.14,2.71,8.5,12.83,15.72,19.5,21.14,1.19,1,2.4,2.13,3.61,3.33a31.61,31.61,0,0,0-7.25,4.21c-4.64-1.33-9.68-1.87-14.27-2.75-10.17-2-20.32-2.75-30.35-5.55-1-.29-2.88,1.65-1.69,2.07a167.92,167.92,0,0,0,23.23,6.13c6.26,1.26,12.68,3.8,19.11,5-3.07,7.22,4.08,15.24,13.4,22-1.16.44-2.32.87-3.46,1.36-4.29,1.88-9.48,3.31-12.66,7-1.22,1.41,0,2.5,1.52,1.73,6.14-3.23,13-4.82,19.74-6.56,1.36.87,2.74,1.71,4.11,2.51-8.3,3.39-16.51,7.09-24.73,10.16-17.19,6.43-36.53,17.28-54.44,20.93-1.33.28-3.11,3.18-.88,2.91,13.84-1.66,27.82-8.76,41.13-13,15.86-5.05,31.79-10.28,47.27-16.51,2,1,3.79,1.83,5.4,2.53a169.32,169.32,0,0,0,31.6,10.13c-1.19,3.59-2.15,7.29-3.1,11-2.69,10.54-5.54,21-7,31.75-.35,2.58,4.07.43,4.44-1.23,3-13.85,8.64-26.78,13.25-40A194.52,194.52,0,0,0,795,272.93c1.54,2.66,3.6,5.12,5.15,7.66.77,1.27,3.55-1,3-2.24-.79-1.85-1.61-3.63-2.41-5.42.8,0,1.6,0,2.41,0,1.07,0,2.34,0,3.71,0,1.32,1.24,2.7,2.41,3.85,3.54,4.19,4.08,8.52,8,12.92,11.87,1.62,1.42,5.27-1.68,3.84-3.35q-5-5.88-9.8-12c5.75-.11,11.86-.62,16.77-2.36,10.63,2.38,21.36,4.44,31.71,7.33,19.53,5.48,38.55,12.87,58.19,17.82C925.62,296.13,928.09,293.28,926.45,292.67Z"/><path class="cls-10" d="M1152.36,1039.13c-18.7,7.16-37.06,15.43-55,24.28-18.26,9-38.57,18.71-56,31.21-14.19,6.16-28.28,16.7-34.82,28.65-10.9,19.9,22,18.3,33.27,17.06,36.08-4,72.28-19.77,103.87-36.71,23.78-12.75,59.85-34.19,73.52-58.2C1239.48,1006.28,1163.89,1034.71,1152.36,1039.13Z"/><path class="cls-11" d="M371.11,597.33c-23.33,6.16-52.27,12.69-76.37,11.85-16.95-.6-32.76-2.34-49.62-1.83-.78-18.31-4.26-35.89-11.34-51.38,6.43-1.82,12.77-2.35,19.41-3.13,8-.94,16.07-3.71,23.89-5.53,1.57-.37,3.71-3.92,1.06-3.49-8.67,1.41-17.35,3.27-26.09,4.19-7,.74-13.93.64-20.1,4.32-.42-.83-.85-1.64-1.25-2.47,2-.3,4.06-.5,6.09-1a33.66,33.66,0,0,0,9.21-3.54c1.91-1.1,1.64-3.9-.82-2.63a27.3,27.3,0,0,1-12.55,2.83,14.33,14.33,0,0,0-4.07.5,38.89,38.89,0,0,0-4.59-6,31,31,0,0,0,5.08-.35c8.11-1.31,15.71-6.84,23-10.27,11.17-5.28,23.52-13.85,28.41-25.57.63-1.51-1.69-.92-2.2-.22C269.42,515.83,241,527.23,226.3,526c-9-.79-16,.56-21.76,5.89-4.17.57-8.33,2.72-12.11,7-9.91,11.1-16.33,23.61-20.78,36.89-27.32,47.78-37.25,117-28,165.81,2.33,12.29,8.6,38.67,25.27,39.17,6.44,4.42,16.93,7.64,19.84,8.83a292.16,292.16,0,0,1,27.9,13.61c13.37,7.23,18.13,18.14,27.54,28.89,1,1.2,3.41-1,3-2.23a105.78,105.78,0,0,0-10.74-25c-4.05-6.63-16.38-11.06-22.88-14.29a239.58,239.58,0,0,0-29-11.66c-.55-.19-1.83-.49-3.44-.89,10.76-5,19.21-16,25.89-27.34,3.79,1.23,7.63,2.36,11.29,3.6,8.43,2.83,14.77,7.88,22.48,12,1.47.78,4.25-2.1,2.58-3.18-7.38-4.72-12.94-10-21.13-13.62-3.87-1.72-7.76-3.43-11.69-5,2.77-5.17,5.21-10.2,7.33-14.52.79-1.61,1.56-3.3,2.33-5,4.86,1.12,9.72,2.18,14.61,3.21,14.68,3.12,30,7.83,44.77,9.56,1.9.22,5-3.5,2.25-4.11-7.66-1.7-14.84-5.89-22.32-8.3C252.94,723,246,721.7,239.28,720c-4.44-1.15-9.61-3.22-14.82-4.7a289,289,0,0,0,15.35-49.81c.92-.72,2.54-2.54,1-3a1.26,1.26,0,0,1-.36-.24,260.93,260.93,0,0,0,3.92-27.81c4.09.12,8.2.19,12.28.62,7.85.84,15.53,3,23.44,3.23,1.51,0,4.1-3.12,1.85-3.38-7.59-.86-14.87-3.71-22.39-5.13a78.29,78.29,0,0,0-14.7-1.2c.21-3.48.36-6.95.4-10.4,2.78.44,6,.36,10.17.65,13.38,1,27.11,3,40.52,2.74,23.47-.42,53.2-12.49,74.63-21.11C371.75,599.92,373.34,596.73,371.11,597.33ZM226.23,562.65c-14.27,32-32.54,60.38-40.46,95.1-7,30.78-2.06,68.31,5.11,98.81-9.79,9.73-20.9,12.84-29.1-5.77-5.79-13.13-6.45-28.51-6.52-43.07a2.08,2.08,0,0,0,1.28-.65s.06,0,.09-.06a40,40,0,0,0,10.64-1.21,4.7,4.7,0,0,0,3.46-3,1.46,1.46,0,0,0-.73-1.94l.06-.1c-4.57-1.29-10.33-.14-14.48-3a2.44,2.44,0,0,0-.34-.14c0-5.1.1-10.42.29-15.83a49.35,49.35,0,0,0,10.34-3.51c2-.9,3.53-5,.13-3.89a33.35,33.35,0,0,1-10.21,2,351.85,351.85,0,0,1,6.27-52.62c.12,1,2-.06,2.23-.8A477.15,477.15,0,0,1,186.5,561c12.64-29.29,30.44-16.35,40.85.38A3.41,3.41,0,0,0,226.23,562.65Z"/><path class="cls-12" d="M172.14,650.37c-1.87,0-3.72.16-5.59.08-2.29-.1-3.17-1.12-5-2-1.24-.62-2.8.88-3.14,1.94-1.92,6,9.21,4,12.13,3.81C172.07,654.08,174.47,650.39,172.14,650.37Z"/><path class="cls-13" d="M623.84,1095.39l-.05,0c-1.09-16.07-26.82-26.34-37.16-11.11-4.2,6.19-2.33,12,2.16,16.11a28.57,28.57,0,0,0,13,11.67c8.5,3.67,18.17-1.64,21.13-10.13a16.49,16.49,0,0,0,.86-4.57C624.37,1096.63,624.68,1095.77,623.84,1095.39Z"/><path class="cls-14" d="M353.64,1043.1c-8.71-9.12-17-20.77-31.21-16.74-9,2.56-12.28,10.94-10,18.53a8,8,0,0,0,1,5.29c7.15,12.14,31.21,27.93,44.36,17.1C367.07,1059.7,359.94,1049.68,353.64,1043.1Z"/><path class="cls-15" d="M1170.85,821.78c-5.28.36-10.35,4.12-14.07,7.65-3.92,3.71-7.47,8.39-8,13.92-.12,1.3.64,3.19,2,3.6,4.77,1.39,9.1.25,13.25-2.38,3.46-2.2,9.86-8.07,9-13a23.87,23.87,0,0,0,2-5.08C1175.85,823.32,1174,821.56,1170.85,821.78Z"/><path class="cls-16" d="M1282.17,653.68c-6.77-11-21.24-9.54-29.89-1.68-7.51,6.84-11.68,15-15.37,23.68-7.36,11.39-12.29,25-13.12,32.85a52.14,52.14,0,0,0,2,20.48c.15,1.1.27,2.22.48,3.31,2.44,12.77,16.87,21.59,28.38,13.86,9.33-1.73,17.39-7.33,23.79-15C1295.25,710.9,1295.54,675.44,1282.17,653.68Z"/><path class="cls-17" d="M1253.76,579.71c-1.27-1.87-3.41-1.83-5.41-1.39-3.31.72-6.84,3.78-6.58,7.41a22.11,22.11,0,0,0-.74,3.5c-.26,1.83,1.68,2.62,3.14,2.38a7.58,7.58,0,0,0,5-3.7c.16-.24.29-.52.44-.77a13.34,13.34,0,0,0,1.23-.65C1252.89,585.21,1255.44,582.18,1253.76,579.71Z"/><path class="cls-18" d="M1009.51,307.49c-5.46-6.14-15.56-7.32-21.66-1.47-1-.12-2.48,1.31-2.25,2.31,0,.11.07.23.1.34-1.63,2.78-1.76,5.93,1.56,8a16.72,16.72,0,0,0,3.64,1.66,15.54,15.54,0,0,0,11.17,5.09C1010.34,323.53,1015,313.72,1009.51,307.49Z"/><path class="cls-4" d="M760.72,108.59c-82.33-19.76-167.21,18.11-239,56.66-1.5.81-2,3.63.36,2.86,37.54-12.31,73.32-29.83,111.15-42.05,42.11-13.59,82.29-19,126-14.83C760.48,111.34,762.47,109,760.72,108.59Z"/></g></g></svg>