<svg xmlns="http://www.w3.org/2000/svg" xmlns:xlink="http://www.w3.org/1999/xlink" viewBox="0 0 1063.38 1215.3"><defs><style>.cls-1{isolation:isolate;}.cls-2{opacity:0.9;}.cls-2,.cls-20{fill:url(#linear-gradient);}.cls-3{fill:url(#radial-gradient);}.cls-4{fill:#a998ab;mix-blend-mode:multiply;}.cls-20,.cls-22,.cls-23,.cls-4,.cls-5{opacity:0.6;}.cls-5{fill:#4b5da7;}.cls-21,.cls-5{mix-blend-mode:color-dodge;}.cls-6{fill:url(#radial-gradient-2);}.cls-7{fill:url(#radial-gradient-3);}.cls-8{fill:url(#radial-gradient-4);}.cls-9{fill:url(#radial-gradient-5);}.cls-10{fill:url(#radial-gradient-6);}.cls-11{fill:url(#radial-gradient-7);}.cls-12{fill:url(#radial-gradient-8);}.cls-13{fill:url(#radial-gradient-9);}.cls-14{fill:url(#radial-gradient-10);}.cls-15{fill:url(#radial-gradient-11);}.cls-16{fill:url(#radial-gradient-12);}.cls-17{fill:url(#radial-gradient-13);}.cls-18{fill:url(#radial-gradient-14);}.cls-19{fill:url(#radial-gradient-15);}.cls-21{opacity:0.7;fill:url(#linear-gradient-3);}.cls-22{fill:#fdf4aa;}.cls-23{fill:#ef7c5b;}</style><linearGradient id="linear-gradient" x1="736.83" y1="408.05" x2="303.6" y2="1012.07" gradientTransform="translate(12.24 -7.44) rotate(0.14)" gradientUnits="userSpaceOnUse"><stop offset="0.46" stop-color="#f7c7b1"/><stop offset="1" stop-color="#f6a01f"/></linearGradient><radialGradient id="radial-gradient" cx="452.43" cy="-19816.44" r="1604.05" gradientTransform="translate(21.36 6893.07) rotate(0.15) scale(0.31)" gradientUnits="userSpaceOnUse"><stop offset="0.41" stop-color="#6488aa"/><stop offset="0.91" stop-color="#a06e7f"/></radialGradient><radialGradient id="radial-gradient-2" cx="1796.15" cy="-19034.76" r="2113.75" gradientTransform="translate(21.36 6893.07) rotate(0.15) scale(0.31)" gradientUnits="userSpaceOnUse"><stop offset="0.41" stop-color="#33495d"/><stop offset="0.91" stop-color="#a06e7f"/></radialGradient><radialGradient id="radial-gradient-3" cx="1796.28" cy="-19034.77" r="2113.85" xlink:href="#radial-gradient-2"/><radialGradient id="radial-gradient-4" cx="1796.15" cy="-19034.82" r="2113.69" xlink:href="#radial-gradient-2"/><radialGradient id="radial-gradient-5" cx="1796.17" cy="-19034.84" r="2113.74" xlink:href="#radial-gradient-2"/><radialGradient id="radial-gradient-6" cx="1796.15" cy="-19034.79" r="2113.76" xlink:href="#radial-gradient-2"/><radialGradient id="radial-gradient-7" cx="1796.19" cy="-19034.86" r="2113.91" xlink:href="#radial-gradient-2"/><radialGradient id="radial-gradient-8" cx="1796.14" cy="-19034.77" r="2113.7" xlink:href="#radial-gradient-2"/><radialGradient id="radial-gradient-9" cx="1796.98" cy="-19034.77" r="2114.92" xlink:href="#radial-gradient-2"/><radialGradient id="radial-gradient-10" cx="1796.47" cy="-19034.74" r="2114.15" xlink:href="#radial-gradient-2"/><radialGradient id="radial-gradient-11" cx="1796.3" cy="-19034.79" r="2113.91" xlink:href="#radial-gradient-2"/><radialGradient id="radial-gradient-12" cx="1796.2" cy="-19034.83" r="2113.79" xlink:href="#radial-gradient-2"/><radialGradient id="radial-gradient-13" cx="1796.2" cy="-19034.83" r="2113.85" xlink:href="#radial-gradient-2"/><radialGradient id="radial-gradient-14" cx="1796.04" cy="-19034.83" r="2112.49" xlink:href="#radial-gradient-2"/><radialGradient id="radial-gradient-15" cx="1796.19" cy="-19034.71" r="2114.05" xlink:href="#radial-gradient-2"/><linearGradient id="linear-gradient-3" x1="658.58" y1="566.47" x2="239.94" y2="1039.27" gradientTransform="translate(12.24 -7.44) rotate(0.14)" gradientUnits="userSpaceOnUse"><stop offset="0.46" stop-color="#f7c7b1"/><stop offset="1" stop-color="#563812"/></linearGradient></defs><g class="cls-1"><g id="Capa_1" data-name="Capa 1"><path class="cls-2" d="M655.29,802.58c5.54-21.92,15.12-42.38,24.48-62.86,10.57-23.12,19.36-47.05,28.57-70.74,8.6-22.13,16.9-44.42,26.67-66.07,8.78-19.46,18-38.79,25-58.95-32.72,44.19-113.62,166.39-112.63,164.47,5.33-10.34,11-20.5,16.8-30.53,19.59-35.37,39.4-70.63,58-106.55,23.42-45.32,44.1-92,66.74-137.72C822.8,365.1,858.19,297.25,890.72,228c-41.4,62.55-128.1,187.86-127,186,44.94-79.71,84.75-162.43,135.07-239,24.81-37.73,51-75,74.87-113.51-6.33,6.34-11.8,13.4-17.82,20.11-11.07,12.33-24.92,22.91-36.76,34.6-20,19.72-117,121.93-145.62,153.31C736.54,310,697.09,348.19,659.07,387.6c-16.41,17-94,92-93.41,90.48,15.81-37.13,47-64,69-97.23-4,3.36-8.07,6.69-12.13,10-82.12,76.68-147.43,169.42-226.42,249.21-1.33,1.34,27.09-46,41.78-68-15.79,15-31.61,30.48-45.44,47-13.55,16.23-45.71,45.92-44.59,44.56C373.42,632.36,399,601,422.18,568q-38.32,35.44-75.48,72.32c-46.41,45.93-95.6,89-142,134.85-37.76,37.34-76.29,77.76-98.95,126.39C83,950.4,84,1003.77,109.85,1051.25c23.49,43.1,66.24,72.93,110.5,91.91a295.21,295.21,0,0,0,138.8,22.51c118-9.29,179.65-55.86,232.31-152.47,18.71-34.32,55-123.14,70.9-158.82q9.43-21.15,18.72-42.36c16.91-47.73,35.54-95.22,47.18-144.53C702.62,711.71,654.83,804.37,655.29,802.58Z"/><path class="cls-3" d="M559.81,940.34c.81-28.82,10.8-58.27,2.4-86.68-7.06-23.86-26.83-43-47.87-55.13-24.56-14.13-53.5-12.09-78.37-24.89-11.81-6.08-20.55-16.67-31.31-24.27A94.5,94.5,0,0,0,369,733.51c-22.34-4.69-47.34,0-67.79,9.48-11.92,5.51-23.47,11.65-35.83,16.15-12.21,4.44-25.23,6.29-37.5,10.64-20.15,7.14-37.72,20.86-50.9,37.51-6,7.59-7.22,17.79-8.55,27.05-.25,1.78-.6,3.53-1,5.25-13.08,19.63-31.62,34.79-45.19,54.5-16.12,23.43-18.7,52.9-15.88,80.43,2.89,28.21,22.24,53.07,41.13,73.06,10.32,10.92,19.5,22.7,30.45,33.06,10.37,9.82,15.67,23.6,23.31,35.43,14.71,22.78,38.93,29.1,64.43,22.34,13.23-3.5,25.69-9.38,38.69-13.58,17.56-5.67,34.89-3.21,52.51.59,30.47,6.58,59.33,7,89.82,0,24.85-5.68,51.5-14.18,73.05-28.1C571.19,1064.09,558.35,992,559.81,940.34Z"/><path class="cls-4" d="M559.81,940.34c.81-28.82,10.8-58.27,2.4-86.68-7.06-23.86-26.83-43-47.87-55.13-24.56-14.13-53.5-12.09-78.37-24.89-11.81-6.08-20.55-16.67-31.31-24.27A94.5,94.5,0,0,0,369,733.51c-22.34-4.69-47.34,0-67.79,9.48-11.92,5.51-23.47,11.65-35.83,16.15-12.21,4.44-25.23,6.29-37.5,10.64-20.15,7.14-37.72,20.86-50.9,37.51-6,7.59-7.22,17.79-8.55,27.05-.25,1.78-.6,3.53-1,5.25-13.08,19.63-31.62,34.79-45.19,54.5-16.12,23.43-18.7,52.9-15.88,80.43,2.89,28.21,22.24,53.07,41.13,73.06,10.32,10.92,19.5,22.7,30.45,33.06,10.37,9.82,15.67,23.6,23.31,35.43,14.71,22.78,38.93,29.1,64.43,22.34,13.23-3.5,25.69-9.38,38.69-13.58,17.56-5.67,34.89-3.21,52.51.59,30.47,6.58,59.33,7,89.82,0,24.85-5.68,51.5-14.18,73.05-28.1C571.19,1064.09,558.35,992,559.81,940.34ZM459,846.67c-3.86,6.38-11.19,9.28-17.74,12.13-9.73,4.23-17.38,9.3-23.38,18.38S407.23,896.32,402,905.93c-4,7.31-8.12,16.07-15.18,21-4.37,3-9.34,4.77-13.72,7.67-6.3,4.17-6.58,9.7-8.08,16.32-1.69,7.52-5.87,10.82-13.31,12.45-20.94,4.58-41.1,16.86-49.36,37.25,14-6.27,29-13.78,44.4-8.8a1.69,1.69,0,0,1,0,3.23c-18.74,5.87-36.89,27.82-41.65,46.63-2.07,8.21-2.55,32.08-16.21,31-8.12-.64-15.12-5.78-22.78-8.17-10.5-3.28-22-4.9-32.55-.52-5.21,2.18-10.54,8.08-16.45,7.18-7.72-1.16-8.06-13-17-12.69-6.51.21-12.46,2-18.14-2.4s-10.17-9.62-15.13-14.6c-12.66-12.72-27.6-24.62-38.29-39.09-14-18.86-17.2-44.77-13.94-67.49a106.46,106.46,0,0,1,4.62-19.43c5.25-15.22,15.55-28.16,27-39.27,6-5.83,13.48-9.65,20.31-14.36,10.34-7.12,8.88-16.4,8.77-27.65,0-1.36,1.92-2.35,2.87-1.18,4.94,6.13,6.53,13.57,8.37,21,2.6-13.85,5.71-30.1,19.09-36.59,3.75-1.81,11.86-6.77,16.11-5,5.49,2.25,9,7.37,13.24,11.42-2.28-7.44-5.26-14.65-7.3-22.18a1.71,1.71,0,0,1,1.18-2.06c7.3-2.6,10-11.85,17.42-13.86a28,28,0,0,1,8.69-.78,47.4,47.4,0,0,0-4.58-4.72,1.69,1.69,0,0,1,.75-2.8c4.76-1.83,10-3.28,14.32-6.16-3-.16-6,0-9,.09-2,0-2.07-2.62-.44-3.3,26.83-11.06,51.12-27.88,81-29.54,10.1-.56,23,.46,28.94,9.9,4.15,6.55.24,20.66-2.31,27.19-.54,1.37-2.92,1.79-3.23,0a132.33,132.33,0,0,1-1.56-15A67.67,67.67,0,0,1,354,775.25a1.69,1.69,0,0,1-2.3.59c-5.73-3.26-11.42-6.58-17-10q.81,1.93,1.65,3.87c.58,1.34-.78,3.41-2.3,2.29-5.78-4.26-21.39-10.39-27.24-3.1-5.33,6.65,5.36,16.5,7.79,22.51a1.66,1.66,0,0,1-.78,1.89c-10.16,5-25.37,6.25-31.36,16.83,11.11,3.81,24.77,1.28,35.88-.62,5.31-.92,10.62-1.87,15.9-2.91,2.59-.5,6.21-1.68,8.7-.22,6.46,3.81,1.31,14.64-1.41,19-4.06,6.56-8.39,12.75-11.54,19.45a9,9,0,0,0-.12,1.54c12.33-4.46,19.12-17.22,29.57-24.64a1.68,1.68,0,0,1,2.46,1c.86,2.79.82,5.8,1,8.68a42.9,42.9,0,0,0,.56,6.32c.69,3.28,3.59,2.56,4.57-.27,2.06-6,2.58-12.77,5.68-18.37,1.59-2.87,4.08-5.85,7.69-4.19,5.72,2.61,8.9,7.43,15.19,8.15-1.17-3.42-3.26-6.16-5.69-9a1.68,1.68,0,0,1,2.38-2.37c10.61,9.2,22.62,16.93,36.11,21.15,9.93,3.11,20.5,5.39,29.08,11.56A1.7,1.7,0,0,1,459,846.67Z"/><path class="cls-5" d="M176.13,857.09c-7.72,5.78-13.7,13.3-21.59,19.08a109.88,109.88,0,0,0-17.6,16.13c-12.23,13.9-18.22,30.9-19.86,49.1-1.77,19.46,3.62,38.37,13.93,54.71,5.71,9,13.06,16.45,20.31,24.17,5.73,6.09,10.76,13,17.8,17.63.52.35,1.67-.74,1.2-1.25-23.75-26-47.54-52.28-48.91-89.3-.74-19.94,6.08-38.25,18.35-53.74,5.32-6.71,12.21-12.18,18.77-17.62,6.73-5.58,11.46-12.81,18.05-18.38C177.11,857.17,176.66,856.7,176.13,857.09Z"/><path class="cls-6" d="M256.52,771.53c-1.67.59-7.12,0-10.92.78-1.21-2.55-7.28-.36-9.28.38-11.12,4.09-22,8.17-32.06,14.54a58.83,58.83,0,0,0-12.12,10.08c-5.75,4.88-11.92,11.3-12.13,17.44v0a16.07,16.07,0,0,0,.14,4.05c.23,1.91-.51,3.87-.09,5.82.19.85,1.51-.25,1.55-.77a24.48,24.48,0,0,1,1.46-5.54,5.75,5.75,0,0,0,.21-1.58,28,28,0,0,0,6.84-1.68c.08.59.2,1.2.35,1.87a50.66,50.66,0,0,1,.78,5.9c.19,1.82,1,4.73.49,6.55-.3,1.12,1.28.56,1.57-.06,1.24-2.65,1-6.21,1.27-9.07a24.72,24.72,0,0,0,0-5.37,9.58,9.58,0,0,1,0-1.61,106,106,0,0,0,19.91-11.45c.15.22.3.44.43.66,1,1.61,2,3.17,2.8,4.86.35.69,1.58-.22,1.36-.83a42.85,42.85,0,0,0-2-4.91c-.2-.38-.38-.8-.56-1.22l1.13-.81c.78,1.41,1.73,2.77,2.34,4,1.63,3.34,3.1,6.87,5.32,9.88.41.56,1.51-.45,1.34-1-1.14-3.69-1.69-7.47-3.06-11.1a50.58,50.58,0,0,0-2-4.78c1.46-1.1,2.91-2.21,4.33-3.3s2.51-2,3.74-3A119,119,0,0,0,240,781.87a4.26,4.26,0,0,0,.65-.79c1,.16,2,.16,2.82.31,2.15.4,4.24,1.11,6.36,1.64.58.15,1.7-1.09,1-1.42-2.23-1-5.23-3.08-8-3.49l.4-.4a6.84,6.84,0,0,0,.92-.08c1.54-.19,3.12.42,4.64.62.31,0,.94-.63.52-.76-1.36-.45-2.71-1.09-4.11-1.42,3.85-1,8.15-1.27,11.54-3.39C257.22,772.34,257.5,771.19,256.52,771.53ZM241,776.15c-.31,0-.73.39-.59.66-.89-1.68-31.72,15.75-33.81,17.2-6.78,4.7-14.78,9.67-20.58,15.8a20.15,20.15,0,0,1,.1-3c.07-.09.13-.16.19-.25a90.64,90.64,0,0,1,36-25.79c5-2,10-3.82,15.06-5.68C241.49,773.58,242.07,774.41,241,776.15Z"/><path class="cls-7" d="M268.8,1104.67c-2.57-12-18.67-24.06-30.74-20.89l-.18.08c-5.91-.62-11.73.38-12.21,5.94-1.06,12.11,18.43,21.93,27.85,24.59C262.63,1117,271.12,1115.45,268.8,1104.67Z"/><path class="cls-8" d="M494.16,898.16C476.69,905.25,457.41,921,455.42,941a15.07,15.07,0,0,0-2-2.67c.24-5.3.53-10.55,2.09-15.79.19-.66-.77-.24-.91.14a55.35,55.35,0,0,0-3.21,13.87c-3.51-2.51-8-3.22-13.05-3a38.29,38.29,0,0,0-10.78.72,42.22,42.22,0,0,1-1.31-10c0-5.19,1.07-15.13,4.8-19.27.56-.62-.21-1-.72-.53-5,4.06-6.23,12.71-7.15,18.67a45.12,45.12,0,0,0-.15,12.3A78.19,78.19,0,0,0,406.86,943a149.31,149.31,0,0,0-20,13.94c-.37-.38-.78-.73-1.15-1.12-1.18-1.26-2.38-2.47-3.51-3.79a23.7,23.7,0,0,0-3.7-3.52,35.23,35.23,0,0,1-3.72-2.65c-.45-.46-1.52.48-1.12,1a26.54,26.54,0,0,0,2.69,2.5,43,43,0,0,1,3.92,4.38c1.16,1.51,2.36,3,3.56,4.44.24.3.45.57.66.8-.63.56-1.23,1.16-1.85,1.73a15.49,15.49,0,0,1-1.18-1.1,23.79,23.79,0,0,0-3.22-3.05c-.38-.27-1.27.58-.89.92a25.49,25.49,0,0,1,2.93,3.62,11.16,11.16,0,0,0,.84,1c-2.46,2.32-4.85,4.72-7.09,7.27-4.47-1.67-10.71-1.22-14.54-1.06-10.07.42-18,3-26.84,7.54-.38.19-.49.94.08.71,9.61-3.78,18-5.63,28.43-5.29a39.62,39.62,0,0,1,9.93,1.61c-.14.18-.29.35-.44.53-5.9,7.49-11,16.94-12.69,26.64a36.55,36.55,0,0,0-14.27,6.82,56.52,56.52,0,0,0-9,9.43c-2.09,2.75-3,7.91-5.4,10.15-.25.23-.3.78.19.59,3.56-1.45,6.34-8.57,8.69-11.28,5.48-6.3,11.94-9.5,19.3-12a38.43,38.43,0,0,0-.11,4,16.31,16.31,0,0,0,1.75,7,12.12,12.12,0,0,0-3.82,2.83c-1.91,2-3.33,4.44-5.19,6.5-.62.69.24,1.16.82.61,1.44-1.38,2.69-2.94,4-4.44a21.47,21.47,0,0,1,2.5-2.36,13.84,13.84,0,0,1,2.74-1.39,16.78,16.78,0,0,0,4.64,4.4,7.16,7.16,0,0,0-2.77,3,9.24,9.24,0,0,1-.91,1.47c-.2.28-.61.62-.39,1l0,0c.06.12.27.13.38.11.83-.17,1.4-1.13,1.86-1.77a22.05,22.05,0,0,1,3.07-3c5,2.81,11.47,3.87,17.18,3.9a123.56,123.56,0,0,0,34.23-4.43,12.43,12.43,0,0,0,1.69,4.23c1.11,2,1.79,4.22,3.42,5.9.44.45,1.58-.42,1.3-1a20.23,20.23,0,0,1-1.67-6,35.66,35.66,0,0,0-1.11-3.41c-.09-.27-.15-.54-.22-.8,14.45-4.84,27.14-13.37,33.3-27.55a68.42,68.42,0,0,0,5.42-23.92,13.72,13.72,0,0,1,1.94-.91c1-.34,2-.52,3-.79.54-.15,1.36-1.39.38-1.25-1.85.27-3.7.36-5.26,1.22.07-2.66,0-5.33-.17-8h0a16.55,16.55,0,0,1,5.59-3.13c1.35-.53,2.65-1.2,4-1.8.69-.31,1.39-.59,2.1-.83-.54.2,4.72-1.51,2.16-.23-.14.08-.18.36,0,.27a10.24,10.24,0,0,0,1.91-.94c.16-.09.38-.39.16-.53-3.28-2-8.92,1-12.08,2.22a28.38,28.38,0,0,0-4.12,2c-.26-2.43-.63-4.85-1.1-7.23-.11-.58-.25-1.11-.38-1.64,3-9.76,4.85-19,11.06-27.54,6.71-9.21,16.16-14.28,25.42-20.35C494.81,898.94,495.09,897.79,494.16,898.16Zm-43.61,91.77c-8.23,25.53-39.39,29.16-62.38,31.14-12.16,1-24.88-2.59-26.42-15.93.17.15.37.28.56.42,4.94,5.8,18.67,6.59,24.74,6.92,10.67.58,21.13-5.63,30-10.89,8.48-5.05,20.85-11.77,26.34-20.27,3.63-5.66,5.05-11.77,6.55-18.27,1.16-5,.91-10.76,1.7-15.91.61,1.71,1.08,3.38,1.45,4.8C456.35,964.44,454.44,977.86,450.55,989.93Z"/><path class="cls-9" d="M539.22,843.27c.18-4.87-4.62-11.1-6.62-14.55-6-10.25-14.49-19.23-25.12-24.61-4.18-2.12-12.43-5-17.65-3-4-.08-8.6,1.66-12.38,2.16-6.16.82-12.62-.38-18.78-.82-.23,0-.9.47-.58.72,6.88,5.42,18.16,3.68,27.08,1.17a7,7,0,0,0-.44,5.65c-4.24,1.1-8.4,3.39-12.64,3.93-.31,0-.89.83-.36.83,4.63.05,9.2-1.49,13.75-2.57a53,53,0,0,0,5.58,9.33,58.61,58.61,0,0,0,5.08,6.3c-.34.29-.67.6-1,.88a2.54,2.54,0,0,1-.54.36s-.5.27-.24.15c-.18.08-.39.27-.34.49.15.63,1.56-.21,2.85-1.15l1,1a14.24,14.24,0,0,1-2.44,1.52c-.56.25-.9,1.44,0,1.06a20.44,20.44,0,0,0,3.2-1.83c.81.8,1.63,1.59,2.48,2.36-1.91,1.11-3.75,2.37-5.53,3.53a47.57,47.57,0,0,0-4.8,3.82c-1.39,1.21-2.9,3.47-4.56,4.32-.16.08-.49.59-.11.6.74,0,.83-.18,1.42-.73,2-1.84,4.2-3.52,6.34-5.24,2.62-2.11,5.71-3.5,8.67-5.07,1.8,1.54,3.67,3,5.61,4.42l-.8.85a87.09,87.09,0,0,0-7.34,9.74c-.41.6.31.77.67.31,2.17-2.81,4.37-5.6,6.8-8.19.63-.66,1.27-1.25,1.93-1.82,2.22,1.55,4.51,3,6.8,4.3-1.54,2.46-2.5,5.5-3.83,7.88-.4.73.63.52.91.09,1.06-1.64,2-3.37,2.91-5.09a24.73,24.73,0,0,1,1.37-2.12c1.32.73,2.64,1.43,4,2.07a35.58,35.58,0,0,0,6.79,2.54c-3.59,3.84-5.25,10.32-6,15.33-.12.76,1.13.07,1.25-.35a48.69,48.69,0,0,1,3.57-8.34c1.05-2,2.64-4.07,3.18-6.26a11.52,11.52,0,0,0,3.71,0c-2.21,6.52-2.19,14.54-1.86,20.73,0,.86,1.29,0,1.34-.52.73-9,3.77-16.86,5.81-25.48A1.2,1.2,0,0,0,539.22,843.27Zm-7.35,2a6.8,6.8,0,0,1,.26-1,.63.63,0,0,0-.25-.77.8.8,0,0,0-.24-.07c.38-5.19-16.43-22.12-18.1-23.48-2.67-2.17-19.29-14.21-23.53-11.6-.08-2.56,1.18-4.42,5.76-3.6,6.89,1.23,12.77,4.51,18.2,8.79,8.68,6.83,15.33,17,20,26.89C535.84,844.36,534.41,845.45,531.87,845.31Z"/><path class="cls-10" d="M415.65,810.28c-9.92-3.7-19.56-7.8-29.55-11.06.51-2-.76-4.09-2.66-6,.62-.18,1.21-.35,1.72-.47,7.59-1.74,15.4-2.64,22.81-5.09.48-.16,1-1.36.2-1.15-6.48,1.65-13.26,2.17-19.86,3.2-2.48.38-4.94.86-7.4,1.32a64.07,64.07,0,0,0-6.11-4c.95-.69,1.83-1.48,2.43-1.88,2.57-1.72,5.38-3.15,7.59-5.36.5-.5.06-1-.49-.55-3.35,2.89-7.74,4.3-11.41,6.77a20.2,20.2,0,0,0-2.05-.79l.41-.55c.93-1.13,1.92-2.23,2.8-3.41.6-.8-.4-1-.89-.41-1.1,1.36-2.33,2.62-3.47,4-.88-.26-1.78-.5-2.69-.68a39.78,39.78,0,0,0-7.44-2.4c.1-2.71-.41-5.63-.54-8-.29-5.44.46-11.17-1-16.47-.15-.54-1.05.16-1,.6.84,4.85-.1,10-.46,14.87-.2,2.77-.1,5.58-.21,8.37-1.82-.3-3.66-.5-5.48-.62-.41-2.13-1.89-4.16-2.67-6.14-.26-.66-1.42.2-1.25.76.33,1.11.75,2.17,1.17,3.24.25.66.46,1.35.67,2a45,45,0,0,0-10.41.71c-.71-.52-1.41-1.05-2.13-1.55-2.72-1.92-7.12-3.62-8.62-6.81-.3-.64-1.42.21-1.24.77,1,3,4.59,5.62,7,7.56a17.46,17.46,0,0,1,1.29,1.19,11.5,11.5,0,0,0-2.59,1.51c-1.66-.47-3.46-.67-5.11-1-3.63-.7-7.26-1-10.85-2-.36-.1-1,.59-.61.74a59.56,59.56,0,0,0,8.32,2.19c2.23.45,4.53,1.36,6.83,1.8-1.1,2.59,1.46,5.45,4.79,7.88-.41.15-.83.3-1.23.48-1.54.67-3.39,1.18-4.53,2.49-.44.5,0,.89.54.62a31.91,31.91,0,0,1,7.07-2.35q.72.47,1.47.9c-3,1.21-5.91,2.53-8.85,3.63-6.15,2.3-13.07,6.18-19.48,7.49-.48.1-1.11,1.14-.31,1,4.94-.59,10-3.13,14.71-4.65,5.67-1.81,11.37-3.68,16.91-5.91.7.35,1.36.66,1.94.91a60.47,60.47,0,0,0,11.3,3.62c-.43,1.29-.77,2.61-1.11,3.94A102.79,102.79,0,0,0,351.39,817c-.13.93,1.45.16,1.58-.44,1.07-4.95,3.09-9.58,4.74-14.32a68.83,68.83,0,0,0,10.9,1c.56.95,1.29,1.83,1.84,2.74.28.46,1.28-.36,1.09-.8-.29-.66-.57-1.3-.86-1.94h2.19c.47.45,1,.86,1.38,1.27q2.25,2.19,4.62,4.24c.58.51,1.88-.6,1.37-1.2q-1.8-2.1-3.51-4.28a20,20,0,0,0,6-.84c3.8.85,7.64,1.59,11.34,2.62,7,2,13.79,4.61,20.82,6.38C415.36,811.52,416.24,810.5,415.65,810.28Z"/><path class="cls-11" d="M496.48,1077.34c-6.69,2.56-13.26,5.52-19.68,8.69s-13.8,6.69-20,11.16c-5.08,2.21-10.12,6-12.46,10.25-3.89,7.12,7.89,6.55,11.91,6.11,12.91-1.42,25.85-7.08,37.15-13.14,8.51-4.56,21.42-12.23,26.31-20.82C527.65,1065.59,500.6,1075.76,496.48,1077.34Z"/><path class="cls-12" d="M217,919.28c-8.34,2.2-18.69,4.54-27.32,4.24-6.06-.21-11.71-.84-17.74-.65a49.54,49.54,0,0,0-4.06-18.39,43.65,43.65,0,0,1,6.94-1.12,81.2,81.2,0,0,0,8.54-2c.57-.14,1.34-1.41.38-1.25-3.1.5-6.2,1.17-9.32,1.5-2.51.26-5,.22-7.2,1.54-.15-.3-.3-.58-.45-.89.73-.1,1.45-.17,2.18-.34a12.26,12.26,0,0,0,3.3-1.27c.68-.39.58-1.4-.3-.94a9.65,9.65,0,0,1-4.49,1,5.31,5.31,0,0,0-1.46.18,13.33,13.33,0,0,0-1.64-2.14,11.06,11.06,0,0,0,1.82-.12c2.91-.47,5.62-2.45,8.22-3.68,4-1.89,8.42-5,10.17-9.14.22-.54-.6-.33-.79-.08-3.15,4.35-13.33,8.43-18.58,8-3.22-.28-5.73.21-7.78,2.11a7.08,7.08,0,0,0-4.34,2.49,37.12,37.12,0,0,0-7.43,13.2c-9.78,17.09-13.33,41.86-10,59.32.83,4.4,3.07,13.84,9,14,2.31,1.59,6.06,2.74,7.1,3.17a103.25,103.25,0,0,1,10,4.86c4.78,2.59,6.48,6.49,9.85,10.34.37.43,1.22-.35,1.08-.8a37.39,37.39,0,0,0-3.84-9c-1.44-2.37-5.86-4-8.18-5.11a86.86,86.86,0,0,0-10.36-4.17c-.2-.07-.66-.18-1.23-.32,3.85-1.79,6.87-5.72,9.26-9.78,1.36.44,2.73.84,4,1.29,3,1,5.28,2.82,8,4.27.52.28,1.52-.75.92-1.13-2.64-1.69-4.62-3.57-7.56-4.87-1.38-.62-2.77-1.23-4.18-1.81,1-1.85,1.86-3.64,2.62-5.19.28-.58.56-1.18.84-1.78q2.61.6,5.22,1.15c5.26,1.12,10.74,2.8,16,3.42.68.08,1.78-1.25.81-1.47-2.75-.61-5.31-2.11-8-3-2.37-.77-4.85-1.24-7.26-1.86-1.59-.41-3.44-1.16-5.3-1.68a103.44,103.44,0,0,0,5.5-17.82c.32-.26.9-.91.35-1.08a.51.51,0,0,1-.13-.09,92.69,92.69,0,0,0,1.41-10c1.46.05,2.93.08,4.39.23,2.81.3,5.56,1.07,8.38,1.15.54,0,1.48-1.12.66-1.21-2.71-.31-5.31-1.33-8-1.83a27.43,27.43,0,0,0-5.25-.43c.07-1.25.12-2.49.14-3.72,1,.15,2.14.13,3.64.23,4.79.34,9.7,1.07,14.5,1,8.39-.15,19-4.47,26.69-7.55C217.21,920.21,217.77,919.06,217,919.28Zm-51.83-12.41c-5.1,11.46-11.64,21.6-14.47,34-2.51,11-.74,24.44,1.83,35.34-3.51,3.49-7.48,4.6-10.42-2.06-2.07-4.69-2.3-10.2-2.33-15.41a.72.72,0,0,0,.46-.23l0,0a14.54,14.54,0,0,0,3.81-.43,1.69,1.69,0,0,0,1.24-1.09.52.52,0,0,0-.27-.69l0,0c-1.64-.46-3.7,0-5.18-1.08,0,0-.09,0-.12-.05,0-1.82,0-3.73.1-5.66a18.11,18.11,0,0,0,3.7-1.26c.73-.32,1.26-1.79,0-1.39a11.79,11.79,0,0,1-3.66.73,125.9,125.9,0,0,1,2.25-18.83c0,.36.72,0,.79-.28a171,171,0,0,1,8-22.15c4.52-10.49,10.89-5.86,14.62.13A1.3,1.3,0,0,0,165.14,906.87Z"/><path class="cls-13" d="M145.79,938.26c-.67,0-1.33,0-2,0a3.86,3.86,0,0,1-1.79-.74c-.44-.22-1,.32-1.13.7-.68,2.13,3.3,1.42,4.34,1.36C145.77,939.59,146.63,938.27,145.79,938.26Z"/><path class="cls-14" d="M307.39,1097.47h0c-.4-5.75-9.6-9.43-13.3-4a4.14,4.14,0,0,0,.77,5.77,10.21,10.21,0,0,0,4.66,4.17,5.8,5.8,0,0,0,7.56-3.62,6.05,6.05,0,0,0,.3-1.64C307.59,1097.91,307.7,1097.6,307.39,1097.47Z"/><path class="cls-15" d="M210.73,1078.76c-3.12-3.26-6.1-7.43-11.18-6a5.08,5.08,0,0,0-3.55,6.63,2.88,2.88,0,0,0,.37,1.9c2.56,4.34,11.17,10,15.87,6.11C215.53,1084.7,213,1081.11,210.73,1078.76Z"/><path class="cls-16" d="M503.09,999.58c-1.88.13-3.7,1.47-5,2.73a8.29,8.29,0,0,0-2.86,5,1.27,1.27,0,0,0,.73,1.28,5.55,5.55,0,0,0,4.74-.85c1.24-.78,3.53-2.88,3.21-4.63a9,9,0,0,0,.71-1.82C504.88,1000.13,504.22,999.5,503.09,999.58Z"/><path class="cls-17" d="M542.92,939.44c-2.43-4-7.6-3.41-10.69-.6a22.82,22.82,0,0,0-5.5,8.47c-2.64,4.08-4.4,8.94-4.7,11.75a18.76,18.76,0,0,0,.7,7.33c.06.39.1.79.18,1.18.87,4.57,6,7.73,10.15,5a14.65,14.65,0,0,0,8.51-5.37C547.6,959.91,547.7,947.23,542.92,939.44Z"/><path class="cls-18" d="M532.76,913a1.7,1.7,0,0,0-1.94-.5,2.84,2.84,0,0,0-2.35,2.65,6.85,6.85,0,0,0-.26,1.26c-.1.65.59.93,1.12.84a2.69,2.69,0,0,0,1.78-1.32c.06-.09.1-.19.16-.28a3.74,3.74,0,0,0,.44-.23C532.44,914.94,533.36,913.86,532.76,913Z"/><path class="cls-19" d="M445.37,815.59a5.49,5.49,0,0,0-7.75-.53c-.33,0-.88.47-.8.83l0,.12a1.93,1.93,0,0,0,.56,2.87,6.13,6.13,0,0,0,1.31.59,5.49,5.49,0,0,0,4,1.82A3.45,3.45,0,0,0,445.37,815.59Z"/><path class="cls-5" d="M356.37,744.43c-29.46-7.07-59.83,6.48-85.51,20.27-.54.28-.72,1.3.13,1,13.43-4.41,26.23-10.67,39.76-15.05,15.07-4.86,29.44-6.78,45.1-5.3C356.28,745.41,357,744.58,356.37,744.43Z"/><path class="cls-20" d="M973.63,61.5c-6.33,6.34-11.8,13.4-17.82,20.11-11.07,12.33-24.92,22.91-36.76,34.6-20,19.72-117,121.93-145.62,153.31C736.54,310,697.09,348.19,659.07,387.6c-16.41,17-94,92-93.41,90.48,15.81-37.13,47-64,69-97.23-4,3.36-8.07,6.69-12.13,10-82.12,76.68-147.43,169.42-226.42,249.21-1.33,1.34,27.09-46,41.78-68-15.79,15-31.61,30.48-45.44,47-13.55,16.23-45.71,45.92-44.59,44.56C373.42,632.36,399,601,422.18,568q-38.32,35.44-75.48,72.32c-46.41,45.93-95.6,89-142,134.85-37.76,37.34-76.29,77.76-98.95,126.39C83,950.4,84,1003.77,109.85,1051.25c23.49,43.1,66.24,72.93,110.5,91.91a295.21,295.21,0,0,0,138.8,22.51c118-9.29,179.65-55.86,232.31-152.47,18.71-34.32,55-123.14,70.9-158.82q9.43-21.15,18.72-42.36c16.91-47.73,35.54-95.22,47.18-144.53-25.64,44.22-73.43,136.88-73,135.09,5.54-21.92,15.12-42.38,24.48-62.86,10.57-23.12,19.36-47.05,28.57-70.74,8.6-22.13,16.9-44.42,26.67-66.07,8.78-19.46,18-38.79,25-58.95-32.72,44.19-113.62,166.39-112.63,164.47,5.33-10.34,11-20.5,16.8-30.53,19.59-35.37,39.4-70.63,58-106.55,23.42-45.32,44.1-92,66.74-137.72C822.8,365.1,858.19,297.25,890.72,228c-41.4,62.55-128.1,187.86-127,186,44.94-79.71,84.75-162.43,135.07-239C923.57,137.28,949.78,100.05,973.63,61.5Zm-160.94,227C761.61,373,704.3,453.36,657.07,540.17c-36.34,66.79-73,134.66-98.84,206.41q5.26-9.08,10.43-18.19c-.23-1.51-.47-3-.69-4.51-.3-2.12,2.94-3,3.24-.89,0,.24.07.47.1.7,57.6-102.74,105.56-211,171.52-308.93a1.68,1.68,0,0,1,3.06,1.3C728,480.75,698,541,673.17,603.09c-12.5,31.31-23.21,63.29-35.26,94.76-10.61,27.7-21.19,55.44-29.64,83.89,20.79-30.12,42.51-59.61,66.43-87.35,1.3-1.51,3.45.42,2.63,2-14.07,27.54-33.12,52.47-45.61,80.81-9.27,21-16.37,44.66-32.08,62a1.7,1.7,0,0,1-2.8-.75c-2.22-7.81-4.51-15.6-6.8-23.4-1.35,29.82-7.36,59.49-18.24,85.82-.68,1.67-3.29,1.57-3.29-.45,0-16.24-.37-32.46-1.62-48.62a380.53,380.53,0,0,1-10.72,53.2c-7.6,28.42-15.11,57.11-26.7,84.23a241.94,241.94,0,0,1-36.94,60.89c-13,15.47-29.67,32-50.89,33.91A1.69,1.69,0,0,1,440,1082c3.53-9.66,9.27-17.86,14.93-26.21-57.95,50.35-143.39,75.44-211.65,36.82,10.33,10.23,20.81,20.3,31.76,29.89a1.69,1.69,0,0,1-1.2,2.86c-62.45-3.16-127.85-67.56-113.76-132.58a1.69,1.69,0,0,1,3.07-.39c6.78,11.1,12.51,22.83,19.12,34-9-23.55-14.4-48.45-13.66-73.78.87-29.71,9.36-57.38,21.19-84.45,21-48.14,49.57-98.64,91.12-132a1.69,1.69,0,0,1,2.8,1.63C278.45,765,269,792.23,272.19,820.19c11.62-31.07,23.11-62.57,43.9-88.84a0,0,0,0,1,0,0h0l.26-.33c1.22-1.54,3.53.43,2.63,2-24.12,43.27-34.75,94.22-35.36,144,4.16-35.43,16.22-70.06,31.84-101.88,20.49-41.77,47.31-80.8,80.21-113.78,1.33-1.33,3.69.42,2.63,2-22.77,34.91-22.78,77.73-18.17,119,4.69-9.27,9.46-18.46,14.24-27.54,20.94-39.78,43.73-78.1,69.56-114.91,25.41-36.22,51.77-72,72.4-111.21.93-1.77,3.43-.48,3.07,1.3-7,34.34-16.59,68.09-27.27,101.46-.08.27-.18.55-.26.83q8.94-15.09,18.23-30c28.54-45.59,56.07-92.64,93.08-132,1.3-1.38,3.7.45,2.63,2-27.44,40.71-46.75,85.65-62.63,132q22.9-37.53,47.51-74c59.17-87.28,128.75-165.86,199.36-243.92C811.36,285.07,813.67,286.92,812.69,288.54Z"/><path class="cls-21" d="M624.34,553.49c-40.18,47.77-81.09,97.57-115.52,151,7-20.3,14.24-40.5,21-60.88,1.32-4-3.83-3.19-5.63-1.54-5.56,5.14-8.84,11.62-12.61,18.09-5.72,9.8-11.76,19.43-17.8,29-5.86,9.31-11.45,18.76-16.86,28.32,4.42-14.89,10.72-29.24,14.89-44.08,1.61-5.75-5.36-4.63-8.08-2.2-9.66,8.64-16.81,19.42-23.67,30.3-8.6,13.66-18,26.77-26.73,40.35-17.31,26.9-33.2,55.29-48,83.65-14.63,28-27.19,57.14-39,86.45l-.12.31c-.19-1.69-.39-3.38-.55-5.07-1.86-18.91-1.55-38-.23-56.9,1.28-18.42,3.92-36.77,6.22-55.09,1.19-9.46,2.83-18.86,4.82-28.18,1.61-7.58,4.5-14.91,5.34-22.62.44-3.93-5.12-1-6.18.23-11.56,13.43-19.47,31-28.24,46.31-10.55,18.41-18.47,38.15-26.49,57.74-8.5,20.77-15.2,42.26-21.85,63.68a275.69,275.69,0,0,0-7.69,29.34c-.22-2.24-.42-4.42-.68-6.46-1.67-13.07-2.76-26.19-4.25-39.28-2.84-25,1.18-49.51,1.71-74.41,0-2.9-3.94-1.1-4.83.17-10.55,15.2-15.74,32.65-20.07,50.44-2.33,9.61-4.34,19.35-5.92,29.12-1,6.24-1.41,12.68-1.89,19.09-.1-1.8-.19-3.56-.33-5.21-.89-10.17-1.14-20.29-1.68-30.47-1-18.71,1.8-37,2.87-55.48.22-3.83-4.88-2.14-6.43-.69-6.64,6.15-8.53,13.65-12.46,21.62a189.92,189.92,0,0,0-19.65,79.36c-.45,3.85-.83,7.72-1,11.63-1.21,21.92,4.63,42.25,13.44,62.07,15.83,35.62,45.07,58,83.33,64.86,72.06,12.86,139.06-33.22,182.19-90.13-3.41,7.92-6.67,15.94-9.62,24-.49,1.35.16,3.24,1.83,3.23,7.35,0,12.18-4.79,16.46-10.37,7.09-9.24,13.88-19,20.47-28.58,14.73-21.53,24.65-45.38,34.26-69.5,21.82-54.78,41.88-110.1,59.25-166.48,1.55-5-5.68-2.28-7,.27-8.22,15.53-20,29.76-29.86,44.37C550.3,791.31,538,806.74,525.6,822.28l-6.52,8.18q5.5-21,11.92-41.81c8.54-27.54,18.39-54.7,29-81.51,10.52-26.63,22.81-52.6,34.24-78.85,5.64-13,11.13-25.94,17.34-38.65,5.44-11.11,10.34-24.11,18.67-33.4C634.52,551.15,627.71,549.74,624.34,553.49Z"/><path class="cls-22" d="M216,1125c-21.87-15.3-47.39-28.65-63.33-50.85-15.4-21.47-29-43.53-34.95-69.54-6.7-29.2-6.06-62.13,2.06-90.92a272.34,272.34,0,0,1,16-42.72c5.07-10.69,12.94-20.17,17.52-31,.28-.68-.82-.33-1,0-6.34,11.79-16.28,21.85-23,33.62-7.4,12.91-12.62,27.15-17.07,41.29-9.3,29.48-8.91,61.53-3.65,91.74,9.76,56,57.9,95.8,106.56,119.47C215.61,1126.4,216.59,1125.41,216,1125Z"/><path class="cls-22" d="M561.09,1036.16c-30.05,34.9-67.68,62.5-108.82,82.83-20,9.91-41.09,18.79-63,23.58-24,5.25-47.84,8.73-72.16,12-.34,0-.92.9-.38.88,22.93-.9,47,1.15,69.59-3.09,23.34-4.39,45.88-14.74,66.92-25.42,42.13-21.4,80.43-52.29,108.67-90.36C562.52,1035.78,561.57,1035.6,561.09,1036.16Z"/><path class="cls-23" d="M202.06,718.69c-13.92,11.58-28.66,22.13-42.3,34-13.29,11.61-25.38,25.12-37,38.33-23.1,26.18-41.66,57.51-55.17,89.65C53.69,913.65,46.29,948.09,51,983.78c4.44,34,15.24,68.27,34.05,97.07.47.72,2.13-.6,1.75-1.29-32.17-59.22-30-136.33-5.3-197.85,12.26-30.56,29.1-60.91,49.27-86.91,21.61-27.85,47.3-50.42,72.57-74.71C204.61,718.83,203.47,717.51,202.06,718.69Z"/><path class="cls-23" d="M390.36,1190.6c-16.48,4.87-32.59,8.77-49.74,10.35-17.9,1.64-36.18-1.2-53.66-4.86a271.22,271.22,0,0,1-92.21-38c-27.45-17.74-53-38.39-74-63.56-10.36-12.41-19.74-25-27.38-39.33-8.11-15.15-13.15-31.53-18.33-47.84-.28-.89-1.78.27-1.62,1,7,34.12,16.65,66.39,37.14,95.09,19.39,27.19,46.71,48.59,74.59,66.51,29.18,18.76,64.25,27.84,98.21,32.7,36.16,5.18,73,4.32,107-10.74C391,1191.63,391.55,1190.25,390.36,1190.6Z"/><path class="cls-23" d="M641.13,984.9c-4,8.22-9.92,15.16-15,22.72-5.71,8.58-11,17.31-17.33,25.46-12.38,15.9-25.7,30.8-39.23,45.71a544.65,544.65,0,0,1-86.54,77.51c-1.1.79-1.86,3.53.33,2.58,17.54-7.65,35.72-16.08,50.8-28,16.49-13,30.5-28.3,44.43-44a461.45,461.45,0,0,0,39.15-51.46c5.65-8.47,9.7-18,13.89-27.28,3.61-8,8.74-15.06,11.68-23.34C643.9,983.28,641.54,984,641.13,984.9Z"/><path class="cls-23" d="M348.9,622.67c-13.53,13.93-31.38,24.81-46.58,36.94q-27.17,21.67-54,43.7c-35.51,29.23-70.93,59.48-99.52,95.73-2,2.51.72,3.65,2.75,2,17.68-14,33.07-30.69,49.62-46q25.59-23.61,52.08-46.18c17.61-15,35.31-30,52.61-45.32,14.61-13,31.62-25.16,44.32-40C351.05,622.54,349.75,621.79,348.9,622.67Z"/><path class="cls-23" d="M695.87,808.71c-31.19,69.64-67.59,136.66-95.32,207.88-1.28,3.28,3.53,1.84,4.62.47,23.15-29.22,36.08-65.78,51-99.56C671.88,882,687,846,697.79,808.63,698.19,807.28,696.21,807.94,695.87,808.71Z"/><path class="cls-23" d="M844.7,368.2C831.89,398.28,818,428,805.41,458.11c-12.47,29.79-21.72,60.72-31.53,91.43-20.36,63.66-36.89,128.22-53.18,193-.71,2.83,3.27,1,3.86-.63,22.39-62.59,39.33-126.8,59-190.23,9.49-30.57,18.49-61.37,29.46-91.45,11.21-30.74,22.88-61.29,33.88-92.11C847.47,366.61,845.1,367.28,844.7,368.2Z"/><path class="cls-23" d="M928.84,172.66c-33.47,54.43-66.84,109-94.55,166.64-13.55,28.17-28,55.88-40.9,84.34-12.12,26.68-23.83,55.42-29.11,84.34-.55,3,3.32.93,4-.65,47-114.5,104-225.27,162-334.53C930.89,171.64,929.27,172,928.84,172.66Z"/><path class="cls-23" d="M888.44,106.69c-10.28,7.36-19.21,16.33-28.3,25.08C849.47,142,837.68,151,826.9,161.16c-21.3,20-41.55,41.05-61,62.84-18.71,21-38.46,41.28-56.22,63.05-19.51,23.93-38,48.74-56.84,73.24-2.32,3,1,4.83,3.41,2.54,20.62-19.29,41.22-38.9,58.73-61.09,17.35-22,36.9-41.91,54.85-63.39,19-22.73,38.79-44.82,58.89-66.57,9.13-9.89,19.06-19,28.33-28.77,10.86-11.45,20.37-24.23,32.39-34.53C890.62,107.46,890,105.6,888.44,106.69Z"/><path class="cls-23" d="M763.83,214.33c-10.35,12.14-23.59,21.07-35.42,31.63-13.52,12.07-26.94,24.16-40,36.72-26.9,25.88-54.08,51.46-80.82,77.51-26.47,25.78-52.3,52.15-77.81,78.88s-47.56,56.2-70.91,84.8c-1,1.19.43,2,1.38,1,25.72-26.44,53.53-50.56,79-77.22q39.16-41,79.43-80.91C644.84,341,670.79,315,695.9,288.22c12.22-13.06,24.39-26.17,36.68-39.16,10.86-11.46,23.36-21.24,32.72-34.05C766.28,213.67,764.65,213.36,763.83,214.33Z"/><path class="cls-23" d="M564.52,389.84c-5.35,6.67-13,11.73-19.51,17.22s-13.22,10.62-20,15.71c-15,11.26-29.51,23.11-43.88,35.13-30.29,25.32-60,51.39-89.74,77.33C333.77,585.47,274.62,635.6,221.56,690.71c-1.8,1.86.63,3,2.23,1.65,60.06-49.74,118-101.68,176.69-152.94,29.75-26,59.35-52.12,89.24-77.93q22.44-19.39,44.87-38.82c10.86-9.46,23.72-20.19,31.49-32.41C566.84,389.06,565.08,389.14,564.52,389.84Z"/></g></g></svg>