<svg xmlns="http://www.w3.org/2000/svg" xmlns:xlink="http://www.w3.org/1999/xlink" viewBox="0 0 1633.05 1063.38"><defs><style>.cls-1{isolation:isolate;}.cls-2{fill:url(#linear-gradient);}.cls-3{fill:#fddab2;}.cls-3,.cls-5{opacity:0.4;}.cls-4{fill:#e38481;opacity:0.6;}.cls-4,.cls-7,.cls-8{mix-blend-mode:multiply;}.cls-5{fill:#fcd7b8;}.cls-5,.cls-9{mix-blend-mode:color-dodge;}.cls-6{fill:url(#linear-gradient-2);}.cls-7{fill:url(#linear-gradient-3);}.cls-8{fill:url(#linear-gradient-4);}.cls-9{fill:#fad1c3;}</style><linearGradient id="linear-gradient" x1="616.19" y1="66.36" x2="995.75" y2="956.51" gradientTransform="translate(11.67 0.35) rotate(0.14)" gradientUnits="userSpaceOnUse"><stop offset="0.05" stop-color="#cf9d8b"/><stop offset="0.2" stop-color="#efb172"/><stop offset="0.46" stop-color="#ca9180"/><stop offset="0.5" stop-color="#cd9886"/><stop offset="0.55" stop-color="#d7ab97"/><stop offset="0.61" stop-color="#e7cbb4"/><stop offset="0.62" stop-color="#ead2ba"/><stop offset="0.65" stop-color="#d9b9a1"/><stop offset="0.71" stop-color="#ba8b75"/><stop offset="0.77" stop-color="#a16550"/><stop offset="0.83" stop-color="#8d4833"/><stop offset="0.89" stop-color="#7f331e"/><stop offset="0.95" stop-color="#772612"/><stop offset="1" stop-color="#74220e"/></linearGradient><linearGradient id="linear-gradient-2" x1="954.57" y1="949.62" x2="791.9" y2="425.47" gradientTransform="translate(11.67 0.35) rotate(0.14)" gradientUnits="userSpaceOnUse"><stop offset="0" stop-color="#c5937c"/><stop offset="0.02" stop-color="#c79882"/><stop offset="0.29" stop-color="#e4e0df"/><stop offset="1" stop-color="#8ca89c"/></linearGradient><linearGradient id="linear-gradient-3" x1="256.49" y1="651.16" x2="166.12" y2="404.91" gradientTransform="translate(11.67 0.35) rotate(0.14)" gradientUnits="userSpaceOnUse"><stop offset="0" stop-color="#e4e0df"/><stop offset="1" stop-color="#8ca89c"/></linearGradient><linearGradient id="linear-gradient-4" x1="1327.01" y1="258.32" x2="1236.64" y2="12.05" xlink:href="#linear-gradient-3"/></defs><g class="cls-1"><g id="Capa_1" data-name="Capa 1"><path class="cls-2" d="M1304.3,534.61c-.66,264.89-215.94,479.1-480.84,478.44S344.36,797.1,345,532.21,561,53.1,825.86,53.77,1305,269.71,1304.3,534.61Z"/><path class="cls-3" d="M958.21,72.68c-11.15,15.84-22.13,31.79-33.13,47.74-16.51,24-33.47,45.65-56.75,63.52-23.58,18.09-49.57,32.51-75.89,46.18-28.34,14.7-56.51,29.79-85.32,43.56-101.89,48.71-213.89,86.13-327.4,80.64a476.42,476.42,0,0,0-15.92,45.91c63.7,19.8,135.47,12.55,199.43-.52,117.34-24,229.94-68.68,328.58-136.89A1212.65,1212.65,0,0,0,1024.25,157c13-12,27-25,40.12-39.12A476.53,476.53,0,0,0,958.21,72.68Z"/><path class="cls-3" d="M532.89,295.88c32.36-8.4,62.51-22.78,93.74-34.44,26.6-9.94,54.33-16,81.16-25.3,88.51-30.61,182.82-83.07,224.9-170.06A480.18,480.18,0,0,0,825.86,53.77C644,53.31,485.63,154.16,404,303.13,447.09,303.46,491.21,306.71,532.89,295.88Z"/><path class="cls-3" d="M482.64,493.11c49.91.17,97.39-10.75,144.58-26.35,31.72-10.49,62.91-22.37,94.22-34,30.45-11.32,61.43-21.32,91.31-34.13a769.94,769.94,0,0,0,151.91-87c59.85-43.95,113.56-95,165.25-148.13q-15.93-13.17-33-25c-6.07,5.3-12.22,10.49-18.37,15.59-36.4,30.14-73.4,60-110.6,89.14C901.74,295.13,828.85,335.72,751.33,368c-75.82,31.54-154.18,59.73-234.69,76.47-38.59,8-78.93,14.39-118.44,11-15.2-1.29-30.89-4.08-45.14-9.83-2.85,15.4-4.9,31.09-6.24,47C391.92,487.29,437.34,493,482.64,493.11Z"/><path class="cls-3" d="M385.51,683.64c30.43-.47,60.77-4.25,90.8-8.92,27.45-4.28,54.75-9.42,82-14.71,31-6,61.14-9.57,92.86-10,34.07-.42,67.94-2,100.25-13.89,31.54-11.6,60.76-28.65,89.39-46.07,55.55-33.8,113.49-63.38,168.33-98.49C1063.71,456.7,1120.06,419.49,1158,366c23.24-32.71,41.71-68.44,63.08-102.3-8.9-13-18.34-25.66-28.45-37.73-.56,1.66-1.13,3.32-1.67,5-8.6,26.54-16.42,55.28-32.69,78.38-33.45,47.48-85.28,79.15-134.24,108.47-53,31.72-105.24,65-159,95.41-55,31.13-113.52,60.13-176.17,71.91C618,598.44,545.15,603.35,473.31,609c-33.48,2.62-65.72,8.16-98.8,13.62-6.83,1.13-13.71,2.18-20.62,3a474.77,474.77,0,0,0,15.22,58.14C375,683.83,380.55,683.72,385.51,683.64Z"/><path class="cls-3" d="M590.85,856.83c34.27,2,68.75,4.83,103,1.35a421.82,421.82,0,0,0,87.52-18.82c28.85-9.34,57-20.68,85.16-31.78s57.17-21,85.43-32.39c52-20.92,102.67-45.66,150.6-74.81,76.57-46.55,150.21-105.12,201.51-179.48a487.56,487.56,0,0,0-4.41-53.73c-14.41,25.63-32.11,48.88-54.32,68.95C1176.9,597.93,1094.72,640.91,1016,687.88c-53.62,32-106.83,65.59-164.4,90.18-61.6,26.33-126.06,37.82-192.07,47.19-64.12,9.11-132.71,15.5-196.32-.49-8.39-2.11-16.65-4.6-24.91-7.16a482.11,482.11,0,0,0,30.86,37.66C509.53,852.65,550.22,854.47,590.85,856.83Z"/><path class="cls-3" d="M1234.9,736.72c-74.05,98.36-190.61,149.89-303.82,189.65-32.24,11.31-64.42,21.11-98.43,25.45-35.08,4.48-70.5,5-105.79,2.81C672.15,951.24,618,942.7,563.65,935.82a477.13,477.13,0,0,0,259.81,77.23c221.21.55,407.78-148.75,463.71-352.25C1270,686.21,1253.37,712.2,1234.9,736.72Z"/><path class="cls-4" d="M825.86,53.77C561,53.1,345.68,267.31,345,532.21s213.54,480.18,478.44,480.84S1303.64,799.5,1304.3,534.61,1090.76,54.43,825.86,53.77ZM788,883.2C568.72,882.66,391.47,704.5,392,485.28S570.71,88.79,789.94,89.34s396.48,178.71,395.94,397.93S1007.18,883.75,788,883.2Z"/><path class="cls-5" d="M456.81,786c-64.62-102.65-86.68-192.23-90.87-261,0-.22-.07-.44-.09-.66a437.4,437.4,0,0,1-2.91-65.6c-12.7,71.66-13.58,184.92,58.3,309.76,121.48,210.92,348.83,244.63,463.35,225.33C884.59,993.88,606.82,1024.39,456.81,786Z"/><path class="cls-6" d="M1585.41,228.29c-28.93-78.1-201.66-91.84-435.9-47.75q13.93,12.84,26.82,26.74c154.76-24.15,263.14-13.81,281.56,35.92,17.15,46.28-47,117.43-163.33,193.58-104.51,68.43-251.11,140.9-418.65,203-178.35,66.08-346.37,107.74-473.38,121.6-125,13.64-210.32.32-226.47-43.27C158.62,671,225.24,598.28,345.2,520.71q.51-19.46,2.53-38.51C154.37,597.36,41.68,714.47,69.59,789.82c27,73,179.72,89.76,390.82,55.64C592,824.19,746.26,783.16,907,723.62c151-56,287.07-120.58,397.27-185.91C1499.48,422,1613.47,304,1585.41,228.29Z"/><path class="cls-7" d="M210.46,581.56c-28.88,33.73-87.8,102.49-56.69,149.64,27.87,42.22,95.33,37.44,139.16,36.21q11.38-.33,22.74-1c-76.93-.17-127.55-15.83-139.61-48.38C158.62,671,225.24,598.28,345.2,520.71q.51-19.46,2.53-38.51c-41.24,24.56-78.77,49.21-112.1,73.53A302.44,302.44,0,0,0,210.46,581.56Z"/><path class="cls-8" d="M1176.33,207.28c154.76-24.15,263.14-13.81,281.56,35.92,14.52,39.19-29.31,96.24-113.72,159,19.41-9.9,38.41-20.7,57.2-31.75,24.22-14.22,53.12-30.51,68.48-54.92,15-23.81,30.86-57.51,14.86-84.77-23.27-39.66-74.25-51.26-116.15-59.4-27.67-5.37-55.66-8.13-83.67-10.57-42.1,4.13-87.42,10.69-135.38,19.71Q1163.45,193.38,1176.33,207.28Z"/><path class="cls-9" d="M281.87,545.86S57.9,667.3,91.53,769.05s300.25,91.13,693.66-23.11c0,0-440.09,113.37-590.58,60.28S142.31,641.9,281.87,545.86Z"/><path class="cls-9" d="M1512.5,213.06c-73.11-56-195.7-35.13-195.7-35.13s221.39,3.57,177.48,98.35C1457.77,355,1357.86,430.83,1274.07,482c6.39-2.71,12.73-5.54,19-8.6C1406.68,406.1,1595.58,276.69,1512.5,213.06Z"/></g></g></svg>