<svg xmlns="http://www.w3.org/2000/svg" xmlns:xlink="http://www.w3.org/1999/xlink" viewBox="0 0 1072.88 1082.37"><defs><style>.cls-1{isolation:isolate;}.cls-2{fill:url(#linear-gradient);}.cls-10,.cls-3{fill:#e7cac2;}.cls-4{fill:#c3e6f8;opacity:0.7;mix-blend-mode:color-dodge;}.cls-5{fill:#e38481;}.cls-6{fill:#e6b3a9;}.cls-7{fill:#eac69d;}.cls-8{fill:#e4a79e;}.cls-9{fill:#dadcdc;mix-blend-mode:multiply;}.cls-10{opacity:0.6;mix-blend-mode:screen;}</style><linearGradient id="linear-gradient" x1="228.41" y1="106.02" x2="858" y2="1060.95" gradientTransform="translate(15.42 -3.14) rotate(0.14)" gradientUnits="userSpaceOnUse"><stop offset="0.05" stop-color="#cf9d8b"/><stop offset="0.19" stop-color="#c85830"/><stop offset="0.36" stop-color="#ca9180"/><stop offset="0.49" stop-color="#cb8b79"/><stop offset="0.69" stop-color="#cd7a66"/><stop offset="0.89" stop-color="#d0614a"/><stop offset="0.9" stop-color="#c45942"/><stop offset="0.95" stop-color="#993b26"/><stop offset="0.98" stop-color="#7e2915"/><stop offset="1" stop-color="#74220e"/></linearGradient></defs><g class="cls-1"><g id="Capa_1" data-name="Capa 1"><path class="cls-2" d="M1020.53,558.09c-.66,264.89-215.94,479.1-480.84,478.44S60.59,820.58,61.25,555.69,277.19,76.58,542.09,77.24,1021.19,293.19,1020.53,558.09Z"/><path class="cls-3" d="M238,666c42.76-55.35,84.28-109.69,143.78-148.29,50-32.41,104.36-53.23,161.73-68.38,63.31-16.73,129-29.1,188.63-57.1,61.68-29,108.62-82.29,161.75-123.56q9.48-7.37,19.28-14.2A481.92,481.92,0,0,0,767.33,134q-13.16,8.86-26.38,17.61c-17.87,11.76-36.63,22.22-54,34.8-51.37,37.24-91.32,87.36-137.83,130.14-46,42.32-97.84,73.57-157,94.14-31.83,11.07-64.52,19.32-96.5,29.87-32.31,10.68-62.09,24.84-91.34,42.14-46.34,27.42-92,59.63-143,78.11a477.23,477.23,0,0,0,55.84,220.87C166.88,757.5,205.28,708.34,238,666Z"/><path class="cls-4" d="M173.05,809.51c-64.62-102.65-86.68-192.23-90.88-261,0-.21-.06-.43-.09-.65a437.46,437.46,0,0,1-2.91-65.6C66.47,553.93,65.59,667.18,137.48,792,259,1003,486.31,1036.66,600.82,1017.36,600.82,1017.36,323.06,1047.87,173.05,809.51Z"/><path class="cls-5" d="M160.78,391c29.75-12.15,59.69-19,91-25.54,29.25-6.08,58.77-12.5,86.51-23.89,55.49-22.79,99.54-65.53,140.52-108.2,48.95-51,95.49-105.15,150.84-147.84a477.87,477.87,0,0,0-67.55-7.84c-26,16.93-47.06,40.47-67.77,63.33-20.87,23-41.38,46.68-64.86,67.14-20.91,18.21-44,34.36-66.6,50.34-49,34.63-100.8,66.47-156.23,89.82-35.76,15.06-73.36,27.14-111.86,31.94q-8.25,20.79-14.56,42.53C107.76,414.4,134,401.94,160.78,391Z"/><path class="cls-3" d="M531.82,150.35c-20.91,20-38,43.44-57,65.12-19.2,21.86-40,42.57-63,60.43-22.38,17.37-46.12,31.85-72.6,42.08-30.8,11.89-62,22.59-93,34C193.39,371.36,141.58,395.25,86,404.7c-2,6-4,12-5.73,18.12,27.5-8.42,53.78-20.88,80.52-31.79,29.75-12.15,59.69-19,91-25.54,29.25-6.08,58.77-12.5,86.51-23.89,55.49-22.79,99.54-65.53,140.52-108.2,48.95-51,95.49-105.15,150.84-147.84-1.1-.21-2.2-.37-3.28-.57C594.67,106.52,559.73,123.66,531.82,150.35Z"/><path class="cls-5" d="M124.93,549.63c24.22-16.51,50.13-30.38,74.31-46.95,22.39-15.36,48.59-33.89,59.34-60a311.79,311.79,0,0,0-142.89,32.88A491,491,0,0,0,64,505.49a486.59,486.59,0,0,0-2.75,50.2q0,21.91,1.85,43.34l.87-.72C84.06,582,103.55,564.22,124.93,549.63Z"/><path class="cls-5" d="M573.73,240.33c36.58,1.39,71.65-16.29,103-33.26,31.1-16.84,61.5-36.76,94.95-48.75,7.69-2.76,15.42-5.48,23.13-8.23a477.17,477.17,0,0,0-86.55-42.69C669.55,156.36,608.58,187.22,573.73,240.33Z"/><path class="cls-6" d="M790.2,306.38c-65,49.89-141.52,76.79-219.84,97.7-30.68,8.19-61.53,15.78-92.1,24.44-29.85,8.46-58.62,18.05-84.89,35-47.21,30.43-83.82,73.8-128,108-34,26.32-73.48,44.77-109.75,67.69-23.88,15.07-54.61,34.14-73,59.3A478.1,478.1,0,0,0,137.8,816.79c50.59-21,87.82-69.12,105.21-120.9,19.58-58.29,62.13-102.51,115.37-132.14,47.89-26.66,100.95-42.43,155-50.72,59-9,122.3-11.36,176.08-39.9,58.07-30.81,94.47-87.84,143.51-129.76C863,317.66,897.74,297.6,934.59,283a483.48,483.48,0,0,0-54.12-64.75C851.86,249.22,823.72,280.65,790.2,306.38Z"/><path class="cls-5" d="M161.82,685.33c31.58-21.87,51.35-55.15,79.82-80.41,28.21-25,60.45-44.48,91.06-66.27,29.23-20.79,53.91-47.3,84.1-66.72,48.24-31,102.2-42,156.79-56.35C640.39,398,705.3,372,765.19,337.47c15.52-9,31.29-17.93,45-29.6,11.23-9.56,21.6-20,32.07-30.35,16.55-16.36,33.53-31.75,54-42.55-5.15-5.68-10.39-11.26-15.8-16.69-28.61,30.94-56.75,62.37-90.27,88.1-65,49.89-141.52,76.79-219.84,97.7-30.68,8.19-61.53,15.78-92.1,24.44-29.85,8.46-58.62,18.05-84.89,35-47.21,30.43-83.82,73.8-128,108-34,26.32-73.48,44.77-109.75,67.69-23.88,15.07-54.61,34.14-73,59.3,3,9.74,6.36,19.34,10,28.82C114.45,711.59,139.59,700.73,161.82,685.33Z"/><path class="cls-3" d="M909.22,267.85c-8.83,9.55-18.42,16.38-29.85,22.51-26.67,14.3-52.51,29.5-78.26,45.43-26.48,16.38-50.15,35.06-73.34,55.78-21,18.82-42,39.26-65.6,54.86-25.81,17.06-54.46,26.86-84.51,33.51-31.54,7-63,13.71-94.06,22.68C422,520.42,357.29,545,308.91,588.54,286.17,609,267.15,632.78,249,657.31c-15.37,20.81-30,41.89-48.81,59.78-23.58,22.39-53.81,46.29-86.65,57.59a476.37,476.37,0,0,0,24.26,42.11c50.59-21,87.82-69.12,105.21-120.9,19.58-58.29,62.13-102.51,115.37-132.14,47.89-26.66,100.95-42.43,155-50.72,59-9,122.3-11.36,176.08-39.9,58.07-30.81,94.47-87.84,143.51-129.76C863,317.66,897.74,297.6,934.59,283c-5.65-8.1-11.63-16-17.76-23.69C914.33,262.18,911.82,265.05,909.22,267.85Z"/><path class="cls-7" d="M781.93,471.61c14.57,2,29.63-4.19,43.18-8.7,14-4.67,28-9.12,41.78-14.64,31.12-12.47,61.7-26.19,94.86-32.33,11.59-2.15,23.84-3.6,36-5.41a477.91,477.91,0,0,0-42.83-95.74c-25.31,17.26-50.93,34.09-75.39,52.57C841.54,396,804.11,428.76,781.93,471.61Z"/><path class="cls-3" d="M269.93,841c36-2.23,68.69,12.57,103,20.85,61.38,14.85,128,17.24,186.4-10,53-24.69,101.82-70.24,123.06-125.35,18.46-47.92,22.81-108.15,71.22-136.7,24.33-14.35,51.81-23.37,77.6-34.69,30.37-13.32,60.81-27.25,92.75-36.47,27.79-8,56.56-10.45,84.69-16.84,2.87-.65,5.68-1.41,8.48-2.17q-2-16.65-5.1-32.94c-29.89,10.13-61,17.21-89.22,24.32-21,5.3-42.21,10.4-62.57,17.85-24.65,9-48.29,20.32-71.55,32.4-22.56,11.72-44.87,25.91-69.28,33.46a201.9,201.9,0,0,1-64.91,8.63c-30.43-.73-60.48-5.77-90.81-7.85-30.85-2.11-62-1.14-92.33,5.37-51.75,11.12-98.95,36.87-134.54,76.35-35.16,39-54.37,88.66-88.08,128.79-24.39,29-54.21,51.81-89.59,61.3,6.38,8.38,13.06,16.51,20,24.43C209.11,860.63,237.36,843,269.93,841Z"/><path class="cls-7" d="M959.92,500.89c-38.54,11.83-78.06,20.8-115.94,34.66-40.1,14.68-73.44,37.4-109.07,60.31-25.82,16.6-55.39,30.56-75.84,54.12s-32,53.93-49.34,79.81c-16,24-35.69,43.17-61.07,57.12a276.39,276.39,0,0,1-81.48,29.2,341.14,341.14,0,0,1-87.11,5.44c-32.53-2.27-64.7-6.1-97,.82-30.43,6.51-56.28,20.51-83,35.75-7.2,4.1-14.54,8.3-22.06,12.22.39.44.76.89,1.13,1.33,30-11,58.27-28.71,90.84-30.72,36-2.23,68.69,12.57,103,20.85,61.38,14.85,128,17.24,186.4-10,53-24.69,101.82-70.24,123.06-125.35,18.46-47.92,22.81-108.15,71.22-136.7,24.33-14.35,51.81-23.37,77.6-34.69,30.37-13.32,60.81-27.25,92.75-36.47,27.79-8,56.56-10.45,84.69-16.84,2.87-.65,5.68-1.41,8.48-2.17-.7-5.86-1.53-11.68-2.43-17.48C996.7,489.1,978.36,495.22,959.92,500.89Z"/><path class="cls-8" d="M1014.68,482.09c-29.72,5.22-58.63,9.46-87.5,19.31-64.74,22.07-129.75,43.68-191.79,72.76-29.3,13.73-56.72,31.29-86.51,43.94-28.12,11.93-57.22,13.9-87.4,14.37-63,1-128.65-1.53-183.15,35.87C330.76,701,311.91,756.78,271.65,796.05c-19.79,19.31-43.8,35.32-70.34,43.71-8.64,2.73-27.43,4.42-40.14,10.06q4.7,6.06,9.57,12c26.33-12.93,52.51-27.12,80.85-34.86,32.85-9,64.55-6,97.45,1.18,35.6,7.82,72.35,18.81,109.17,14.26,32-4,63.32-14.89,91.51-30.38,26.28-14.44,51.95-32.81,70.72-56.52,18.32-23.14,28-50.67,37.84-78.13,17.45-48.6,61-78.87,105-101.89,55.81-29.22,112.88-52.39,172.78-71.79,25.4-8.22,52.51-12.54,79.06-18.27C1015,484.28,1014.86,483.18,1014.68,482.09Z"/><path class="cls-8" d="M394.93,993.89c25.52-23.81,55.65-26.57,89.41-27.12,35.81-.58,72,1,107-8.12,26.39-6.88,51.73-17.57,74.26-33.08,21.68-14.92,40.81-33.14,57.65-53.32,17.94-21.49,36-44.76,48.22-70.06,12-24.73,21.38-52.66,40.16-73.32,19.07-21,47.15-29.84,72-41.76a711,711,0,0,0,89.21-51.5c15.8-10.61,30.41-23.33,45.63-35q1.53-16.82,1.89-34c-7.42,5-14.61,10.25-21.61,15.79-14.47,11.48-28.33,23.73-42.9,35.09-45.4,35.4-107.52,40.05-154.43,73-24.18,17-39.05,41.13-52.5,66.86-14,26.71-29.08,51.8-49.13,74.48C658.07,879.1,606.15,916.85,543,928c-58.53,10.31-118.58,2.23-175.69-12.35-47-12-104-29.49-147.7-2.76A479.67,479.67,0,0,0,380.8,1009.1,171.06,171.06,0,0,1,394.93,993.89Z"/><path class="cls-5" d="M912,789.67C861.61,818.05,834.08,872,790,907.85c-46.91,38.07-102.4,64.08-159.33,83.43-32.66,11.1-65.59,17.27-99.21,24.5-17.85,3.85-34.58,8.43-50.76,17a485.46,485.46,0,0,0,59,3.76c188.85.47,352.42-108.28,431-266.74C950.63,774.6,930,779.52,912,789.67Z"/><path class="cls-9" d="M542.09,77.24C277.19,76.58,61.92,290.79,61.25,555.69s213.54,480.18,478.44,480.84S1019.87,823,1020.53,558.09,807,77.91,542.09,77.24Zm-37.9,829.44C285,906.13,107.7,728,108.25,508.76S286.94,112.27,506.17,112.82,902.65,291.53,902.1,510.75,723.41,907.23,504.19,906.68Z"/><path class="cls-3" d="M642.16,640.62c-9.2,2.23-17.67,6.13-26.93,8.32a291.74,291.74,0,0,1-61.56,8.1A408.55,408.55,0,0,0,456.3,671.7C427,680,397.36,691.57,373.4,710.85c-12.57,10.12-22.91,21.67-33.15,34.08-2.13,2.59-4.35,5.69-6.66,9a3.32,3.32,0,0,0-1,.78c-10.38,11.78-22.08,22.45-32.78,33.88a1.94,1.94,0,0,0-.3.33c-3.21,3.44-6.35,6.94-9.31,10.59-.51.61-1.12,1.84-.43,2.57,4,4.18,17.13-.82,21.59-2.07,25.78-7.21,53.11-7.06,79.79-7.66,38.37-.88,71.23-.56,107.32-15.71,29.58-12.42,56.14-32.91,76.21-57.82,13.09-16.24,23-32.56,39.1-46.37,10.79-9.25,22.28-17.66,29.31-30.2C643.51,641.5,643.25,640.36,642.16,640.62Z"/><path class="cls-8" d="M573.11,675.08c-12.47-1.5-26.81,3.42-39.92,6.79-37.51,5.2-75.2,10.1-110.35,25-16.23,6.89-30,16.86-42.86,28.81-10.27,9.58-23.43,18.09-31,30.08-.71,1.12-.56,2.83,1,3,17,1.9,36.15-5.49,52.93-8.5,21.44-3.84,43.32-3.64,64.39-10,19.18-5.83,35.55-16.61,51.35-28.82,17.78-13.73,36.82-26,54.33-39.77C574.77,680.2,576.88,675.52,573.11,675.08Zm-92.7,63.36c-16,7.74-36.12,9.76-53.62,12.15-18.05,2.47-35.47,6.47-53.19,10.39a58.06,58.06,0,0,0,7.17-7.79c19.88-24.82,50.51-36.36,78.88-48.32,1-.25,2-.54,3.06-.77,17-3.8,34.15-6.55,51.13-10.37,9.46-2.12,19.1-3.32,28.62-5.19,4.48-.88,10.08-2.94,15.63-4.21-9,5.84-18.31,11.21-26.61,18.1C515.62,715.64,499.16,729.4,480.41,738.44Z"/><path class="cls-10" d="M746.36,221.82c-15.66-3.68-38,15.46-51,22a204.74,204.74,0,0,0-33.92,21.86c-.08.07-.18.12-.26.19-4.86,3.88-10.06,7.86-15.27,12-8.57,6.09-17.57,11.41-23.29,20.49a107.73,107.73,0,0,0-8.41,9.65c-1.91,2.53-2.25,6.77,2.08,6.27,22.92-2.66,50.31-9.85,68.73-24.41,13.7-10.84,25.55-23.76,38.43-35.53,9.18-8.39,18.9-15.28,24.95-26.36C749.82,225.32,749.48,222.56,746.36,221.82Z"/><path class="cls-10" d="M258.14,502.43c-12.49,4.53-23.58,14.65-34.06,22.64-7.45,5.69-15.21,11.4-22.55,17.55-1.87,1.35-3.64,2.63-5.3,3.72-10.9,7.2-26.79,16-32.09,28.49-1.14,2.7,1.25,5,3.93,4.47,15-3.11,32-10.52,44.15-20,17.61-13.76,28.95-34.53,47.1-47.48C263.42,508.87,266.27,499.48,258.14,502.43Zm-43.24,40.1A130.17,130.17,0,0,1,202,553.46C206.15,549.6,210.53,545.92,214.9,542.53Z"/><path class="cls-10" d="M857.78,566.33c-16.3,6.39-33.25,11.92-48.74,20.13-2.9,1.54-6.06,3.28-9.21,5.2a132.38,132.38,0,0,0-37.74,26.86c-1.69,1.73-5.7,8.63-.21,8.7,14.45.19,28.87-8,41.47-14.31,19.72-9.91,40.44-25.18,56.35-40.59C862.18,569.91,862.79,564.37,857.78,566.33Z"/><path class="cls-10" d="M448.36,604.87c-27.9.52-53.4,18-75.82,32.7-11.19,7.38-20.66,16.75-29.46,26.76-7.65,8.71-13.38,20.52-20.41,30.47a101.08,101.08,0,0,1-7.86,7.62c-4.51,3.87-2.1,10.84,3.75,6.79,19.63-13.59,37.61-32.53,54.79-49.14,22.15-21.41,49.28-31.69,73.91-48.74C448.55,610.43,452.61,604.8,448.36,604.87Zm-61.23,33a196.26,196.26,0,0,1,37.21-19.77c-12.44,6.45-25.25,12.33-37,20.14A2.64,2.64,0,0,0,387.13,637.84Z"/><path class="cls-10" d="M599.88,731.58c-9.71,13.42-27,21.83-40.24,31.52-15.41,11.3-29.71,20.52-47.45,27.79-16.15,6.62-28.61,14.19-46.93,14.53-12.39.23-26.33,7.34-37.46,12.05-.82.36-2.11,2.63-.39,2.28,17.21-3.48,34.29,3.36,51.12-1.1,16.13-4.28,33.2-13.09,48.11-20.56,16.43-8.25,30.21-19.22,43.62-31.72,11.11-10.37,25-20.24,31.73-34.23C602.81,730.43,600.63,730.53,599.88,731.58Z"/><path class="cls-10" d="M787.52,663.23c-2.06-6.24-11.9-3.15-15.93-1.11A26.23,26.23,0,0,0,760.21,674a27,27,0,0,0-5.31,5.74c-.79,1.19-.91,3.22.55,3.92,7.64,3.7,15.63-.55,21.75-5.26C781.08,675.4,789.49,669.21,787.52,663.23Z"/><path class="cls-10" d="M849.61,633.3a5,5,0,0,0-5.31-1.6,6.11,6.11,0,0,0-4.74,1.46,8.55,8.55,0,0,0-2.56,4.2,15.19,15.19,0,0,0-3.12,3.46c-.93,1.43-.51,3.06,1.16,3.45,4.15,1,8.29-2.77,11.77-4.5C848.58,638.88,851.48,635.3,849.61,633.3Z"/><path class="cls-10" d="M697.16,315.09c-1.16-4.75-7.91-3.35-11-1.93-4.64,2.14-9.92,5.9-12,10.73-.12.28-.24.6-.36.92a15.14,15.14,0,0,0-3.24,6.31c-.18.77-.41,2.17.38,2.76,6.09,4.62,13.41.66,18.65-3.46C694,327,698.63,321.09,697.16,315.09Z"/><path class="cls-10" d="M780.3,262.88c-5.32.57-10.76,3.54-15.5,6.59-1.84.84-3.6,1.87-5.18,2.75-5,2.82-10.61,6.74-13.34,12-2.6,5,.66,10.41,6.48,10.37,6.53,0,13.22-3.52,18.8-6.56,5.9-3.21,12.65-8,15.38-14.36C789.54,267.55,787.37,262.13,780.3,262.88Z"/><path class="cls-10" d="M182.9,591.32c-7.1-.77-16.22,5.33-17.84,12.2-.05.22-.06.43-.09.64-1.78,1.54-2.87,4-.95,5.33,2.19,1.49,5.35,1.21,7.86.9,3.7-.46,7.08-2.4,10-4.58C186,602.78,191.32,592.24,182.9,591.32Z"/><path class="cls-10" d="M452.48,561.57a23.25,23.25,0,0,0-7.38,0,25.58,25.58,0,0,0-8,2.11c-.19.07-.39.14-.58.23l-.85.33a62.24,62.24,0,0,0-15.06,8.68c-1.44,1.11-3.29,4.05-1.75,5.79,4.48,5.09,14.07,2.3,19.54.71,7-2,15.7-7,16.53-15C455.1,562.75,453.89,561.84,452.48,561.57Z"/><path class="cls-10" d="M314.12,666.31a11.53,11.53,0,0,0-2.19,1.35c-.39-.65-1.79.36-1.89.91-.06.34-.1.87-.15,1.43a7,7,0,0,0-1.23,3.84l.07-.05a1.09,1.09,0,0,0,1.07,1.36,3.72,3.72,0,0,0,3.51-2.59c.32-.65.17-.74-.45-.29a5.83,5.83,0,0,0,1.61-1,6.84,6.84,0,0,0,1.69-2.66C316.83,667.08,316,665.43,314.12,666.31Z"/></g></g></svg>