<svg xmlns="http://www.w3.org/2000/svg" xmlns:xlink="http://www.w3.org/1999/xlink" viewBox="0 0 230.02 179.09"><defs><style>.cls-1{isolation:isolate;}.cls-10,.cls-2,.cls-3,.cls-5,.cls-6,.cls-8{mix-blend-mode:screen;}.cls-2{fill:url(#Degradado_sin_nombre_10);}.cls-3{fill:url(#Degradado_sin_nombre_10-2);}.cls-4,.cls-5{fill:#ff2f8d;}.cls-10,.cls-5,.cls-6,.cls-7,.cls-8,.cls-9{opacity:0.5;}.cls-7,.cls-9{mix-blend-mode:multiply;}.cls-11,.cls-8{fill:#c231fa;}.cls-9{fill:#750336;}.cls-10{fill:url(#Degradado_sin_nombre_2);}</style><radialGradient id="Degradado_sin_nombre_10" cx="114.78" cy="88.87" r="93.11" gradientUnits="userSpaceOnUse"><stop offset="0" stop-color="#ff2f8d"/><stop offset="0.99" stop-color="#ff2f8d" stop-opacity="0"/></radialGradient><radialGradient id="Degradado_sin_nombre_10-2" cx="114.87" cy="88.94" r="83.07" xlink:href="#Degradado_sin_nombre_10"/><linearGradient id="Degradado_sin_nombre_2" x1="132.16" y1="54" x2="78.8" y2="121.02" gradientUnits="userSpaceOnUse"><stop offset="0" stop-color="#ff2f8d" stop-opacity="0"/><stop offset="0.48" stop-color="#ff2f8d"/><stop offset="1" stop-color="#ff2f8d" stop-opacity="0"/></linearGradient></defs><g class="cls-1"><g id="Camada_2" data-name="Camada 2"><g id="OBJECTS"><path class="cls-2" d="M204.61,99.43a89.77,89.77,0,0,1-58.86,74.42A93.92,93.92,0,0,1,134.94,177h0a89.13,89.13,0,0,1-24,2h0a88.22,88.22,0,0,1-32.47-8,90.31,90.31,0,0,1-16.13-9.5,86.43,86.43,0,0,1-6.85-5.61,88.5,88.5,0,0,1-16.51-20.08c-.89-1.48-1.74-3-2.53-4.53a90.51,90.51,0,0,1-5-11.5A84.48,84.48,0,0,1,28.7,111c-.46-1.84-.86-3.71-1.18-5.54a85.19,85.19,0,0,1-1.28-10.36A89.54,89.54,0,0,1,85.45,5.24,91.51,91.51,0,0,1,106,.52,88.83,88.83,0,0,1,138.41,3a85.52,85.52,0,0,1,9.9,3.25,88.42,88.42,0,0,1,24.54,14.51c1.8,1.48,3.54,3.05,5.25,4.72a85.21,85.21,0,0,1,13,16c1.54,2.43,3,4.95,4.29,7.54,1,2,2,4,2.82,6.13.59,1.41,1.15,2.85,1.67,4.29l.1.33a87.88,87.88,0,0,1,3.64,13.4A88.83,88.83,0,0,1,204.61,99.43Z"/><path class="cls-3" d="M195,98.36a80.07,80.07,0,0,1-52.51,66.4,83.19,83.19,0,0,1-9.65,2.8h0a79.62,79.62,0,0,1-21.43,1.76h0A80.66,80.66,0,0,1,68,153.68a76.16,76.16,0,0,1-6.11-5,79,79,0,0,1-14.74-17.93c-.79-1.31-1.55-2.66-2.25-4a80.64,80.64,0,0,1-4.5-10.26,74.62,74.62,0,0,1-2.34-7.75c-.41-1.64-.76-3.3-1-4.94a74.72,74.72,0,0,1-1.14-9.24,79.86,79.86,0,0,1,52.83-80.2A81.62,81.62,0,0,1,107,10.12,79.05,79.05,0,0,1,136,12.32a75.93,75.93,0,0,1,8.83,2.89,79.14,79.14,0,0,1,21.9,13c1.61,1.32,3.16,2.72,4.68,4.21A76.22,76.22,0,0,1,183,46.64c1.37,2.16,2.66,4.42,3.83,6.72.9,1.79,1.75,3.6,2.51,5.47.53,1.26,1,2.55,1.49,3.83,0,.09.06.21.09.29a77.69,77.69,0,0,1,3.24,12A78.81,78.81,0,0,1,195,98.36Z"/><path class="cls-4" d="M177.57,96.42a62.5,62.5,0,0,1-41,51.81,65.58,65.58,0,0,1-7.53,2.19h0a62.1,62.1,0,0,1-16.72,1.37h0a61.57,61.57,0,0,1-22.61-5.59,62.46,62.46,0,0,1-11.22-6.61,58.56,58.56,0,0,1-4.77-3.91,61.48,61.48,0,0,1-11.5-14c-.61-1-1.21-2.08-1.75-3.15a62.64,62.64,0,0,1-3.52-8,58,58,0,0,1-1.82-6c-.32-1.28-.6-2.58-.82-3.86a58.9,58.9,0,0,1-.89-7.21A62.34,62.34,0,0,1,94.62,30.86a63.56,63.56,0,0,1,14.3-3.29,62,62,0,0,1,22.57,1.71,60.32,60.32,0,0,1,6.89,2.26,61.65,61.65,0,0,1,17.08,10.11c1.26,1,2.47,2.12,3.65,3.28a59.25,59.25,0,0,1,9.08,11.14c1.07,1.69,2.08,3.44,3,5.24.71,1.4,1.37,2.81,2,4.27.41,1,.8,2,1.17,3l.06.23a60.63,60.63,0,0,1,2.54,9.33A61.88,61.88,0,0,1,177.57,96.42Z"/><path class="cls-5" d="M155.81,42a62.37,62.37,0,0,0-9.95-5A57.77,57.77,0,0,0,139,34.74,61.75,61.75,0,0,0,116.41,33a63.32,63.32,0,0,0-14.3,3.29A62.54,62.54,0,0,0,60.88,98.89a61,61,0,0,0,.89,7.2c.23,1.28.5,2.58.82,3.86a61.59,61.59,0,0,0,1.83,6,63.08,63.08,0,0,0,3.51,8c.55,1.07,1.14,2.12,1.76,3.15a61.75,61.75,0,0,0,11.5,14c.48.44,1,.87,1.46,1.29-1.43-.89-2.83-1.83-4.19-2.84a60.45,60.45,0,0,1-4.76-3.9,61.54,61.54,0,0,1-11.5-14c-.62-1-1.21-2.07-1.76-3.14a63.85,63.85,0,0,1-3.51-8,61.59,61.59,0,0,1-1.83-6c-.32-1.28-.59-2.58-.82-3.85a61.44,61.44,0,0,1-.89-7.21,62.34,62.34,0,0,1,55.53-65.86,61.53,61.53,0,0,1,22.56,1.71,57.81,57.81,0,0,1,6.89,2.26,61.42,61.42,0,0,1,17.09,10.1Z"/><path class="cls-5" d="M177.56,96.43a62.44,62.44,0,0,1-41,51.8,65,65,0,0,1-7.53,2.19h0a61.7,61.7,0,0,1-16.72,1.37h0a61.32,61.32,0,0,1-22.61-5.59,62.54,62.54,0,0,1-11.23-6.61,60.45,60.45,0,0,1-4.76-3.9,63.6,63.6,0,0,1-7.58-8.21q1.34,1.38,2.76,2.67a58.81,58.81,0,0,0,4.77,3.9,62.75,62.75,0,0,0,11.22,6.62,61.56,61.56,0,0,0,22.61,5.58h0a62.09,62.09,0,0,0,16.72-1.36h0a64.85,64.85,0,0,0,7.52-2.19,62.34,62.34,0,0,0,40.31-70.11,59.77,59.77,0,0,0-2.53-9.33,2,2,0,0,0-.07-.23c-.36-1-.75-2-1.16-3-.59-1.46-1.25-2.87-2-4.26-.91-1.8-1.92-3.56-3-5.25q-1.45-2.3-3.08-4.43a59.34,59.34,0,0,1,7.9,10c1.07,1.69,2.07,3.45,3,5.25.7,1.39,1.37,2.8,2,4.26.41,1,.8,2,1.16,3l.07.23a59.77,59.77,0,0,1,2.53,9.33A61.63,61.63,0,0,1,177.56,96.43Z"/><g class="cls-6"><path class="cls-4" d="M131.49,29.28c0,2.9-1.92,5.62-3.86,7.85-4.84,5.61-10.43,10.52-15.44,15.95-6.39,6.93-11.78,14.69-17.64,22S82.28,89.56,74.34,94.64a37.78,37.78,0,0,1-20.05,6,58.9,58.9,0,0,1-.89-7.21c1.71-.91,3.56-1.61,5.34-2.41,10.6-4.82,18.77-13.6,26.62-22.18,6.07-6.59,12.16-13.25,16.72-20.94a46.77,46.77,0,0,0,6.84-20.33A62,62,0,0,1,131.49,29.28Z"/><path class="cls-4" d="M154.62,128.59a8.12,8.12,0,0,1-2.92,2.9,156.16,156.16,0,0,0-15.45,12.43c-2.37,2.17-4.72,4.43-7.18,6.5h0a62.1,62.1,0,0,1-16.72,1.37h0a61.57,61.57,0,0,1-22.61-5.59,62.46,62.46,0,0,1-11.22-6.61,81.51,81.51,0,0,1,40.15-7c5.73.46,11.66,1.53,17.15-.18s10-6,15.61-7.46a3.62,3.62,0,0,1,2.3,0C154.94,125.56,155.21,127.33,154.62,128.59Z"/><path class="cls-4" d="M168.19,56.07a16.81,16.81,0,0,1-.82,2.07,21.59,21.59,0,0,1-7.21,7.9c-13.71,9.44-32.76,7-47.22,15.3-2,1.12-3.83,2.44-5.91,3.38a12.1,12.1,0,0,1-4.24,1.11,1.66,1.66,0,0,1-1.5-2.5c1.41-2.46,3.94-4.3,6.42-5.82,14.51-8.9,31.58-13.55,44.86-24.23a26.53,26.53,0,0,0,4.24-4.17,13.46,13.46,0,0,0,2.3-4.18A59.25,59.25,0,0,1,168.19,56.07Z"/><path class="cls-4" d="M176.91,78.13c-9.22,10.13-21,17.49-32.69,24.73s-23.48,14.57-35.78,20.89c-10.76,5.55-22.12,10.41-34.15,11.87l-.59.06a61.48,61.48,0,0,1-11.5-14c1.39-.48,2.67-.84,3.52-1.16a185.41,185.41,0,0,1,27-7.3c5-1.08,10.08-2.1,15.12-3.22,17.86-4,36.23-9.83,49.1-22.86,5.52-5.61,9.85-12.36,15.94-17.31a14.55,14.55,0,0,1,1.48-1A60.63,60.63,0,0,1,176.91,78.13Z"/></g><g class="cls-7"><path class="cls-4" d="M94.83,50q-6.67,6.16-13.35,12.3c-3.63,3.33-7.28,6.71-11.59,9a44.19,44.19,0,0,1-15.06,4.48A62.33,62.33,0,0,1,63.3,55.66a62.74,62.74,0,0,0,8-3.4c6-3,11.56-6.55,17.52-9.49a11.94,11.94,0,0,1,4.81-1.49,4.28,4.28,0,0,1,4.11,2.47C98.61,46.07,96.63,48.38,94.83,50Z"/><path class="cls-4" d="M155.46,41.65a13.5,13.5,0,0,1-3.65,6.61c-3.4,3.38-8,5.21-12.41,7.17a135.45,135.45,0,0,0-28.31,17.13,8,8,0,0,1-2.58,1.57,2.61,2.61,0,0,1-2.76-.7,3.4,3.4,0,0,1-.38-2.65c.79-4.79,4-8.9,7.77-12s8.15-5.33,12.28-7.89,8.16-5.57,10.74-9.72c2-3.21,2.28-6.18,2.22-9.65A61.65,61.65,0,0,1,155.46,41.65Z"/><path class="cls-4" d="M173.14,65.58C164.72,77.58,153,87.12,140,93.91c-13.78,7.19-29,11.36-44.37,13.53-9.42,1.33-19.32,2-27.49,6.89-2.49,1.48-5,3.38-7.66,4.22a62.64,62.64,0,0,1-3.52-8,58,58,0,0,1-1.82-6,78.94,78.94,0,0,1,8.35-2.08A176.39,176.39,0,0,0,95.62,92c8.22-3.49,16.25-7.43,24.8-9.94,9.4-2.79,19.28-3.77,28.68-6.6,8.53-2.55,17-7,22.08-14.19C171.89,62.71,172.55,64.12,173.14,65.58Z"/><path class="cls-4" d="M177.57,96.42a61.71,61.71,0,0,1-4.43,17.07c-4.1,1.27-8.6,1.43-12.84,2.42-11,2.57-20,10.49-30.46,14.92-1.57.68-3.53,1.2-4.86.13s-1.18-2.83-.7-4.29c1.27-3.9,5-6.41,8.57-8.48,5.41-3.17,11-6.12,16.59-8.9C158.5,104.82,168,99.85,177.57,96.42Z"/><path class="cls-4" d="M128.06,138.42c.1.87-.66,1.58-1.34,2.12-2.37,1.9-4.72,3.79-7.1,5.66s-4.76,3.83-7.3,5.59h0a61.57,61.57,0,0,1-22.61-5.59,154,154,0,0,1,20.51-6.48c4.77-1.14,9.56-2,14.4-2.71C126,136.83,127.93,137,128.06,138.42Z"/></g><path class="cls-8" d="M45.54,91.57c1.57.52,3.14,1,4.73,1.5l3-1.85c0-1-.05-1.94,0-2.9C50.7,89.35,48.11,90.44,45.54,91.57Z"/><path class="cls-9" d="M176.77,77.49c-4,1.9-8.13,3.72-12.23,5.5-14.37,6.23-29,12.07-43.78,17.27Q98.62,108.33,76,114.81c-5.09,1.49-10.17,2.9-15.31,4.2h0l-.24-.45q-1.42-2.73-2.6-5.64l.64-.16c5.13-1.3,10.22-2.71,15.31-4.19Q96.37,102.09,118.55,94c14.8-5.2,29.4-11,43.78-17.27,4.1-1.78,8.19-3.6,12.22-5.5l.55-.26A57.08,57.08,0,0,1,176.77,77.49Z"/><path class="cls-9" d="M172.78,96.52A57.22,57.22,0,0,1,135.23,144a58.14,58.14,0,0,1-6.9,2h0A56.63,56.63,0,0,1,113,147.26h0a56,56,0,0,1-20.72-5.12A57.29,57.29,0,0,1,82,136.08a54.74,54.74,0,0,1-4.36-3.57,55.89,55.89,0,0,1-10.28-12.4q2,1.81,4.19,3.41a57.61,57.61,0,0,0,10.28,6.07,56.72,56.72,0,0,0,20.73,5.13h0a57.49,57.49,0,0,0,15.33-1.26h0a58.69,58.69,0,0,0,6.9-2A56.88,56.88,0,0,0,158.27,99.6,56,56,0,0,0,162.33,84a57.06,57.06,0,0,0-.6-16.77,56.46,56.46,0,0,0-2.32-8.55,1.72,1.72,0,0,1-.07-.21c-.34-.92-.68-1.83-1.07-2.73-.54-1.35-1.14-2.64-1.8-3.92s-1.43-2.7-2.23-4c.55.49,1.09,1,1.63,1.54a53.65,53.65,0,0,1,8.32,10.2c1,1.55,1.9,3.16,2.74,4.81.64,1.27,1.26,2.57,1.8,3.91.37.89.73,1.82,1.06,2.74l.07.21a56.09,56.09,0,0,1,2.92,25.32Z"/><path class="cls-10" d="M109.58,38.1c-14.13,3.3-27.15,11.95-34.7,24.33s-9.21,28.46-3.31,41.71,19.58,23,34.08,23.14c11.79.14,23.22-5.82,30.92-14.75S148.41,92,149.49,80.21a56.44,56.44,0,0,0-4.43-28.52,72.21,72.21,0,0,0-6.88-11.15c-2.28-3.25-5.69-3.51-9.44-3.82A61.73,61.73,0,0,0,109.58,38.1Z"/><path class="cls-5" d="M103.6,42.9c-6.78,3.2-12.74,8.44-16,15.21a21.29,21.29,0,0,0-2,12.87C87,78.37,93.26,84.17,100.3,86.82a28.93,28.93,0,0,0,21-.12,25.48,25.48,0,0,0,14.37-15.13,26.63,26.63,0,0,0-.44-17.27c-1.84-5.11-5.16-9.49-8.78-13.48-3.29-3.63-8.57-2.13-12.83-1.23A46,46,0,0,0,103.6,42.9Z"/><path class="cls-5" d="M73.93,77.3a19.58,19.58,0,0,0-1.85,7,24,24,0,0,0,2.53,14A15.64,15.64,0,0,0,86,106.4c4.79.56,10-2,11.91-6.4,1.65-3.81.76-8.34-1.34-11.92s-5.29-6.37-8.46-9c-2.32-1.94-5.27-5.29-8.17-6.28C77.29,71.86,75,75.29,73.93,77.3Z"/><path class="cls-5" d="M107.7,44.67a18.27,18.27,0,0,0-7.41,7.74A11.2,11.2,0,0,0,98.83,59c.6,4.35,4.92,7.34,9.23,8.19a16.48,16.48,0,0,0,13-2.75,13.52,13.52,0,0,0,5.4-11.9C125.42,43,115.13,40.68,107.7,44.67Z"/><path class="cls-5" d="M99.11,67.63a4.35,4.35,0,1,1-4.35-4.35A4.35,4.35,0,0,1,99.11,67.63Z"/><path class="cls-11" d="M229.4,46.58a8.28,8.28,0,0,0-2.05-2.95,11.44,11.44,0,0,0-4.29-2.39,27.5,27.5,0,0,0-7-1.14,74.92,74.92,0,0,0-12.55.59,205.24,205.24,0,0,0-23.81,4.4c-5.48,1.33-10.88,2.81-16.27,4.43.73.87,1.44,1.76,2.12,2.67C178.41,50.3,191.3,48.7,204,48.4a86.13,86.13,0,0,1,11.25.48,18.6,18.6,0,0,1,4.65,1.1,6.44,6.44,0,0,1-1.21,2,37.56,37.56,0,0,1-3.6,3.46,83.29,83.29,0,0,1-9,6.48c-6.43,4.09-13.34,7.65-20.28,11.18-3,1.48-6,2.94-9,4.36q-6.06,2.83-12.23,5.5c-14.37,6.22-29,12.06-43.78,17.27Q98.62,108.33,76,114.81c-5.08,1.48-10.17,2.9-15.3,4.2-10,2.55-20.1,4.67-30.14,6.23a101.52,101.52,0,0,1-11.2,1,50.17,50.17,0,0,1-5.27-.13A15.33,15.33,0,0,1,10,125.3l-.29-.13a11.34,11.34,0,0,1,1.48-2.49,56.46,56.46,0,0,1,7.71-7.78c10.43-8.83,22.36-16.38,34.43-23.68,0-1-.05-1.94,0-2.9-6.19,2.45-12.25,5.16-18.25,8.15a169.36,169.36,0,0,0-21,12.18A56.45,56.45,0,0,0,4.24,117a22.12,22.12,0,0,0-2.24,3,12,12,0,0,0-1.8,4.24,8.42,8.42,0,0,0-.09,3.19,8.63,8.63,0,0,0,1.23,3.18,11,11,0,0,0,4,3.65,23.34,23.34,0,0,0,7.32,2.41,51.57,51.57,0,0,0,6.62.64,116.32,116.32,0,0,0,12.57-.29,250.43,250.43,0,0,0,37.11-6.09c3.58-.8,7.17-1.67,10.72-2.54,15.61-4,30.92-8.89,46.06-14.23,15.06-5.59,30-11.52,44.56-18.44,2.55-1.23,5.11-2.48,7.64-3.76,11.91-5.93,23.61-12.34,34.65-20.35a91,91,0,0,0,9.81-8.07,35.06,35.06,0,0,0,4.54-5.21,20,20,0,0,0,2-3.44,11.9,11.9,0,0,0,1.1-5A9,9,0,0,0,229.4,46.58Z"/><path class="cls-8" d="M1.51,126.08c4.71-2.65,9.37-5.32,14-8.1,1.1-1,2.24-2.07,3.39-3.08a187.47,187.47,0,0,1,15.2-11.45q-3.55-1.32-7-2.8c-4.41,2.44-8.74,5.08-13,8A56.45,56.45,0,0,0,4.24,117a22.12,22.12,0,0,0-2.24,3,12,12,0,0,0-1.8,4.24,8.67,8.67,0,0,0-.14,2.78C.54,126.64,1,126.35,1.51,126.08Z"/><path class="cls-8" d="M131.89,107.58c-1.65-3.18-3.28-6.37-5-9.53-2,.75-4.09,1.48-6.15,2.21q-12.51,4.56-25.19,8.6c-.2,5.08-.48,10.16-.8,15.24,10.41-3.06,20.72-6.44,30.94-10,2.67-1,5.33-2,8-3Z"/><path class="cls-8" d="M173.21,79.12c-2.87,1.31-5.76,2.61-8.67,3.87q-11.64,5-23.49,9.7c1.59,3,3.11,6,4.68,9l2,3.81c7.58-3.1,15.11-6.37,22.53-9.9,2.55-1.23,5.11-2.48,7.64-3.76q4.34-2.16,8.62-4.42C182.11,84.64,177.69,81.83,173.21,79.12Z"/><path class="cls-8" d="M184.15,49.66c5.57-2.88,11.16-5.73,16.73-8.61a206.22,206.22,0,0,0-21.21,4c-5.48,1.33-10.88,2.81-16.27,4.43.73.87,1.44,1.76,2.12,2.67,6.14-.9,12.27-1.73,18.38-2.39Z"/><path class="cls-8" d="M227.56,43.85q-5,2.76-10,5.42a12.9,12.9,0,0,1,2.39.71,6.44,6.44,0,0,1-1.21,2,37.56,37.56,0,0,1-3.6,3.46,83.29,83.29,0,0,1-9,6.48c-5.38,3.42-11.09,6.46-16.87,9.43,4,2.55,8.06,5.12,12.11,7.64,3.81-2.35,7.58-4.84,11.26-7.51a91,91,0,0,0,9.81-8.07,35.06,35.06,0,0,0,4.54-5.21,20,20,0,0,0,2-3.44,11.9,11.9,0,0,0,1.1-5,9,9,0,0,0-.62-3.17A8.28,8.28,0,0,0,227.56,43.85Z"/><path class="cls-8" d="M80.36,113.52c-1.45.43-2.9.87-4.36,1.29-3.51,1-7,2-10.57,3-2.67,5-5.56,10.24-8.13,15.55q5.85-1.16,11.63-2.48c3.53-.79,7-1.64,10.56-2.5C79.82,123.4,80.13,118.46,80.36,113.52Z"/><path class="cls-8" d="M46.1,122.38c-4.46.93-8.91,1.77-13.36,2.49l-1.28.83c-5.93,3.79-11.88,7.63-18,11a54.52,54.52,0,0,0,5.84.52,116.32,116.32,0,0,0,12.57-.29c2.64-.2,5.27-.48,7.88-.79A149.92,149.92,0,0,1,46.1,122.38Z"/></g></g></g></svg>